{"glyphs":{"0":{"ha":799,"x_min":69,"x_max":729,"o":"m 400 -17 q 261 6 322 -17 q 157 85 200 29 q 92 235 114 140 q 69 476 69 331 q 92 717 69 622 q 157 868 114 813 q 261 947 200 924 q 400 969 322 969 q 538 947 478 969 q 642 868 599 924 q 707 717 685 813 q 729 476 729 622 q 707 235 729 331 q 642 85 685 140 q 538 6 599 29 q 400 -17 478 -17 m 400 122 q 498 158 465 122 q 542 263 531 193 q 554 438 554 333 l 554 510 q 542 688 554 617 q 498 795 531 760 q 400 831 465 831 q 302 795 336 831 q 256 690 268 760 q 244 514 244 619 l 244 442 q 256 265 244 336 q 302 158 268 193 q 400 122 336 122 z "},"1":{"ha":800,"x_min":135,"x_max":747,"o":"m 136 0 l 136 139 l 365 139 l 365 739 l 135 739 l 135 843 q 233 863 176 847 q 347 903 289 879 q 453 953 406 926 l 536 953 l 536 139 l 747 139 l 747 0 l 136 0 z "},"2":{"ha":800,"x_min":71,"x_max":735,"o":"m 71 0 l 71 46 q 93 160 71 108 q 153 253 115 211 q 237 334 190 296 q 331 407 283 372 q 440 494 389 450 q 524 588 492 538 q 556 701 556 639 q 542 760 556 731 q 497 808 528 789 q 413 828 465 828 q 325 810 360 828 q 273 761 290 793 q 256 682 256 729 l 256 625 l 86 625 q 83 646 85 632 q 82 681 82 660 q 128 847 82 783 q 252 940 175 910 q 419 969 329 969 q 574 942 514 969 q 669 871 635 914 q 716 779 703 828 q 729 690 729 731 q 706 569 729 624 q 643 466 683 514 q 548 374 603 418 q 431 286 493 331 q 368 242 399 264 q 315 197 338 219 q 279 153 292 175 l 735 153 l 735 0 l 71 0 z "},"3":{"ha":800,"x_min":61,"x_max":735,"o":"m 403 -17 q 217 19 293 -17 q 101 119 140 54 q 61 269 61 183 l 61 290 l 233 290 l 233 265 q 276 159 233 196 q 397 122 319 122 q 515 157 471 122 q 560 268 560 192 q 535 359 560 328 q 472 403 511 390 q 386 415 432 415 l 307 415 l 307 554 l 390 554 q 466 569 432 554 q 520 617 500 585 q 540 697 540 649 q 522 774 540 744 q 472 817 504 803 q 400 831 440 831 q 324 816 357 831 q 272 772 290 801 q 254 696 254 742 l 254 674 l 82 674 l 82 708 q 122 847 82 788 q 234 938 163 906 q 397 969 306 969 q 563 940 492 969 q 675 851 635 910 q 715 708 715 793 q 695 612 715 653 q 640 543 675 571 q 563 494 606 515 l 563 489 q 685 408 636 467 q 735 256 735 350 q 692 110 735 171 q 575 16 650 49 q 403 -17 500 -17 z "},"4":{"ha":801,"x_min":43,"x_max":750,"o":"m 463 0 l 463 213 l 43 213 l 43 351 q 146 540 99 443 q 232 744 193 638 q 299 969 271 851 l 476 969 q 431 818 458 896 q 369 667 403 740 q 303 530 336 593 q 241 420 269 467 q 196 351 213 374 l 463 351 l 463 592 q 488 648 475 618 q 512 709 500 678 q 533 770 524 740 q 551 828 543 800 l 632 828 l 632 351 l 750 351 l 750 213 l 632 213 l 632 0 l 463 0 z "},"5":{"ha":799,"x_min":64,"x_max":731,"o":"m 399 -17 q 223 21 299 -17 q 106 128 147 58 q 64 296 64 199 l 239 296 q 258 203 239 243 q 314 143 278 164 q 399 122 350 122 q 481 143 446 122 q 535 206 515 164 q 556 311 556 249 q 536 408 556 369 q 482 465 517 446 q 403 483 447 483 q 342 472 369 483 q 293 444 314 461 q 257 404 272 426 l 96 425 l 135 953 l 682 953 l 682 799 l 282 799 l 267 564 q 311 590 286 578 q 370 611 336 603 q 449 619 404 619 q 592 586 528 619 q 693 485 656 553 q 731 311 731 417 q 690 133 731 207 q 576 22 650 60 q 399 -17 501 -17 z "},"6":{"ha":800,"x_min":71,"x_max":742,"o":"m 421 -17 q 274 7 339 -17 q 164 84 210 31 q 94 227 118 138 q 71 449 71 317 q 94 697 71 597 q 160 857 117 797 q 268 943 204 917 q 414 969 332 969 q 583 930 518 969 q 679 824 649 890 q 710 672 710 757 l 538 672 q 524 758 538 722 q 482 812 511 793 q 407 831 453 831 q 304 794 339 831 q 258 689 269 757 q 244 526 246 621 q 280 558 253 538 q 351 594 307 578 q 453 611 396 611 q 617 570 553 611 q 711 458 681 529 q 742 297 742 388 q 700 131 742 201 q 586 22 658 60 q 421 -17 514 -17 m 413 122 q 499 146 465 122 q 550 210 533 169 q 567 299 567 250 q 550 390 567 350 q 499 452 533 429 q 413 475 465 475 q 325 452 360 475 q 274 390 290 429 q 257 297 257 350 q 274 208 257 249 q 325 145 290 168 q 413 122 360 122 z "},"7":{"ha":800,"x_min":64,"x_max":744,"o":"m 204 0 q 233 228 204 117 q 310 443 261 340 q 418 636 358 546 q 540 799 478 726 l 64 799 l 64 953 l 744 953 l 744 842 q 647 717 697 785 q 551 572 597 649 q 467 414 504 496 q 409 245 431 332 q 388 71 388 158 l 388 0 l 204 0 z "},"8":{"ha":800,"x_min":61,"x_max":738,"o":"m 400 -17 q 206 21 281 -17 q 96 122 131 58 q 61 261 61 185 q 98 398 61 339 q 215 489 135 457 q 118 580 150 524 q 86 704 86 636 q 121 838 86 778 q 226 933 156 897 q 400 969 296 969 q 574 933 504 969 q 678 838 643 897 q 714 704 714 778 q 681 580 714 636 q 583 489 649 524 q 701 398 665 457 q 738 261 738 339 q 703 122 738 185 q 594 21 668 58 q 400 -17 519 -17 m 400 121 q 521 160 479 121 q 563 269 563 200 q 521 379 563 340 q 400 418 479 418 q 278 379 321 418 q 236 269 236 340 q 278 160 236 200 q 400 121 321 121 m 400 556 q 505 591 467 556 q 543 693 543 626 q 505 795 543 758 q 400 832 467 832 q 294 795 332 832 q 257 693 257 758 q 294 591 257 626 q 400 556 332 556 z "},"9":{"ha":799,"x_min":58,"x_max":729,"o":"m 386 -17 q 217 23 282 -17 q 121 130 151 63 q 90 281 90 197 l 263 281 q 276 195 263 231 q 318 141 289 160 q 393 122 347 122 q 495 159 461 122 q 541 265 529 196 q 554 426 553 333 q 520 396 547 417 q 449 358 493 375 q 349 342 406 342 q 185 383 249 342 q 90 495 121 424 q 58 656 58 567 q 100 823 58 753 q 214 931 142 893 q 378 969 286 969 q 525 946 460 969 q 636 869 590 922 q 706 726 682 815 q 729 504 729 636 q 706 256 729 357 q 640 96 683 156 q 532 10 596 36 q 386 -17 468 -17 m 388 478 q 475 501 440 478 q 526 564 510 524 q 543 656 543 604 q 526 745 543 706 q 475 808 510 785 q 388 831 440 831 q 301 807 335 831 q 250 744 267 783 q 233 654 233 704 q 250 563 233 603 q 301 501 267 524 q 388 478 335 478 z "},"A":{"ha":985,"x_min":7,"x_max":978,"o":"m 7 0 l 378 953 l 606 953 l 978 0 l 782 0 l 706 203 l 269 203 l 193 0 l 7 0 m 326 356 l 647 356 l 551 614 q 538 649 546 628 q 522 697 531 671 q 506 749 514 722 q 490 796 497 775 l 483 796 q 463 732 475 768 q 440 664 451 696 q 422 614 429 632 l 326 356 z "},"Á":{"ha":985,"x_min":7,"x_max":978,"o":"m 7 0 l 378 953 l 606 953 l 978 0 l 782 0 l 706 203 l 269 203 l 193 0 l 7 0 m 326 356 l 647 356 l 551 614 q 538 649 546 628 q 522 697 531 671 q 506 749 514 722 q 490 796 497 775 l 483 796 q 463 732 475 768 q 440 664 451 696 q 422 614 429 632 l 326 356 m 413 1022 l 525 1206 l 708 1206 l 710 1201 l 560 1022 l 413 1022 z "},"Ă":{"ha":985,"x_min":7,"x_max":978,"o":"m 7 0 l 378 953 l 606 953 l 978 0 l 782 0 l 706 203 l 269 203 l 193 0 l 7 0 m 326 356 l 647 356 l 551 614 q 538 649 546 628 q 522 697 531 671 q 506 749 514 722 q 490 796 497 775 l 483 796 q 463 732 475 768 q 440 664 451 696 q 422 614 429 632 l 326 356 m 493 1024 q 366 1051 414 1024 q 297 1122 318 1079 q 276 1206 276 1164 l 389 1206 q 402 1175 392 1192 q 435 1147 413 1158 q 493 1136 457 1136 q 552 1147 529 1136 q 586 1175 575 1158 q 599 1206 597 1192 l 711 1206 q 690 1122 711 1164 q 621 1051 668 1079 q 493 1024 574 1024 z "},"Ắ":{"ha":985,"x_min":7,"x_max":978,"o":"m 7 0 l 378 953 l 606 953 l 978 0 l 782 0 l 706 203 l 269 203 l 193 0 l 7 0 m 326 356 l 647 356 l 551 614 q 538 649 546 628 q 522 697 531 671 q 506 749 514 722 q 490 796 497 775 l 483 796 q 463 732 475 768 q 440 664 451 696 q 422 614 429 632 l 326 356 m 493 1024 q 366 1051 414 1024 q 297 1122 318 1079 q 276 1206 276 1164 l 389 1206 q 402 1175 392 1192 q 435 1147 413 1158 q 493 1136 457 1136 q 552 1147 529 1136 q 586 1175 575 1158 q 599 1206 597 1192 l 711 1206 q 690 1122 711 1164 q 621 1051 668 1079 q 493 1024 574 1024 m 413 1236 l 525 1419 l 708 1419 l 710 1415 l 560 1236 l 413 1236 z "},"Ặ":{"ha":985,"x_min":7,"x_max":978,"o":"m 7 0 l 378 953 l 606 953 l 978 0 l 782 0 l 706 203 l 269 203 l 193 0 l 7 0 m 326 356 l 647 356 l 551 614 q 538 649 546 628 q 522 697 531 671 q 506 749 514 722 q 490 796 497 775 l 483 796 q 463 732 475 768 q 440 664 451 696 q 422 614 429 632 l 326 356 m 410 -272 l 410 -111 l 576 -111 l 576 -272 l 410 -272 m 493 1024 q 366 1051 414 1024 q 297 1122 318 1079 q 276 1206 276 1164 l 389 1206 q 402 1175 392 1192 q 435 1147 413 1158 q 493 1136 457 1136 q 552 1147 529 1136 q 586 1175 575 1158 q 599 1206 597 1192 l 711 1206 q 690 1122 711 1164 q 621 1051 668 1079 q 493 1024 574 1024 z "},"Ằ":{"ha":985,"x_min":7,"x_max":978,"o":"m 7 0 l 378 953 l 606 953 l 978 0 l 782 0 l 706 203 l 269 203 l 193 0 l 7 0 m 326 356 l 647 356 l 551 614 q 538 649 546 628 q 522 697 531 671 q 506 749 514 722 q 490 796 497 775 l 483 796 q 463 732 475 768 q 440 664 451 696 q 422 614 429 632 l 326 356 m 493 1024 q 366 1051 414 1024 q 297 1122 318 1079 q 276 1206 276 1164 l 389 1206 q 402 1175 392 1192 q 435 1147 413 1158 q 493 1136 457 1136 q 552 1147 529 1136 q 586 1175 575 1158 q 599 1206 597 1192 l 711 1206 q 690 1122 711 1164 q 621 1051 668 1079 q 493 1024 574 1024 m 582 1236 l 435 1236 l 285 1415 l 286 1419 l 469 1419 l 582 1236 z "},"Ẳ":{"ha":985,"x_min":7,"x_max":978,"o":"m 7 0 l 378 953 l 606 953 l 978 0 l 782 0 l 706 203 l 269 203 l 193 0 l 7 0 m 326 356 l 647 356 l 551 614 q 538 649 546 628 q 522 697 531 671 q 506 749 514 722 q 490 796 497 775 l 483 796 q 463 732 475 768 q 440 664 451 696 q 422 614 429 632 l 326 356 m 493 1024 q 366 1051 414 1024 q 297 1122 318 1079 q 276 1206 276 1164 l 389 1206 q 402 1175 392 1192 q 435 1147 413 1158 q 493 1136 457 1136 q 552 1147 529 1136 q 586 1175 575 1158 q 599 1206 597 1192 l 711 1206 q 690 1122 711 1164 q 621 1051 668 1079 q 493 1024 574 1024 m 450 1236 l 450 1314 l 468 1314 q 501 1320 492 1314 q 511 1340 511 1326 q 499 1360 511 1356 q 465 1365 488 1365 l 383 1365 l 383 1425 q 419 1431 400 1429 q 458 1435 439 1433 q 494 1436 478 1436 q 544 1433 518 1436 q 594 1420 571 1429 q 631 1394 617 1411 q 646 1351 646 1378 q 631 1308 646 1325 q 591 1283 615 1292 q 539 1272 567 1275 l 539 1236 l 450 1236 z "},"Ẵ":{"ha":985,"x_min":7,"x_max":978,"o":"m 7 0 l 378 953 l 606 953 l 978 0 l 782 0 l 706 203 l 269 203 l 193 0 l 7 0 m 326 356 l 647 356 l 551 614 q 538 649 546 628 q 522 697 531 671 q 506 749 514 722 q 490 796 497 775 l 483 796 q 463 732 475 768 q 440 664 451 696 q 422 614 429 632 l 326 356 m 493 1024 q 366 1051 414 1024 q 297 1122 318 1079 q 276 1206 276 1164 l 389 1206 q 402 1175 392 1192 q 435 1147 413 1158 q 493 1136 457 1136 q 552 1147 529 1136 q 586 1175 575 1158 q 599 1206 597 1192 l 711 1206 q 690 1122 711 1164 q 621 1051 668 1079 q 493 1024 574 1024 m 261 1264 q 274 1345 261 1308 q 317 1404 288 1382 q 392 1426 346 1426 q 459 1415 428 1426 q 521 1390 490 1403 q 583 1378 551 1378 q 615 1388 603 1378 q 629 1426 626 1399 l 724 1426 q 710 1347 724 1383 q 669 1287 697 1310 q 593 1264 640 1264 q 526 1276 558 1264 q 465 1301 494 1289 q 403 1314 435 1314 q 372 1303 385 1314 q 357 1264 360 1292 l 261 1264 z "},"Ǎ":{"ha":985,"x_min":7,"x_max":978,"o":"m 7 0 l 378 953 l 606 953 l 978 0 l 782 0 l 706 203 l 269 203 l 193 0 l 7 0 m 326 356 l 647 356 l 551 614 q 538 649 546 628 q 522 697 531 671 q 506 749 514 722 q 490 796 497 775 l 483 796 q 463 732 475 768 q 440 664 451 696 q 422 614 429 632 l 326 356 m 260 1206 l 414 1206 l 532 1061 l 454 1060 l 571 1206 l 725 1206 l 579 1022 l 407 1022 l 260 1206 z "},"Â":{"ha":985,"x_min":7,"x_max":978,"o":"m 7 0 l 378 953 l 606 953 l 978 0 l 782 0 l 706 203 l 269 203 l 193 0 l 7 0 m 326 356 l 647 356 l 551 614 q 538 649 546 628 q 522 697 531 671 q 506 749 514 722 q 490 796 497 775 l 483 796 q 463 732 475 768 q 440 664 451 696 q 422 614 429 632 l 326 356 m 260 1022 l 407 1206 l 579 1206 l 725 1022 l 571 1022 l 454 1168 l 532 1167 l 414 1022 l 260 1022 z "},"Ấ":{"ha":985,"x_min":7,"x_max":978,"o":"m 7 0 l 378 953 l 606 953 l 978 0 l 782 0 l 706 203 l 269 203 l 193 0 l 7 0 m 326 356 l 647 356 l 551 614 q 538 649 546 628 q 522 697 531 671 q 506 749 514 722 q 490 796 497 775 l 483 796 q 463 732 475 768 q 440 664 451 696 q 422 614 429 632 l 326 356 m 260 1022 l 407 1206 l 579 1206 l 725 1022 l 571 1022 l 454 1168 l 532 1167 l 414 1022 l 260 1022 m 413 1250 l 525 1433 l 708 1433 l 710 1429 l 560 1250 l 413 1250 z "},"Ậ":{"ha":985,"x_min":7,"x_max":978,"o":"m 7 0 l 378 953 l 606 953 l 978 0 l 782 0 l 706 203 l 269 203 l 193 0 l 7 0 m 326 356 l 647 356 l 551 614 q 538 649 546 628 q 522 697 531 671 q 506 749 514 722 q 490 796 497 775 l 483 796 q 463 732 475 768 q 440 664 451 696 q 422 614 429 632 l 326 356 m 410 -272 l 410 -111 l 576 -111 l 576 -272 l 410 -272 m 260 1022 l 407 1206 l 579 1206 l 725 1022 l 571 1022 l 454 1168 l 532 1167 l 414 1022 l 260 1022 z "},"Ầ":{"ha":985,"x_min":7,"x_max":978,"o":"m 7 0 l 378 953 l 606 953 l 978 0 l 782 0 l 706 203 l 269 203 l 193 0 l 7 0 m 326 356 l 647 356 l 551 614 q 538 649 546 628 q 522 697 531 671 q 506 749 514 722 q 490 796 497 775 l 483 796 q 463 732 475 768 q 440 664 451 696 q 422 614 429 632 l 326 356 m 260 1022 l 407 1206 l 579 1206 l 725 1022 l 571 1022 l 454 1168 l 532 1167 l 414 1022 l 260 1022 m 582 1250 l 435 1250 l 285 1429 l 286 1433 l 469 1433 l 582 1250 z "},"Ẩ":{"ha":985,"x_min":7,"x_max":978,"o":"m 7 0 l 378 953 l 606 953 l 978 0 l 782 0 l 706 203 l 269 203 l 193 0 l 7 0 m 326 356 l 647 356 l 551 614 q 538 649 546 628 q 522 697 531 671 q 506 749 514 722 q 490 796 497 775 l 483 796 q 463 732 475 768 q 440 664 451 696 q 422 614 429 632 l 326 356 m 260 1022 l 407 1206 l 579 1206 l 725 1022 l 571 1022 l 454 1168 l 532 1167 l 414 1022 l 260 1022 m 450 1250 l 450 1328 l 468 1328 q 501 1334 492 1328 q 511 1354 511 1340 q 499 1374 511 1369 q 465 1379 488 1379 l 383 1379 l 383 1439 q 419 1445 400 1443 q 458 1449 439 1447 q 494 1450 478 1450 q 544 1447 518 1450 q 594 1434 571 1443 q 631 1408 617 1425 q 646 1365 646 1392 q 631 1322 646 1339 q 591 1297 615 1306 q 539 1286 567 1289 l 539 1250 l 450 1250 z "},"Ẫ":{"ha":985,"x_min":7,"x_max":978,"o":"m 7 0 l 378 953 l 606 953 l 978 0 l 782 0 l 706 203 l 269 203 l 193 0 l 7 0 m 326 356 l 647 356 l 551 614 q 538 649 546 628 q 522 697 531 671 q 506 749 514 722 q 490 796 497 775 l 483 796 q 463 732 475 768 q 440 664 451 696 q 422 614 429 632 l 326 356 m 260 1022 l 407 1206 l 579 1206 l 725 1022 l 571 1022 l 454 1168 l 532 1167 l 414 1022 l 260 1022 m 261 1278 q 274 1359 261 1322 q 317 1418 288 1396 q 392 1440 346 1440 q 459 1428 428 1440 q 521 1404 490 1417 q 583 1392 551 1392 q 615 1402 603 1392 q 629 1440 626 1413 l 724 1440 q 710 1360 724 1397 q 669 1301 697 1324 q 593 1278 640 1278 q 526 1290 558 1278 q 465 1315 494 1303 q 403 1328 435 1328 q 372 1317 385 1328 q 357 1278 360 1306 l 261 1278 z "},"Ȁ":{"ha":985,"x_min":7,"x_max":978,"o":"m 7 0 l 378 953 l 606 953 l 978 0 l 782 0 l 706 203 l 269 203 l 193 0 l 7 0 m 326 356 l 647 356 l 551 614 q 538 649 546 628 q 522 697 531 671 q 506 749 514 722 q 490 796 497 775 l 483 796 q 463 732 475 768 q 440 664 451 696 q 422 614 429 632 l 326 356 m 569 1022 l 426 1201 l 428 1206 l 611 1206 l 714 1022 l 569 1022 m 314 1022 l 171 1201 l 172 1206 l 356 1206 l 458 1022 l 314 1022 z "},"Ä":{"ha":985,"x_min":7,"x_max":978,"o":"m 7 0 l 378 953 l 606 953 l 978 0 l 782 0 l 706 203 l 269 203 l 193 0 l 7 0 m 326 356 l 647 356 l 551 614 q 538 649 546 628 q 522 697 531 671 q 506 749 514 722 q 490 796 497 775 l 483 796 q 463 732 475 768 q 440 664 451 696 q 422 614 429 632 l 326 356 m 276 1051 l 276 1206 l 428 1206 l 428 1051 l 276 1051 m 558 1051 l 558 1206 l 710 1206 l 710 1051 l 558 1051 z "},"Ạ":{"ha":985,"x_min":7,"x_max":978,"o":"m 7 0 l 378 953 l 606 953 l 978 0 l 782 0 l 706 203 l 269 203 l 193 0 l 7 0 m 326 356 l 647 356 l 551 614 q 538 649 546 628 q 522 697 531 671 q 506 749 514 722 q 490 796 497 775 l 483 796 q 463 732 475 768 q 440 664 451 696 q 422 614 429 632 l 326 356 m 410 -272 l 410 -111 l 576 -111 l 576 -272 l 410 -272 z "},"À":{"ha":985,"x_min":7,"x_max":978,"o":"m 7 0 l 378 953 l 606 953 l 978 0 l 782 0 l 706 203 l 269 203 l 193 0 l 7 0 m 326 356 l 647 356 l 551 614 q 538 649 546 628 q 522 697 531 671 q 506 749 514 722 q 490 796 497 775 l 483 796 q 463 732 475 768 q 440 664 451 696 q 422 614 429 632 l 326 356 m 582 1022 l 435 1022 l 285 1201 l 286 1206 l 469 1206 l 582 1022 z "},"Ả":{"ha":985,"x_min":7,"x_max":978,"o":"m 7 0 l 378 953 l 606 953 l 978 0 l 782 0 l 706 203 l 269 203 l 193 0 l 7 0 m 326 356 l 647 356 l 551 614 q 538 649 546 628 q 522 697 531 671 q 506 749 514 722 q 490 796 497 775 l 483 796 q 463 732 475 768 q 440 664 451 696 q 422 614 429 632 l 326 356 m 450 1022 l 450 1100 l 468 1100 q 501 1106 492 1100 q 511 1126 511 1113 q 499 1147 511 1142 q 465 1151 488 1151 l 383 1151 l 383 1211 q 419 1217 400 1215 q 458 1221 439 1219 q 494 1222 478 1222 q 544 1219 518 1222 q 594 1206 571 1215 q 631 1181 617 1197 q 646 1138 646 1164 q 631 1094 646 1111 q 591 1069 615 1078 q 539 1058 567 1061 l 539 1022 l 450 1022 z "},"Ȃ":{"ha":985,"x_min":7,"x_max":978,"o":"m 7 0 l 378 953 l 606 953 l 978 0 l 782 0 l 706 203 l 269 203 l 193 0 l 7 0 m 326 356 l 647 356 l 551 614 q 538 649 546 628 q 522 697 531 671 q 506 749 514 722 q 490 796 497 775 l 483 796 q 463 732 475 768 q 440 664 451 696 q 422 614 429 632 l 326 356 m 276 1024 q 298 1108 276 1067 q 367 1178 319 1150 q 494 1206 415 1206 q 622 1178 575 1206 q 690 1108 669 1150 q 711 1024 711 1067 l 599 1024 q 585 1054 596 1039 q 553 1081 575 1069 q 494 1092 531 1092 q 435 1081 458 1092 q 401 1054 413 1069 q 389 1024 390 1039 l 276 1024 z "},"Ā":{"ha":985,"x_min":7,"x_max":978,"o":"m 7 0 l 378 953 l 606 953 l 978 0 l 782 0 l 706 203 l 269 203 l 193 0 l 7 0 m 326 356 l 647 356 l 551 614 q 538 649 546 628 q 522 697 531 671 q 506 749 514 722 q 490 796 497 775 l 483 796 q 463 732 475 768 q 440 664 451 696 q 422 614 429 632 l 326 356 m 281 1051 l 281 1167 l 704 1167 l 704 1051 l 281 1051 z "},"Ą":{"ha":985,"x_min":7,"x_max":982,"o":"m 7 0 l 378 953 l 606 953 l 978 0 l 782 0 l 706 203 l 269 203 l 193 0 l 7 0 m 326 356 l 647 356 l 551 614 q 538 649 546 628 q 522 697 531 671 q 506 749 514 722 q 490 796 497 775 l 483 796 q 463 732 475 768 q 440 664 451 696 q 422 614 429 632 l 326 356 m 869 -253 q 801 -242 835 -253 q 746 -203 768 -231 q 724 -129 724 -176 q 747 -44 724 -78 q 797 17 769 -10 l 906 17 l 906 11 q 875 -30 892 -3 q 858 -86 858 -57 q 874 -136 858 -114 q 928 -158 890 -158 l 982 -158 l 982 -233 q 925 -248 957 -243 q 869 -253 893 -253 z "},"Å":{"ha":985,"x_min":7,"x_max":978,"o":"m 7 0 l 378 953 l 606 953 l 978 0 l 782 0 l 706 203 l 269 203 l 193 0 l 7 0 m 326 356 l 647 356 l 551 614 q 538 649 546 628 q 522 697 531 671 q 506 749 514 722 q 490 796 497 775 l 483 796 q 463 732 475 768 q 440 664 451 696 q 422 614 429 632 l 326 356 m 493 1013 q 388 1051 429 1013 q 347 1150 347 1090 q 388 1250 347 1211 q 493 1289 429 1289 q 598 1250 557 1289 q 639 1150 639 1211 q 598 1051 639 1090 q 493 1013 557 1013 m 493 1090 q 539 1107 521 1090 q 557 1150 557 1124 q 539 1194 557 1176 q 493 1211 521 1211 q 447 1194 465 1211 q 429 1150 429 1176 q 447 1107 429 1124 q 493 1090 465 1090 z "},"Ǻ":{"ha":985,"x_min":7,"x_max":978,"o":"m 7 0 l 378 953 l 606 953 l 978 0 l 782 0 l 706 203 l 269 203 l 193 0 l 7 0 m 326 356 l 647 356 l 551 614 q 538 649 546 628 q 522 697 531 671 q 506 749 514 722 q 490 796 497 775 l 483 796 q 463 732 475 768 q 440 664 451 696 q 422 614 429 632 l 326 356 m 493 1013 q 388 1051 429 1013 q 347 1150 347 1090 q 388 1250 347 1211 q 493 1289 429 1289 q 598 1250 557 1289 q 639 1150 639 1211 q 598 1051 639 1090 q 493 1013 557 1013 m 493 1090 q 539 1107 521 1090 q 557 1150 557 1124 q 539 1194 557 1176 q 493 1211 521 1211 q 447 1194 465 1211 q 429 1150 429 1176 q 447 1107 429 1124 q 493 1090 465 1090 m 413 1333 l 525 1517 l 708 1517 l 710 1513 l 560 1333 l 413 1333 z "},"Ã":{"ha":985,"x_min":7,"x_max":978,"o":"m 7 0 l 378 953 l 606 953 l 978 0 l 782 0 l 706 203 l 269 203 l 193 0 l 7 0 m 326 356 l 647 356 l 551 614 q 538 649 546 628 q 522 697 531 671 q 506 749 514 722 q 490 796 497 775 l 483 796 q 463 732 475 768 q 440 664 451 696 q 422 614 429 632 l 326 356 m 261 1050 q 274 1131 261 1094 q 317 1190 288 1168 q 392 1213 346 1213 q 459 1201 428 1213 q 521 1176 490 1189 q 583 1164 551 1164 q 615 1174 603 1164 q 629 1213 626 1185 l 724 1213 q 710 1133 724 1169 q 669 1073 697 1096 q 593 1050 640 1050 q 526 1063 558 1050 q 465 1088 494 1075 q 403 1100 435 1100 q 372 1089 385 1100 q 357 1050 360 1078 l 261 1050 z "},"Æ":{"ha":1388,"x_min":-7,"x_max":1311,"o":"m -7 0 l 460 953 l 1303 953 l 1303 799 l 742 799 l 806 564 l 1242 564 l 1242 410 l 847 410 l 917 154 l 1311 154 l 1311 0 l 774 0 l 719 204 l 275 204 l 179 0 l -7 0 m 346 356 l 681 356 l 581 731 q 576 747 579 739 q 572 765 574 756 q 567 782 569 774 q 563 799 565 790 l 556 799 q 547 782 551 790 q 540 765 543 774 q 532 747 536 756 q 524 731 528 739 l 346 356 z "},"Ǽ":{"ha":1388,"x_min":-7,"x_max":1311,"o":"m -7 0 l 460 953 l 1303 953 l 1303 799 l 742 799 l 806 564 l 1242 564 l 1242 410 l 847 410 l 917 154 l 1311 154 l 1311 0 l 774 0 l 719 204 l 275 204 l 179 0 l -7 0 m 346 356 l 681 356 l 581 731 q 576 747 579 739 q 572 765 574 756 q 567 782 569 774 q 563 799 565 790 l 556 799 q 547 782 551 790 q 540 765 543 774 q 532 747 536 756 q 524 731 528 739 l 346 356 m 586 1022 l 699 1206 l 882 1206 l 883 1201 l 733 1022 l 586 1022 z "},"B":{"ha":981,"x_min":106,"x_max":918,"o":"m 106 0 l 106 953 l 625 953 q 762 924 701 953 q 857 842 822 894 q 892 718 892 789 q 871 619 892 664 q 815 545 850 575 q 735 500 779 515 l 735 494 q 829 452 788 483 q 894 373 871 421 q 918 263 918 325 q 878 115 918 174 q 773 28 839 57 q 625 0 707 0 l 106 0 m 286 154 l 601 154 q 695 185 658 154 q 732 283 732 217 q 717 351 732 322 q 670 397 701 381 q 590 413 639 413 l 286 413 l 286 154 m 286 564 l 578 564 q 648 579 619 564 q 691 621 676 594 q 706 679 706 647 q 673 769 706 740 q 588 799 640 799 l 286 799 l 286 564 z "},"C":{"ha":1001,"x_min":63,"x_max":946,"o":"m 525 -17 q 276 35 379 -17 q 117 195 172 86 q 63 476 63 304 q 185 849 63 728 q 525 969 307 969 q 738 929 643 969 q 890 808 833 889 q 946 601 946 726 l 761 601 q 731 719 761 671 q 649 792 701 767 q 528 817 596 817 q 371 780 433 817 q 278 671 308 743 q 249 492 249 599 l 249 461 q 278 281 249 353 q 370 172 308 208 q 528 136 432 136 q 654 160 600 136 q 738 233 708 185 q 768 350 768 281 l 946 350 q 890 144 946 225 q 740 23 835 63 q 525 -17 644 -17 z "},"Ć":{"ha":1001,"x_min":63,"x_max":946,"o":"m 525 -17 q 276 35 379 -17 q 117 195 172 86 q 63 476 63 304 q 185 849 63 728 q 525 969 307 969 q 738 929 643 969 q 890 808 833 889 q 946 601 946 726 l 761 601 q 731 719 761 671 q 649 792 701 767 q 528 817 596 817 q 371 780 433 817 q 278 671 308 743 q 249 492 249 599 l 249 461 q 278 281 249 353 q 370 172 308 208 q 528 136 432 136 q 654 160 600 136 q 738 233 708 185 q 768 350 768 281 l 946 350 q 890 144 946 225 q 740 23 835 63 q 525 -17 644 -17 m 447 1022 l 560 1206 l 743 1206 l 744 1201 l 594 1022 l 447 1022 z "},"Č":{"ha":1001,"x_min":63,"x_max":946,"o":"m 525 -17 q 276 35 379 -17 q 117 195 172 86 q 63 476 63 304 q 185 849 63 728 q 525 969 307 969 q 738 929 643 969 q 890 808 833 889 q 946 601 946 726 l 761 601 q 731 719 761 671 q 649 792 701 767 q 528 817 596 817 q 371 780 433 817 q 278 671 308 743 q 249 492 249 599 l 249 461 q 278 281 249 353 q 370 172 308 208 q 528 136 432 136 q 654 160 600 136 q 738 233 708 185 q 768 350 768 281 l 946 350 q 890 144 946 225 q 740 23 835 63 q 525 -17 644 -17 m 294 1206 l 449 1206 l 567 1061 l 489 1060 l 606 1206 l 760 1206 l 614 1022 l 442 1022 l 294 1206 z "},"Ç":{"ha":1001,"x_min":63,"x_max":946,"o":"m 525 -17 q 276 35 379 -17 q 117 195 172 86 q 63 476 63 304 q 185 849 63 728 q 525 969 307 969 q 738 929 643 969 q 890 808 833 889 q 946 601 946 726 l 761 601 q 731 719 761 671 q 649 792 701 767 q 528 817 596 817 q 371 780 433 817 q 278 671 308 743 q 249 492 249 599 l 249 461 q 278 281 249 353 q 370 172 308 208 q 528 136 432 136 q 654 160 600 136 q 738 233 708 185 q 768 350 768 281 l 946 350 q 890 144 946 225 q 740 23 835 63 q 525 -17 644 -17 m 521 -253 q 449 -250 486 -253 q 381 -242 411 -247 l 381 -174 l 508 -174 q 552 -167 536 -174 q 568 -140 568 -160 q 556 -115 568 -124 q 511 -107 544 -107 l 450 -107 l 469 15 l 578 15 l 569 -47 q 636 -59 606 -49 q 685 -89 667 -69 q 703 -140 703 -108 q 685 -197 703 -175 q 639 -231 667 -219 q 580 -248 611 -243 q 521 -253 549 -253 z "},"Ĉ":{"ha":1001,"x_min":63,"x_max":946,"o":"m 525 -17 q 276 35 379 -17 q 117 195 172 86 q 63 476 63 304 q 185 849 63 728 q 525 969 307 969 q 738 929 643 969 q 890 808 833 889 q 946 601 946 726 l 761 601 q 731 719 761 671 q 649 792 701 767 q 528 817 596 817 q 371 780 433 817 q 278 671 308 743 q 249 492 249 599 l 249 461 q 278 281 249 353 q 370 172 308 208 q 528 136 432 136 q 654 160 600 136 q 738 233 708 185 q 768 350 768 281 l 946 350 q 890 144 946 225 q 740 23 835 63 q 525 -17 644 -17 m 294 1022 l 442 1206 l 614 1206 l 760 1022 l 606 1022 l 489 1168 l 567 1167 l 449 1022 l 294 1022 z "},"Ċ":{"ha":1001,"x_min":63,"x_max":946,"o":"m 525 -17 q 276 35 379 -17 q 117 195 172 86 q 63 476 63 304 q 185 849 63 728 q 525 969 307 969 q 738 929 643 969 q 890 808 833 889 q 946 601 946 726 l 761 601 q 731 719 761 671 q 649 792 701 767 q 528 817 596 817 q 371 780 433 817 q 278 671 308 743 q 249 492 249 599 l 249 461 q 278 281 249 353 q 370 172 308 208 q 528 136 432 136 q 654 160 600 136 q 738 233 708 185 q 768 350 768 281 l 946 350 q 890 144 946 225 q 740 23 835 63 q 525 -17 644 -17 m 444 1051 l 444 1218 l 611 1218 l 611 1051 l 444 1051 z "},"D":{"ha":1011,"x_min":106,"x_max":949,"o":"m 106 0 l 106 953 l 488 953 q 735 901 632 953 q 893 745 838 850 q 949 476 949 640 q 893 208 949 314 q 735 51 838 103 q 488 0 632 0 l 106 0 m 286 154 l 488 154 q 606 174 554 154 q 692 231 657 193 q 744 327 726 269 q 763 461 763 385 l 763 490 q 744 626 763 568 q 692 722 726 683 q 606 779 657 760 q 488 799 554 799 l 286 799 l 286 154 z "},"Ǆ":{"ha":1878,"x_min":106,"x_max":1826,"o":"m 106 0 l 106 953 l 488 953 q 735 901 632 953 q 893 745 838 850 q 949 476 949 640 q 893 208 949 314 q 735 51 838 103 q 488 0 632 0 l 106 0 m 286 154 l 488 154 q 606 174 554 154 q 692 231 657 193 q 744 327 726 269 q 763 461 763 385 l 763 490 q 744 626 763 568 q 692 722 726 683 q 606 779 657 760 q 488 799 554 799 l 286 799 l 286 154 m 1038 0 l 1038 86 l 1546 799 l 1074 799 l 1074 953 l 1814 953 l 1814 865 l 1306 154 l 1826 154 l 1826 0 l 1038 0 m 1204 1206 l 1358 1206 l 1476 1061 l 1399 1060 l 1515 1206 l 1669 1206 l 1524 1022 l 1351 1022 l 1204 1206 z "},"Ð":{"ha":1011,"x_min":0,"x_max":949,"o":"m 0 414 l 0 553 l 517 553 l 517 414 l 0 414 m 106 0 l 106 953 l 488 953 q 735 901 632 953 q 893 745 838 850 q 949 476 949 640 q 893 208 949 314 q 735 51 838 103 q 488 0 632 0 l 106 0 m 286 154 l 488 154 q 606 174 554 154 q 692 231 657 193 q 744 327 726 269 q 763 461 763 385 l 763 490 q 744 626 763 568 q 692 722 726 683 q 606 779 657 760 q 488 799 554 799 l 286 799 l 286 154 z "},"Ď":{"ha":1011,"x_min":106,"x_max":949,"o":"m 106 0 l 106 953 l 488 953 q 735 901 632 953 q 893 745 838 850 q 949 476 949 640 q 893 208 949 314 q 735 51 838 103 q 488 0 632 0 l 106 0 m 286 154 l 488 154 q 606 174 554 154 q 692 231 657 193 q 744 327 726 269 q 763 461 763 385 l 763 490 q 744 626 763 568 q 692 722 726 683 q 606 779 657 760 q 488 799 554 799 l 286 799 l 286 154 m 269 1206 l 424 1206 l 542 1061 l 464 1060 l 581 1206 l 735 1206 l 589 1022 l 417 1022 l 269 1206 z "},"Đ":{"ha":1011,"x_min":0,"x_max":949,"o":"m 0 414 l 0 553 l 517 553 l 517 414 l 0 414 m 106 0 l 106 953 l 488 953 q 735 901 632 953 q 893 745 838 850 q 949 476 949 640 q 893 208 949 314 q 735 51 838 103 q 488 0 632 0 l 106 0 m 286 154 l 488 154 q 606 174 554 154 q 692 231 657 193 q 744 327 726 269 q 763 461 763 385 l 763 490 q 744 626 763 568 q 692 722 726 683 q 606 779 657 760 q 488 799 554 799 l 286 799 l 286 154 z "},"ǅ":{"ha":1718,"x_min":106,"x_max":1676,"o":"m 106 0 l 106 953 l 488 953 q 735 901 632 953 q 893 745 838 850 q 949 476 949 640 q 893 208 949 314 q 735 51 838 103 q 488 0 632 0 l 106 0 m 286 154 l 488 154 q 606 174 554 154 q 692 231 657 193 q 744 327 726 269 q 763 461 763 385 l 763 490 q 744 626 763 568 q 692 722 726 683 q 606 779 657 760 q 488 799 554 799 l 286 799 l 286 154 m 1044 0 l 1044 79 l 1414 592 l 1068 592 l 1068 731 l 1661 731 l 1661 653 l 1290 139 l 1676 139 l 1676 0 l 1044 0 m 1139 1004 l 1286 1004 l 1404 860 l 1326 858 l 1443 1004 l 1590 1004 l 1444 821 l 1286 821 l 1139 1004 z "},"E":{"ha":933,"x_min":106,"x_max":857,"o":"m 106 0 l 106 953 l 849 953 l 849 799 l 286 799 l 286 564 l 788 564 l 788 410 l 286 410 l 286 154 l 857 154 l 857 0 l 106 0 z "},"É":{"ha":933,"x_min":106,"x_max":857,"o":"m 106 0 l 106 953 l 849 953 l 849 799 l 286 799 l 286 564 l 788 564 l 788 410 l 286 410 l 286 154 l 857 154 l 857 0 l 106 0 m 400 1022 l 513 1206 l 696 1206 l 697 1201 l 547 1022 l 400 1022 z "},"Ĕ":{"ha":933,"x_min":106,"x_max":857,"o":"m 106 0 l 106 953 l 849 953 l 849 799 l 286 799 l 286 564 l 788 564 l 788 410 l 286 410 l 286 154 l 857 154 l 857 0 l 106 0 m 481 1024 q 353 1051 401 1024 q 285 1122 306 1079 q 264 1206 264 1164 l 376 1206 q 390 1175 379 1192 q 422 1147 400 1158 q 481 1136 444 1136 q 540 1147 517 1136 q 574 1175 563 1158 q 586 1206 585 1192 l 699 1206 q 677 1122 699 1164 q 608 1051 656 1079 q 481 1024 561 1024 z "},"Ě":{"ha":933,"x_min":106,"x_max":857,"o":"m 106 0 l 106 953 l 849 953 l 849 799 l 286 799 l 286 564 l 788 564 l 788 410 l 286 410 l 286 154 l 857 154 l 857 0 l 106 0 m 247 1206 l 401 1206 l 519 1061 l 442 1060 l 558 1206 l 713 1206 l 567 1022 l 394 1022 l 247 1206 z "},"Ê":{"ha":933,"x_min":106,"x_max":857,"o":"m 106 0 l 106 953 l 849 953 l 849 799 l 286 799 l 286 564 l 788 564 l 788 410 l 286 410 l 286 154 l 857 154 l 857 0 l 106 0 m 247 1022 l 394 1206 l 567 1206 l 713 1022 l 558 1022 l 442 1168 l 519 1167 l 401 1022 l 247 1022 z "},"Ế":{"ha":933,"x_min":106,"x_max":857,"o":"m 106 0 l 106 953 l 849 953 l 849 799 l 286 799 l 286 564 l 788 564 l 788 410 l 286 410 l 286 154 l 857 154 l 857 0 l 106 0 m 247 1022 l 394 1206 l 567 1206 l 713 1022 l 558 1022 l 442 1168 l 519 1167 l 401 1022 l 247 1022 m 400 1250 l 513 1433 l 696 1433 l 697 1429 l 547 1250 l 400 1250 z "},"Ệ":{"ha":933,"x_min":106,"x_max":857,"o":"m 106 0 l 106 953 l 849 953 l 849 799 l 286 799 l 286 564 l 788 564 l 788 410 l 286 410 l 286 154 l 857 154 l 857 0 l 106 0 m 397 -272 l 397 -111 l 564 -111 l 564 -272 l 397 -272 m 247 1022 l 394 1206 l 567 1206 l 713 1022 l 558 1022 l 442 1168 l 519 1167 l 401 1022 l 247 1022 z "},"Ề":{"ha":933,"x_min":106,"x_max":857,"o":"m 106 0 l 106 953 l 849 953 l 849 799 l 286 799 l 286 564 l 788 564 l 788 410 l 286 410 l 286 154 l 857 154 l 857 0 l 106 0 m 247 1022 l 394 1206 l 567 1206 l 713 1022 l 558 1022 l 442 1168 l 519 1167 l 401 1022 l 247 1022 m 569 1250 l 422 1250 l 272 1429 l 274 1433 l 457 1433 l 569 1250 z "},"Ể":{"ha":933,"x_min":106,"x_max":857,"o":"m 106 0 l 106 953 l 849 953 l 849 799 l 286 799 l 286 564 l 788 564 l 788 410 l 286 410 l 286 154 l 857 154 l 857 0 l 106 0 m 247 1022 l 394 1206 l 567 1206 l 713 1022 l 558 1022 l 442 1168 l 519 1167 l 401 1022 l 247 1022 m 438 1250 l 438 1328 l 456 1328 q 489 1334 479 1328 q 499 1354 499 1340 q 487 1374 499 1369 q 453 1379 475 1379 l 371 1379 l 371 1439 q 407 1445 388 1443 q 446 1449 426 1447 q 482 1450 465 1450 q 532 1447 506 1450 q 581 1434 558 1443 q 619 1408 604 1425 q 633 1365 633 1392 q 618 1322 633 1339 q 578 1297 603 1306 q 526 1286 554 1289 l 526 1250 l 438 1250 z "},"Ễ":{"ha":933,"x_min":106,"x_max":857,"o":"m 106 0 l 106 953 l 849 953 l 849 799 l 286 799 l 286 564 l 788 564 l 788 410 l 286 410 l 286 154 l 857 154 l 857 0 l 106 0 m 247 1022 l 394 1206 l 567 1206 l 713 1022 l 558 1022 l 442 1168 l 519 1167 l 401 1022 l 247 1022 m 249 1278 q 262 1359 249 1322 q 304 1418 275 1396 q 379 1440 333 1440 q 447 1428 415 1440 q 508 1404 478 1417 q 571 1392 539 1392 q 602 1402 590 1392 q 617 1440 614 1413 l 711 1440 q 698 1360 711 1397 q 656 1301 685 1324 q 581 1278 628 1278 q 514 1290 546 1278 q 452 1315 482 1303 q 390 1328 422 1328 q 360 1317 372 1328 q 344 1278 347 1306 l 249 1278 z "},"Ȅ":{"ha":933,"x_min":106,"x_max":857,"o":"m 106 0 l 106 953 l 849 953 l 849 799 l 286 799 l 286 564 l 788 564 l 788 410 l 286 410 l 286 154 l 857 154 l 857 0 l 106 0 m 557 1022 l 414 1201 l 415 1206 l 599 1206 l 701 1022 l 557 1022 m 301 1022 l 158 1201 l 160 1206 l 343 1206 l 446 1022 l 301 1022 z "},"Ë":{"ha":933,"x_min":106,"x_max":857,"o":"m 106 0 l 106 953 l 849 953 l 849 799 l 286 799 l 286 564 l 788 564 l 788 410 l 286 410 l 286 154 l 857 154 l 857 0 l 106 0 m 264 1051 l 264 1206 l 415 1206 l 415 1051 l 264 1051 m 546 1051 l 546 1206 l 697 1206 l 697 1051 l 546 1051 z "},"Ė":{"ha":933,"x_min":106,"x_max":857,"o":"m 106 0 l 106 953 l 849 953 l 849 799 l 286 799 l 286 564 l 788 564 l 788 410 l 286 410 l 286 154 l 857 154 l 857 0 l 106 0 m 397 1051 l 397 1218 l 564 1218 l 564 1051 l 397 1051 z "},"Ẹ":{"ha":933,"x_min":106,"x_max":857,"o":"m 106 0 l 106 953 l 849 953 l 849 799 l 286 799 l 286 564 l 788 564 l 788 410 l 286 410 l 286 154 l 857 154 l 857 0 l 106 0 m 397 -272 l 397 -111 l 564 -111 l 564 -272 l 397 -272 z "},"È":{"ha":933,"x_min":106,"x_max":857,"o":"m 106 0 l 106 953 l 849 953 l 849 799 l 286 799 l 286 564 l 788 564 l 788 410 l 286 410 l 286 154 l 857 154 l 857 0 l 106 0 m 569 1022 l 422 1022 l 272 1201 l 274 1206 l 457 1206 l 569 1022 z "},"Ẻ":{"ha":933,"x_min":106,"x_max":857,"o":"m 106 0 l 106 953 l 849 953 l 849 799 l 286 799 l 286 564 l 788 564 l 788 410 l 286 410 l 286 154 l 857 154 l 857 0 l 106 0 m 438 1022 l 438 1100 l 456 1100 q 489 1106 479 1100 q 499 1126 499 1113 q 487 1147 499 1142 q 453 1151 475 1151 l 371 1151 l 371 1211 q 407 1217 388 1215 q 446 1221 426 1219 q 482 1222 465 1222 q 532 1219 506 1222 q 581 1206 558 1215 q 619 1181 604 1197 q 633 1138 633 1164 q 618 1094 633 1111 q 578 1069 603 1078 q 526 1058 554 1061 l 526 1022 l 438 1022 z "},"Ȇ":{"ha":933,"x_min":106,"x_max":857,"o":"m 106 0 l 106 953 l 849 953 l 849 799 l 286 799 l 286 564 l 788 564 l 788 410 l 286 410 l 286 154 l 857 154 l 857 0 l 106 0 m 264 1024 q 285 1108 264 1067 q 355 1178 307 1150 q 482 1206 403 1206 q 610 1178 563 1206 q 678 1108 657 1150 q 699 1024 699 1067 l 586 1024 q 573 1054 583 1039 q 540 1081 563 1069 q 482 1092 518 1092 q 423 1081 446 1092 q 389 1054 400 1069 q 376 1024 378 1039 l 264 1024 z "},"Ē":{"ha":933,"x_min":106,"x_max":857,"o":"m 106 0 l 106 953 l 849 953 l 849 799 l 286 799 l 286 564 l 788 564 l 788 410 l 286 410 l 286 154 l 857 154 l 857 0 l 106 0 m 268 1051 l 268 1167 l 692 1167 l 692 1051 l 268 1051 z "},"Ę":{"ha":933,"x_min":106,"x_max":857,"o":"m 106 0 l 106 953 l 849 953 l 849 799 l 286 799 l 286 564 l 788 564 l 788 410 l 286 410 l 286 154 l 857 154 l 857 0 l 106 0 m 744 -253 q 676 -242 710 -253 q 621 -203 643 -231 q 599 -129 599 -176 q 622 -44 599 -78 q 672 17 644 -10 l 781 17 l 781 11 q 750 -30 767 -3 q 733 -86 733 -57 q 749 -136 733 -114 q 803 -158 765 -158 l 857 -158 l 857 -233 q 800 -248 832 -243 q 744 -253 768 -253 z "},"Ẽ":{"ha":933,"x_min":106,"x_max":857,"o":"m 106 0 l 106 953 l 849 953 l 849 799 l 286 799 l 286 564 l 788 564 l 788 410 l 286 410 l 286 154 l 857 154 l 857 0 l 106 0 m 249 1050 q 262 1131 249 1094 q 304 1190 275 1168 q 379 1213 333 1213 q 447 1201 415 1213 q 508 1176 478 1189 q 571 1164 539 1164 q 602 1174 590 1164 q 617 1213 614 1185 l 711 1213 q 698 1133 711 1169 q 656 1073 685 1096 q 581 1050 628 1050 q 514 1063 546 1050 q 452 1088 482 1075 q 390 1100 422 1100 q 360 1089 372 1100 q 344 1050 347 1078 l 249 1050 z "},"F":{"ha":846,"x_min":106,"x_max":790,"o":"m 106 0 l 106 953 l 790 953 l 790 799 l 286 799 l 286 543 l 740 543 l 740 389 l 286 389 l 286 0 l 106 0 z "},"G":{"ha":1103,"x_min":74,"x_max":1006,"o":"m 539 -17 q 196 102 318 -17 q 74 476 74 221 q 131 753 74 644 q 298 916 189 863 q 560 969 407 969 q 732 949 651 969 q 874 885 813 928 q 971 779 936 843 q 1006 628 1006 715 l 819 628 q 799 709 819 674 q 744 769 779 744 q 663 805 708 793 q 565 817 617 817 q 431 797 489 817 q 335 735 374 776 q 278 633 297 694 q 260 490 260 572 l 260 461 q 292 276 260 349 q 388 170 324 204 q 549 136 453 136 q 692 161 631 136 q 790 234 754 186 q 825 351 825 282 l 825 361 l 521 361 l 521 511 l 1006 511 l 1006 0 l 876 0 l 861 106 q 772 37 819 64 q 668 -3 725 10 q 539 -17 611 -17 z "},"Ğ":{"ha":1103,"x_min":74,"x_max":1006,"o":"m 539 -17 q 196 102 318 -17 q 74 476 74 221 q 131 753 74 644 q 298 916 189 863 q 560 969 407 969 q 732 949 651 969 q 874 885 813 928 q 971 779 936 843 q 1006 628 1006 715 l 819 628 q 799 709 819 674 q 744 769 779 744 q 663 805 708 793 q 565 817 617 817 q 431 797 489 817 q 335 735 374 776 q 278 633 297 694 q 260 490 260 572 l 260 461 q 292 276 260 349 q 388 170 324 204 q 549 136 453 136 q 692 161 631 136 q 790 234 754 186 q 825 351 825 282 l 825 361 l 521 361 l 521 511 l 1006 511 l 1006 0 l 876 0 l 861 106 q 772 37 819 64 q 668 -3 725 10 q 539 -17 611 -17 m 551 1024 q 424 1051 472 1024 q 356 1122 376 1079 q 335 1206 335 1164 l 447 1206 q 460 1175 450 1192 q 493 1147 471 1158 q 551 1136 515 1136 q 610 1147 588 1136 q 644 1175 633 1158 q 657 1206 656 1192 l 769 1206 q 748 1122 769 1164 q 679 1051 726 1079 q 551 1024 632 1024 z "},"Ǧ":{"ha":1103,"x_min":74,"x_max":1006,"o":"m 539 -17 q 196 102 318 -17 q 74 476 74 221 q 131 753 74 644 q 298 916 189 863 q 560 969 407 969 q 732 949 651 969 q 874 885 813 928 q 971 779 936 843 q 1006 628 1006 715 l 819 628 q 799 709 819 674 q 744 769 779 744 q 663 805 708 793 q 565 817 617 817 q 431 797 489 817 q 335 735 374 776 q 278 633 297 694 q 260 490 260 572 l 260 461 q 292 276 260 349 q 388 170 324 204 q 549 136 453 136 q 692 161 631 136 q 790 234 754 186 q 825 351 825 282 l 825 361 l 521 361 l 521 511 l 1006 511 l 1006 0 l 876 0 l 861 106 q 772 37 819 64 q 668 -3 725 10 q 539 -17 611 -17 m 318 1206 l 472 1206 l 590 1061 l 513 1060 l 629 1206 l 783 1206 l 638 1022 l 465 1022 l 318 1206 z "},"Ĝ":{"ha":1103,"x_min":74,"x_max":1006,"o":"m 539 -17 q 196 102 318 -17 q 74 476 74 221 q 131 753 74 644 q 298 916 189 863 q 560 969 407 969 q 732 949 651 969 q 874 885 813 928 q 971 779 936 843 q 1006 628 1006 715 l 819 628 q 799 709 819 674 q 744 769 779 744 q 663 805 708 793 q 565 817 617 817 q 431 797 489 817 q 335 735 374 776 q 278 633 297 694 q 260 490 260 572 l 260 461 q 292 276 260 349 q 388 170 324 204 q 549 136 453 136 q 692 161 631 136 q 790 234 754 186 q 825 351 825 282 l 825 361 l 521 361 l 521 511 l 1006 511 l 1006 0 l 876 0 l 861 106 q 772 37 819 64 q 668 -3 725 10 q 539 -17 611 -17 m 318 1022 l 465 1206 l 638 1206 l 783 1022 l 629 1022 l 513 1168 l 590 1167 l 472 1022 l 318 1022 z "},"Ģ":{"ha":1103,"x_min":74,"x_max":1006,"o":"m 539 -17 q 196 102 318 -17 q 74 476 74 221 q 131 753 74 644 q 298 916 189 863 q 560 969 407 969 q 732 949 651 969 q 874 885 813 928 q 971 779 936 843 q 1006 628 1006 715 l 819 628 q 799 709 819 674 q 744 769 779 744 q 663 805 708 793 q 565 817 617 817 q 431 797 489 817 q 335 735 374 776 q 278 633 297 694 q 260 490 260 572 l 260 461 q 292 276 260 349 q 388 170 324 204 q 549 136 453 136 q 692 161 631 136 q 790 234 754 186 q 825 351 825 282 l 825 361 l 521 361 l 521 511 l 1006 511 l 1006 0 l 876 0 l 861 106 q 772 37 819 64 q 668 -3 725 10 q 539 -17 611 -17 m 457 -431 l 457 -360 q 523 -333 501 -360 q 544 -272 544 -306 l 468 -272 l 468 -106 l 635 -106 l 635 -236 q 610 -349 635 -306 q 544 -411 585 -392 q 457 -431 504 -431 z "},"Ġ":{"ha":1103,"x_min":74,"x_max":1006,"o":"m 539 -17 q 196 102 318 -17 q 74 476 74 221 q 131 753 74 644 q 298 916 189 863 q 560 969 407 969 q 732 949 651 969 q 874 885 813 928 q 971 779 936 843 q 1006 628 1006 715 l 819 628 q 799 709 819 674 q 744 769 779 744 q 663 805 708 793 q 565 817 617 817 q 431 797 489 817 q 335 735 374 776 q 278 633 297 694 q 260 490 260 572 l 260 461 q 292 276 260 349 q 388 170 324 204 q 549 136 453 136 q 692 161 631 136 q 790 234 754 186 q 825 351 825 282 l 825 361 l 521 361 l 521 511 l 1006 511 l 1006 0 l 876 0 l 861 106 q 772 37 819 64 q 668 -3 725 10 q 539 -17 611 -17 m 468 1051 l 468 1218 l 635 1218 l 635 1051 l 468 1051 z "},"H":{"ha":1017,"x_min":106,"x_max":911,"o":"m 106 0 l 106 953 l 286 953 l 286 565 l 731 565 l 731 953 l 911 953 l 911 0 l 731 0 l 731 410 l 286 410 l 286 0 l 106 0 z "},"Ħ":{"ha":1017,"x_min":15,"x_max":1000,"o":"m 106 0 l 106 953 l 286 953 l 286 565 l 731 565 l 731 953 l 911 953 l 911 0 l 731 0 l 731 410 l 286 410 l 286 0 l 106 0 m 15 719 l 15 857 l 1000 857 l 1000 719 l 15 719 z "},"Ĥ":{"ha":1017,"x_min":106,"x_max":911,"o":"m 106 0 l 106 953 l 286 953 l 286 565 l 731 565 l 731 953 l 911 953 l 911 0 l 731 0 l 731 410 l 286 410 l 286 0 l 106 0 m 275 1022 l 422 1206 l 594 1206 l 740 1022 l 586 1022 l 469 1168 l 547 1167 l 429 1022 l 275 1022 z "},"Ḥ":{"ha":1017,"x_min":106,"x_max":911,"o":"m 106 0 l 106 953 l 286 953 l 286 565 l 731 565 l 731 953 l 911 953 l 911 0 l 731 0 l 731 410 l 286 410 l 286 0 l 106 0 m 425 -272 l 425 -111 l 592 -111 l 592 -272 l 425 -272 z "},"I":{"ha":392,"x_min":106,"x_max":286,"o":"m 106 0 l 106 953 l 286 953 l 286 0 l 106 0 z "},"Ĳ":{"ha":1204,"x_min":106,"x_max":1104,"o":"m 106 0 l 106 953 l 286 953 l 286 0 l 106 0 m 774 -17 q 594 15 668 -17 q 481 109 519 47 q 442 264 442 171 l 442 317 l 621 317 l 621 264 q 659 169 621 201 q 774 136 697 136 q 885 186 847 136 q 922 326 922 236 l 922 953 l 1104 953 l 1104 326 q 1065 136 1104 213 q 953 22 1026 60 q 774 -17 879 -17 z "},"Í":{"ha":392,"x_min":106,"x_max":413,"o":"m 106 0 l 106 953 l 286 953 l 286 0 l 106 0 m 115 1022 l 228 1206 l 411 1206 l 413 1201 l 263 1022 l 115 1022 z "},"Ĭ":{"ha":392,"x_min":-21,"x_max":414,"o":"m 106 0 l 106 953 l 286 953 l 286 0 l 106 0 m 196 1024 q 69 1051 117 1024 q 0 1122 21 1079 q -21 1206 -21 1164 l 92 1206 q 105 1175 94 1192 q 138 1147 115 1158 q 196 1136 160 1136 q 255 1147 232 1136 q 289 1175 278 1158 q 301 1206 300 1192 l 414 1206 q 392 1122 414 1164 q 324 1051 371 1079 q 196 1024 276 1024 z "},"Ǐ":{"ha":392,"x_min":-37,"x_max":428,"o":"m 106 0 l 106 953 l 286 953 l 286 0 l 106 0 m -37 1206 l 117 1206 l 235 1061 l 157 1060 l 274 1206 l 428 1206 l 282 1022 l 110 1022 l -37 1206 z "},"Î":{"ha":392,"x_min":-37,"x_max":428,"o":"m 106 0 l 106 953 l 286 953 l 286 0 l 106 0 m -37 1022 l 110 1206 l 282 1206 l 428 1022 l 274 1022 l 157 1168 l 235 1167 l 117 1022 l -37 1022 z "},"Ȉ":{"ha":392,"x_min":-126,"x_max":417,"o":"m 106 0 l 106 953 l 286 953 l 286 0 l 106 0 m 272 1022 l 129 1201 l 131 1206 l 314 1206 l 417 1022 l 272 1022 m 17 1022 l -126 1201 l -125 1206 l 58 1206 l 161 1022 l 17 1022 z "},"Ï":{"ha":392,"x_min":-21,"x_max":413,"o":"m 106 0 l 106 953 l 286 953 l 286 0 l 106 0 m -21 1051 l -21 1206 l 131 1206 l 131 1051 l -21 1051 m 261 1051 l 261 1206 l 413 1206 l 413 1051 l 261 1051 z "},"İ":{"ha":392,"x_min":106,"x_max":286,"o":"m 106 0 l 106 953 l 286 953 l 286 0 l 106 0 m 113 1051 l 113 1218 l 279 1218 l 279 1051 l 113 1051 z "},"Ị":{"ha":392,"x_min":106,"x_max":286,"o":"m 106 0 l 106 953 l 286 953 l 286 0 l 106 0 m 113 -272 l 113 -111 l 279 -111 l 279 -272 l 113 -272 z "},"Ì":{"ha":392,"x_min":-12,"x_max":286,"o":"m 106 0 l 106 953 l 286 953 l 286 0 l 106 0 m 285 1022 l 138 1022 l -12 1201 l -11 1206 l 172 1206 l 285 1022 z "},"Ỉ":{"ha":392,"x_min":86,"x_max":349,"o":"m 106 0 l 106 953 l 286 953 l 286 0 l 106 0 m 153 1022 l 153 1100 l 171 1100 q 204 1106 194 1100 q 214 1126 214 1113 q 202 1147 214 1142 q 168 1151 190 1151 l 86 1151 l 86 1211 q 122 1217 103 1215 q 161 1221 142 1219 q 197 1222 181 1222 q 247 1219 221 1222 q 297 1206 274 1215 q 334 1181 319 1197 q 349 1138 349 1164 q 333 1094 349 1111 q 294 1069 318 1078 q 242 1058 269 1061 l 242 1022 l 153 1022 z "},"Ȋ":{"ha":392,"x_min":-21,"x_max":414,"o":"m 106 0 l 106 953 l 286 953 l 286 0 l 106 0 m -21 1024 q 1 1108 -21 1067 q 70 1178 22 1150 q 197 1206 118 1206 q 325 1178 278 1206 q 393 1108 372 1150 q 414 1024 414 1067 l 301 1024 q 288 1054 299 1039 q 255 1081 276 1069 q 197 1092 233 1092 q 138 1081 161 1092 q 104 1054 115 1069 q 92 1024 93 1039 l -21 1024 z "},"Ī":{"ha":392,"x_min":-17,"x_max":407,"o":"m 106 0 l 106 953 l 286 953 l 286 0 l 106 0 m -17 1051 l -17 1167 l 407 1167 l 407 1051 l -17 1051 z "},"Į":{"ha":392,"x_min":33,"x_max":292,"o":"m 106 0 l 106 953 l 286 953 l 286 0 l 106 0 m 179 -253 q 111 -242 144 -253 q 56 -203 78 -231 q 33 -129 33 -176 q 56 -44 33 -78 q 107 17 79 -10 l 215 17 l 215 11 q 185 -30 201 -3 q 168 -86 168 -57 q 184 -136 168 -114 q 238 -158 200 -158 l 292 -158 l 292 -233 q 235 -248 267 -243 q 179 -253 203 -253 z "},"Ĩ":{"ha":392,"x_min":-36,"x_max":426,"o":"m 106 0 l 106 953 l 286 953 l 286 0 l 106 0 m -36 1050 q -23 1131 -36 1094 q 19 1190 -10 1168 q 94 1213 49 1213 q 162 1201 131 1213 q 224 1176 193 1189 q 286 1164 254 1164 q 317 1174 306 1164 q 332 1213 329 1185 l 426 1213 q 413 1133 426 1169 q 372 1073 400 1096 q 296 1050 343 1050 q 229 1063 261 1050 q 167 1088 197 1075 q 106 1100 138 1100 q 75 1089 88 1100 q 60 1050 63 1078 l -36 1050 z "},"J":{"ha":813,"x_min":50,"x_max":713,"o":"m 382 -17 q 202 15 276 -17 q 89 109 128 47 q 50 264 50 171 l 50 317 l 229 317 l 229 264 q 267 169 229 201 q 382 136 306 136 q 493 186 456 136 q 531 326 531 236 l 531 953 l 713 953 l 713 326 q 674 136 713 213 q 561 22 635 60 q 382 -17 488 -17 z "},"Ĵ":{"ha":813,"x_min":50,"x_max":854,"o":"m 382 -17 q 202 15 276 -17 q 89 109 128 47 q 50 264 50 171 l 50 317 l 229 317 l 229 264 q 267 169 229 201 q 382 136 306 136 q 493 186 456 136 q 531 326 531 236 l 531 953 l 713 953 l 713 326 q 674 136 713 213 q 561 22 635 60 q 382 -17 488 -17 m 389 1022 l 536 1206 l 708 1206 l 854 1022 l 700 1022 l 583 1168 l 661 1167 l 543 1022 l 389 1022 z "},"K":{"ha":965,"x_min":106,"x_max":936,"o":"m 106 0 l 106 953 l 286 953 l 286 511 l 708 953 l 929 953 l 560 567 l 936 0 l 722 0 l 438 440 l 286 307 l 286 0 l 106 0 z "},"Ķ":{"ha":965,"x_min":106,"x_max":936,"o":"m 106 0 l 106 953 l 286 953 l 286 511 l 708 953 l 929 953 l 560 567 l 936 0 l 722 0 l 438 440 l 286 307 l 286 0 l 106 0 m 403 -431 l 403 -360 q 469 -333 447 -360 q 490 -272 490 -306 l 414 -272 l 414 -106 l 581 -106 l 581 -236 q 556 -349 581 -306 q 490 -411 531 -392 q 403 -431 450 -431 z "},"L":{"ha":792,"x_min":106,"x_max":764,"o":"m 106 0 l 106 953 l 286 953 l 286 157 l 764 157 l 764 0 l 106 0 z "},"Ǉ":{"ha":1576,"x_min":106,"x_max":1476,"o":"m 106 0 l 106 953 l 286 953 l 286 157 l 764 157 l 764 0 l 106 0 m 1146 -17 q 966 15 1040 -17 q 853 109 892 47 q 814 264 814 171 l 814 317 l 993 317 l 993 264 q 1031 169 993 201 q 1146 136 1069 136 q 1257 186 1219 136 q 1294 326 1294 236 l 1294 953 l 1476 953 l 1476 326 q 1438 136 1476 213 q 1325 22 1399 60 q 1146 -17 1251 -17 z "},"Ĺ":{"ha":792,"x_min":106,"x_max":764,"o":"m 106 0 l 106 953 l 286 953 l 286 157 l 764 157 l 764 0 l 106 0 m 115 1022 l 228 1206 l 411 1206 l 413 1201 l 263 1022 l 115 1022 z "},"Ľ":{"ha":792,"x_min":106,"x_max":764,"o":"m 106 0 l 106 953 l 286 953 l 286 157 l 764 157 l 764 0 l 106 0 m 511 771 l 511 1004 l 669 1004 l 626 771 l 511 771 z "},"Ļ":{"ha":792,"x_min":106,"x_max":764,"o":"m 106 0 l 106 953 l 286 953 l 286 157 l 764 157 l 764 0 l 106 0 m 340 -431 l 340 -360 q 406 -333 385 -360 q 428 -272 428 -306 l 351 -272 l 351 -106 l 518 -106 l 518 -236 q 493 -349 518 -306 q 428 -411 468 -392 q 340 -431 388 -431 z "},"Ŀ":{"ha":792,"x_min":106,"x_max":764,"o":"m 106 0 l 106 953 l 286 953 l 286 157 l 764 157 l 764 0 l 106 0 m 497 447 l 497 601 l 674 601 l 674 447 l 497 447 z "},"ǈ":{"ha":1139,"x_min":106,"x_max":1051,"o":"m 106 0 l 106 953 l 286 953 l 286 157 l 764 157 l 764 0 l 106 0 m 882 843 l 882 1004 l 1051 1004 l 1051 843 l 882 843 m 871 -253 q 829 -250 851 -253 q 786 -242 807 -247 q 751 -232 765 -237 l 751 -115 l 821 -115 q 866 -99 850 -115 q 882 -53 882 -83 l 882 731 l 1051 731 l 1051 -65 q 1035 -154 1051 -111 q 981 -225 1019 -197 q 871 -253 942 -253 z "},"Ł":{"ha":792,"x_min":0,"x_max":764,"o":"m 106 0 l 106 953 l 286 953 l 286 157 l 764 157 l 764 0 l 106 0 m 0 260 l 0 393 l 483 713 l 483 579 l 0 260 z "},"M":{"ha":1172,"x_min":106,"x_max":1067,"o":"m 106 0 l 106 953 l 390 953 l 540 422 q 557 360 549 394 q 573 293 565 325 q 585 238 581 261 l 596 238 q 604 289 599 258 q 617 355 610 319 q 635 424 625 390 l 785 953 l 1067 953 l 1067 0 l 886 0 l 886 482 q 888 610 886 546 q 891 719 889 674 q 893 774 893 765 l 882 774 q 868 719 879 761 q 844 629 857 678 q 822 546 832 581 l 665 0 l 499 0 l 342 544 q 323 615 333 574 q 302 699 313 656 q 283 774 292 742 l 272 774 q 275 684 274 736 q 278 578 276 632 q 279 482 279 525 l 279 0 l 106 0 z "},"N":{"ha":1017,"x_min":106,"x_max":911,"o":"m 106 0 l 106 953 l 278 953 l 685 390 q 701 367 692 382 q 719 339 711 353 q 731 317 728 325 l 738 317 q 738 354 738 336 q 738 390 738 372 l 738 953 l 911 953 l 911 0 l 740 0 l 332 567 q 306 608 321 583 q 286 642 292 632 l 279 642 q 279 605 279 624 q 279 567 279 586 l 279 0 l 106 0 z "},"Ǌ":{"ha":1829,"x_min":106,"x_max":1729,"o":"m 106 0 l 106 953 l 278 953 l 685 390 q 701 367 692 382 q 719 339 711 353 q 731 317 728 325 l 738 317 q 738 354 738 336 q 738 390 738 372 l 738 953 l 911 953 l 911 0 l 740 0 l 332 567 q 306 608 321 583 q 286 642 292 632 l 279 642 q 279 605 279 624 q 279 567 279 586 l 279 0 l 106 0 m 1399 -17 q 1219 15 1293 -17 q 1106 109 1144 47 q 1067 264 1067 171 l 1067 317 l 1246 317 l 1246 264 q 1284 169 1246 201 q 1399 136 1322 136 q 1510 186 1472 136 q 1547 326 1547 236 l 1547 953 l 1729 953 l 1729 326 q 1690 136 1729 213 q 1578 22 1651 60 q 1399 -17 1504 -17 z "},"Ń":{"ha":1017,"x_min":106,"x_max":911,"o":"m 106 0 l 106 953 l 278 953 l 685 390 q 701 367 692 382 q 719 339 711 353 q 731 317 728 325 l 738 317 q 738 354 738 336 q 738 390 738 372 l 738 953 l 911 953 l 911 0 l 740 0 l 332 567 q 306 608 321 583 q 286 642 292 632 l 279 642 q 279 605 279 624 q 279 567 279 586 l 279 0 l 106 0 m 428 1022 l 540 1206 l 724 1206 l 725 1201 l 575 1022 l 428 1022 z "},"Ň":{"ha":1017,"x_min":106,"x_max":911,"o":"m 106 0 l 106 953 l 278 953 l 685 390 q 701 367 692 382 q 719 339 711 353 q 731 317 728 325 l 738 317 q 738 354 738 336 q 738 390 738 372 l 738 953 l 911 953 l 911 0 l 740 0 l 332 567 q 306 608 321 583 q 286 642 292 632 l 279 642 q 279 605 279 624 q 279 567 279 586 l 279 0 l 106 0 m 275 1206 l 429 1206 l 547 1061 l 469 1060 l 586 1206 l 740 1206 l 594 1022 l 422 1022 l 275 1206 z "},"Ņ":{"ha":1017,"x_min":106,"x_max":911,"o":"m 106 0 l 106 953 l 278 953 l 685 390 q 701 367 692 382 q 719 339 711 353 q 731 317 728 325 l 738 317 q 738 354 738 336 q 738 390 738 372 l 738 953 l 911 953 l 911 0 l 740 0 l 332 567 q 306 608 321 583 q 286 642 292 632 l 279 642 q 279 605 279 624 q 279 567 279 586 l 279 0 l 106 0 m 414 -431 l 414 -360 q 480 -333 458 -360 q 501 -272 501 -306 l 425 -272 l 425 -106 l 592 -106 l 592 -236 q 567 -349 592 -306 q 501 -411 542 -392 q 414 -431 461 -431 z "},"Ŋ":{"ha":1017,"x_min":106,"x_max":911,"o":"m 731 -253 q 688 -249 711 -253 q 643 -241 664 -246 q 607 -232 622 -236 l 607 -114 l 675 -114 q 722 -99 706 -114 q 738 -53 738 -83 l 738 4 l 332 567 q 306 608 321 583 q 286 642 292 632 l 279 642 q 279 605 279 624 q 279 567 279 586 l 279 0 l 106 0 l 106 953 l 278 953 l 685 390 q 701 367 692 382 q 719 339 711 353 q 731 317 728 325 l 738 317 q 738 354 738 336 q 738 390 738 372 l 738 953 l 911 953 l 911 -65 q 902 -132 911 -99 q 872 -192 893 -165 q 817 -236 851 -219 q 731 -253 782 -253 z "},"Ɲ":{"ha":1017,"x_min":-24,"x_max":911,"o":"m 99 -253 q 55 -249 78 -253 q 12 -241 32 -246 q -24 -232 -8 -236 l -24 -114 l 43 -114 q 90 -99 74 -114 q 106 -53 106 -83 l 106 953 l 278 953 l 685 390 q 701 367 692 382 q 719 339 711 353 q 731 317 728 325 l 738 317 q 738 354 738 336 q 738 390 738 372 l 738 953 l 911 953 l 911 0 l 740 0 l 332 567 q 306 608 321 583 q 286 642 292 632 l 279 642 q 279 605 279 624 q 279 567 279 586 l 279 -65 q 269 -132 279 -99 q 239 -192 260 -165 q 183 -236 218 -219 q 99 -253 149 -253 z "},"ǋ":{"ha":1364,"x_min":106,"x_max":1276,"o":"m 106 0 l 106 953 l 278 953 l 685 390 q 701 367 692 382 q 719 339 711 353 q 731 317 728 325 l 738 317 q 738 354 738 336 q 738 390 738 372 l 738 953 l 911 953 l 911 0 l 740 0 l 332 567 q 306 608 321 583 q 286 642 292 632 l 279 642 q 279 605 279 624 q 279 567 279 586 l 279 0 l 106 0 m 1107 843 l 1107 1004 l 1276 1004 l 1276 843 l 1107 843 m 1096 -253 q 1054 -250 1076 -253 q 1011 -242 1032 -247 q 976 -232 990 -237 l 976 -115 l 1046 -115 q 1091 -99 1075 -115 q 1107 -53 1107 -83 l 1107 731 l 1276 731 l 1276 -65 q 1260 -154 1276 -111 q 1206 -225 1244 -197 q 1096 -253 1167 -253 z "},"Ñ":{"ha":1017,"x_min":106,"x_max":911,"o":"m 106 0 l 106 953 l 278 953 l 685 390 q 701 367 692 382 q 719 339 711 353 q 731 317 728 325 l 738 317 q 738 354 738 336 q 738 390 738 372 l 738 953 l 911 953 l 911 0 l 740 0 l 332 567 q 306 608 321 583 q 286 642 292 632 l 279 642 q 279 605 279 624 q 279 567 279 586 l 279 0 l 106 0 m 276 1050 q 290 1131 276 1094 q 332 1190 303 1168 q 407 1213 361 1213 q 474 1201 443 1213 q 536 1176 506 1189 q 599 1164 567 1164 q 630 1174 618 1164 q 644 1213 642 1185 l 739 1213 q 726 1133 739 1169 q 684 1073 713 1096 q 608 1050 656 1050 q 542 1063 574 1050 q 480 1088 510 1075 q 418 1100 450 1100 q 388 1089 400 1100 q 372 1050 375 1078 l 276 1050 z "},"O":{"ha":1086,"x_min":63,"x_max":1024,"o":"m 543 -17 q 286 37 394 -17 q 120 200 178 90 q 63 476 63 310 q 120 753 63 644 q 286 916 178 863 q 543 969 394 969 q 801 916 693 969 q 966 753 908 863 q 1024 476 1024 644 q 966 200 1024 310 q 801 37 908 90 q 543 -17 693 -17 m 543 136 q 670 157 615 136 q 763 219 725 178 q 819 320 800 260 q 839 460 839 381 l 839 490 q 819 632 839 571 q 763 734 800 693 q 670 796 725 775 q 543 817 615 817 q 416 796 471 817 q 324 734 361 775 q 267 632 286 693 q 249 490 249 571 l 249 460 q 267 320 249 381 q 324 219 286 260 q 416 157 361 178 q 543 136 471 136 z "},"Ó":{"ha":1086,"x_min":63,"x_max":1024,"o":"m 543 -17 q 286 37 394 -17 q 120 200 178 90 q 63 476 63 310 q 120 753 63 644 q 286 916 178 863 q 543 969 394 969 q 801 916 693 969 q 966 753 908 863 q 1024 476 1024 644 q 966 200 1024 310 q 801 37 908 90 q 543 -17 693 -17 m 543 136 q 670 157 615 136 q 763 219 725 178 q 819 320 800 260 q 839 460 839 381 l 839 490 q 819 632 839 571 q 763 734 800 693 q 670 796 725 775 q 543 817 615 817 q 416 796 471 817 q 324 734 361 775 q 267 632 286 693 q 249 490 249 571 l 249 460 q 267 320 249 381 q 324 219 286 260 q 416 157 361 178 q 543 136 471 136 m 463 1022 l 575 1206 l 758 1206 l 760 1201 l 610 1022 l 463 1022 z "},"Ŏ":{"ha":1086,"x_min":63,"x_max":1024,"o":"m 543 -17 q 286 37 394 -17 q 120 200 178 90 q 63 476 63 310 q 120 753 63 644 q 286 916 178 863 q 543 969 394 969 q 801 916 693 969 q 966 753 908 863 q 1024 476 1024 644 q 966 200 1024 310 q 801 37 908 90 q 543 -17 693 -17 m 543 136 q 670 157 615 136 q 763 219 725 178 q 819 320 800 260 q 839 460 839 381 l 839 490 q 819 632 839 571 q 763 734 800 693 q 670 796 725 775 q 543 817 615 817 q 416 796 471 817 q 324 734 361 775 q 267 632 286 693 q 249 490 249 571 l 249 460 q 267 320 249 381 q 324 219 286 260 q 416 157 361 178 q 543 136 471 136 m 543 1024 q 416 1051 464 1024 q 347 1122 368 1079 q 326 1206 326 1164 l 439 1206 q 452 1175 442 1192 q 485 1147 463 1158 q 543 1136 507 1136 q 602 1147 579 1136 q 636 1175 625 1158 q 649 1206 647 1192 l 761 1206 q 740 1122 761 1164 q 671 1051 718 1079 q 543 1024 624 1024 z "},"Ǒ":{"ha":1086,"x_min":63,"x_max":1024,"o":"m 543 -17 q 286 37 394 -17 q 120 200 178 90 q 63 476 63 310 q 120 753 63 644 q 286 916 178 863 q 543 969 394 969 q 801 916 693 969 q 966 753 908 863 q 1024 476 1024 644 q 966 200 1024 310 q 801 37 908 90 q 543 -17 693 -17 m 543 136 q 670 157 615 136 q 763 219 725 178 q 819 320 800 260 q 839 460 839 381 l 839 490 q 819 632 839 571 q 763 734 800 693 q 670 796 725 775 q 543 817 615 817 q 416 796 471 817 q 324 734 361 775 q 267 632 286 693 q 249 490 249 571 l 249 460 q 267 320 249 381 q 324 219 286 260 q 416 157 361 178 q 543 136 471 136 m 310 1206 l 464 1206 l 582 1061 l 504 1060 l 621 1206 l 775 1206 l 629 1022 l 457 1022 l 310 1206 z "},"Ô":{"ha":1086,"x_min":63,"x_max":1024,"o":"m 543 -17 q 286 37 394 -17 q 120 200 178 90 q 63 476 63 310 q 120 753 63 644 q 286 916 178 863 q 543 969 394 969 q 801 916 693 969 q 966 753 908 863 q 1024 476 1024 644 q 966 200 1024 310 q 801 37 908 90 q 543 -17 693 -17 m 543 136 q 670 157 615 136 q 763 219 725 178 q 819 320 800 260 q 839 460 839 381 l 839 490 q 819 632 839 571 q 763 734 800 693 q 670 796 725 775 q 543 817 615 817 q 416 796 471 817 q 324 734 361 775 q 267 632 286 693 q 249 490 249 571 l 249 460 q 267 320 249 381 q 324 219 286 260 q 416 157 361 178 q 543 136 471 136 m 310 1022 l 457 1206 l 629 1206 l 775 1022 l 621 1022 l 504 1168 l 582 1167 l 464 1022 l 310 1022 z "},"Ố":{"ha":1086,"x_min":63,"x_max":1024,"o":"m 543 -17 q 286 37 394 -17 q 120 200 178 90 q 63 476 63 310 q 120 753 63 644 q 286 916 178 863 q 543 969 394 969 q 801 916 693 969 q 966 753 908 863 q 1024 476 1024 644 q 966 200 1024 310 q 801 37 908 90 q 543 -17 693 -17 m 543 136 q 670 157 615 136 q 763 219 725 178 q 819 320 800 260 q 839 460 839 381 l 839 490 q 819 632 839 571 q 763 734 800 693 q 670 796 725 775 q 543 817 615 817 q 416 796 471 817 q 324 734 361 775 q 267 632 286 693 q 249 490 249 571 l 249 460 q 267 320 249 381 q 324 219 286 260 q 416 157 361 178 q 543 136 471 136 m 310 1022 l 457 1206 l 629 1206 l 775 1022 l 621 1022 l 504 1168 l 582 1167 l 464 1022 l 310 1022 m 463 1250 l 575 1433 l 758 1433 l 760 1429 l 610 1250 l 463 1250 z "},"Ộ":{"ha":1086,"x_min":63,"x_max":1024,"o":"m 543 -17 q 286 37 394 -17 q 120 200 178 90 q 63 476 63 310 q 120 753 63 644 q 286 916 178 863 q 543 969 394 969 q 801 916 693 969 q 966 753 908 863 q 1024 476 1024 644 q 966 200 1024 310 q 801 37 908 90 q 543 -17 693 -17 m 543 136 q 670 157 615 136 q 763 219 725 178 q 819 320 800 260 q 839 460 839 381 l 839 490 q 819 632 839 571 q 763 734 800 693 q 670 796 725 775 q 543 817 615 817 q 416 796 471 817 q 324 734 361 775 q 267 632 286 693 q 249 490 249 571 l 249 460 q 267 320 249 381 q 324 219 286 260 q 416 157 361 178 q 543 136 471 136 m 460 -272 l 460 -111 l 626 -111 l 626 -272 l 460 -272 m 310 1022 l 457 1206 l 629 1206 l 775 1022 l 621 1022 l 504 1168 l 582 1167 l 464 1022 l 310 1022 z "},"Ồ":{"ha":1086,"x_min":63,"x_max":1024,"o":"m 543 -17 q 286 37 394 -17 q 120 200 178 90 q 63 476 63 310 q 120 753 63 644 q 286 916 178 863 q 543 969 394 969 q 801 916 693 969 q 966 753 908 863 q 1024 476 1024 644 q 966 200 1024 310 q 801 37 908 90 q 543 -17 693 -17 m 543 136 q 670 157 615 136 q 763 219 725 178 q 819 320 800 260 q 839 460 839 381 l 839 490 q 819 632 839 571 q 763 734 800 693 q 670 796 725 775 q 543 817 615 817 q 416 796 471 817 q 324 734 361 775 q 267 632 286 693 q 249 490 249 571 l 249 460 q 267 320 249 381 q 324 219 286 260 q 416 157 361 178 q 543 136 471 136 m 310 1022 l 457 1206 l 629 1206 l 775 1022 l 621 1022 l 504 1168 l 582 1167 l 464 1022 l 310 1022 m 632 1250 l 485 1250 l 335 1429 l 336 1433 l 519 1433 l 632 1250 z "},"Ổ":{"ha":1086,"x_min":63,"x_max":1024,"o":"m 543 -17 q 286 37 394 -17 q 120 200 178 90 q 63 476 63 310 q 120 753 63 644 q 286 916 178 863 q 543 969 394 969 q 801 916 693 969 q 966 753 908 863 q 1024 476 1024 644 q 966 200 1024 310 q 801 37 908 90 q 543 -17 693 -17 m 543 136 q 670 157 615 136 q 763 219 725 178 q 819 320 800 260 q 839 460 839 381 l 839 490 q 819 632 839 571 q 763 734 800 693 q 670 796 725 775 q 543 817 615 817 q 416 796 471 817 q 324 734 361 775 q 267 632 286 693 q 249 490 249 571 l 249 460 q 267 320 249 381 q 324 219 286 260 q 416 157 361 178 q 543 136 471 136 m 310 1022 l 457 1206 l 629 1206 l 775 1022 l 621 1022 l 504 1168 l 582 1167 l 464 1022 l 310 1022 m 500 1250 l 500 1328 l 518 1328 q 551 1334 542 1328 q 561 1354 561 1340 q 549 1374 561 1369 q 515 1379 538 1379 l 433 1379 l 433 1439 q 469 1445 450 1443 q 508 1449 489 1447 q 544 1450 528 1450 q 594 1447 568 1450 q 644 1434 621 1443 q 681 1408 667 1425 q 696 1365 696 1392 q 681 1322 696 1339 q 641 1297 665 1306 q 589 1286 617 1289 l 589 1250 l 500 1250 z "},"Ỗ":{"ha":1086,"x_min":63,"x_max":1024,"o":"m 543 -17 q 286 37 394 -17 q 120 200 178 90 q 63 476 63 310 q 120 753 63 644 q 286 916 178 863 q 543 969 394 969 q 801 916 693 969 q 966 753 908 863 q 1024 476 1024 644 q 966 200 1024 310 q 801 37 908 90 q 543 -17 693 -17 m 543 136 q 670 157 615 136 q 763 219 725 178 q 819 320 800 260 q 839 460 839 381 l 839 490 q 819 632 839 571 q 763 734 800 693 q 670 796 725 775 q 543 817 615 817 q 416 796 471 817 q 324 734 361 775 q 267 632 286 693 q 249 490 249 571 l 249 460 q 267 320 249 381 q 324 219 286 260 q 416 157 361 178 q 543 136 471 136 m 310 1022 l 457 1206 l 629 1206 l 775 1022 l 621 1022 l 504 1168 l 582 1167 l 464 1022 l 310 1022 m 311 1278 q 324 1359 311 1322 q 367 1418 338 1396 q 442 1440 396 1440 q 509 1428 478 1440 q 571 1404 540 1417 q 633 1392 601 1392 q 665 1402 653 1392 q 679 1440 676 1413 l 774 1440 q 760 1360 774 1397 q 719 1301 747 1324 q 643 1278 690 1278 q 576 1290 608 1278 q 515 1315 544 1303 q 453 1328 485 1328 q 422 1317 435 1328 q 407 1278 410 1306 l 311 1278 z "},"Ȍ":{"ha":1086,"x_min":63,"x_max":1024,"o":"m 543 -17 q 286 37 394 -17 q 120 200 178 90 q 63 476 63 310 q 120 753 63 644 q 286 916 178 863 q 543 969 394 969 q 801 916 693 969 q 966 753 908 863 q 1024 476 1024 644 q 966 200 1024 310 q 801 37 908 90 q 543 -17 693 -17 m 543 136 q 670 157 615 136 q 763 219 725 178 q 819 320 800 260 q 839 460 839 381 l 839 490 q 819 632 839 571 q 763 734 800 693 q 670 796 725 775 q 543 817 615 817 q 416 796 471 817 q 324 734 361 775 q 267 632 286 693 q 249 490 249 571 l 249 460 q 267 320 249 381 q 324 219 286 260 q 416 157 361 178 q 543 136 471 136 m 619 1022 l 476 1201 l 478 1206 l 661 1206 l 764 1022 l 619 1022 m 364 1022 l 221 1201 l 222 1206 l 406 1206 l 508 1022 l 364 1022 z "},"Ö":{"ha":1086,"x_min":63,"x_max":1024,"o":"m 543 -17 q 286 37 394 -17 q 120 200 178 90 q 63 476 63 310 q 120 753 63 644 q 286 916 178 863 q 543 969 394 969 q 801 916 693 969 q 966 753 908 863 q 1024 476 1024 644 q 966 200 1024 310 q 801 37 908 90 q 543 -17 693 -17 m 543 136 q 670 157 615 136 q 763 219 725 178 q 819 320 800 260 q 839 460 839 381 l 839 490 q 819 632 839 571 q 763 734 800 693 q 670 796 725 775 q 543 817 615 817 q 416 796 471 817 q 324 734 361 775 q 267 632 286 693 q 249 490 249 571 l 249 460 q 267 320 249 381 q 324 219 286 260 q 416 157 361 178 q 543 136 471 136 m 326 1051 l 326 1206 l 478 1206 l 478 1051 l 326 1051 m 608 1051 l 608 1206 l 760 1206 l 760 1051 l 608 1051 z "},"Ȫ":{"ha":1086,"x_min":63,"x_max":1024,"o":"m 543 -17 q 286 37 394 -17 q 120 200 178 90 q 63 476 63 310 q 120 753 63 644 q 286 916 178 863 q 543 969 394 969 q 801 916 693 969 q 966 753 908 863 q 1024 476 1024 644 q 966 200 1024 310 q 801 37 908 90 q 543 -17 693 -17 m 543 136 q 670 157 615 136 q 763 219 725 178 q 819 320 800 260 q 839 460 839 381 l 839 490 q 819 632 839 571 q 763 734 800 693 q 670 796 725 775 q 543 817 615 817 q 416 796 471 817 q 324 734 361 775 q 267 632 286 693 q 249 490 249 571 l 249 460 q 267 320 249 381 q 324 219 286 260 q 416 157 361 178 q 543 136 471 136 m 326 1051 l 326 1206 l 478 1206 l 478 1051 l 326 1051 m 608 1051 l 608 1206 l 760 1206 l 760 1051 l 608 1051 m 331 1293 l 331 1408 l 754 1408 l 754 1293 l 331 1293 z "},"Ȱ":{"ha":1086,"x_min":63,"x_max":1024,"o":"m 543 -17 q 286 37 394 -17 q 120 200 178 90 q 63 476 63 310 q 120 753 63 644 q 286 916 178 863 q 543 969 394 969 q 801 916 693 969 q 966 753 908 863 q 1024 476 1024 644 q 966 200 1024 310 q 801 37 908 90 q 543 -17 693 -17 m 543 136 q 670 157 615 136 q 763 219 725 178 q 819 320 800 260 q 839 460 839 381 l 839 490 q 819 632 839 571 q 763 734 800 693 q 670 796 725 775 q 543 817 615 817 q 416 796 471 817 q 324 734 361 775 q 267 632 286 693 q 249 490 249 571 l 249 460 q 267 320 249 381 q 324 219 286 260 q 416 157 361 178 q 543 136 471 136 m 460 1051 l 460 1218 l 626 1218 l 626 1051 l 460 1051 m 331 1293 l 331 1408 l 754 1408 l 754 1293 l 331 1293 z "},"Ọ":{"ha":1086,"x_min":63,"x_max":1024,"o":"m 543 -17 q 286 37 394 -17 q 120 200 178 90 q 63 476 63 310 q 120 753 63 644 q 286 916 178 863 q 543 969 394 969 q 801 916 693 969 q 966 753 908 863 q 1024 476 1024 644 q 966 200 1024 310 q 801 37 908 90 q 543 -17 693 -17 m 543 136 q 670 157 615 136 q 763 219 725 178 q 819 320 800 260 q 839 460 839 381 l 839 490 q 819 632 839 571 q 763 734 800 693 q 670 796 725 775 q 543 817 615 817 q 416 796 471 817 q 324 734 361 775 q 267 632 286 693 q 249 490 249 571 l 249 460 q 267 320 249 381 q 324 219 286 260 q 416 157 361 178 q 543 136 471 136 m 460 -272 l 460 -111 l 626 -111 l 626 -272 l 460 -272 z "},"Ò":{"ha":1086,"x_min":63,"x_max":1024,"o":"m 543 -17 q 286 37 394 -17 q 120 200 178 90 q 63 476 63 310 q 120 753 63 644 q 286 916 178 863 q 543 969 394 969 q 801 916 693 969 q 966 753 908 863 q 1024 476 1024 644 q 966 200 1024 310 q 801 37 908 90 q 543 -17 693 -17 m 543 136 q 670 157 615 136 q 763 219 725 178 q 819 320 800 260 q 839 460 839 381 l 839 490 q 819 632 839 571 q 763 734 800 693 q 670 796 725 775 q 543 817 615 817 q 416 796 471 817 q 324 734 361 775 q 267 632 286 693 q 249 490 249 571 l 249 460 q 267 320 249 381 q 324 219 286 260 q 416 157 361 178 q 543 136 471 136 m 632 1022 l 485 1022 l 335 1201 l 336 1206 l 519 1206 l 632 1022 z "},"Ỏ":{"ha":1086,"x_min":63,"x_max":1024,"o":"m 543 -17 q 286 37 394 -17 q 120 200 178 90 q 63 476 63 310 q 120 753 63 644 q 286 916 178 863 q 543 969 394 969 q 801 916 693 969 q 966 753 908 863 q 1024 476 1024 644 q 966 200 1024 310 q 801 37 908 90 q 543 -17 693 -17 m 543 136 q 670 157 615 136 q 763 219 725 178 q 819 320 800 260 q 839 460 839 381 l 839 490 q 819 632 839 571 q 763 734 800 693 q 670 796 725 775 q 543 817 615 817 q 416 796 471 817 q 324 734 361 775 q 267 632 286 693 q 249 490 249 571 l 249 460 q 267 320 249 381 q 324 219 286 260 q 416 157 361 178 q 543 136 471 136 m 500 1022 l 500 1100 l 518 1100 q 551 1106 542 1100 q 561 1126 561 1113 q 549 1147 561 1142 q 515 1151 538 1151 l 433 1151 l 433 1211 q 469 1217 450 1215 q 508 1221 489 1219 q 544 1222 528 1222 q 594 1219 568 1222 q 644 1206 621 1215 q 681 1181 667 1197 q 696 1138 696 1164 q 681 1094 696 1111 q 641 1069 665 1078 q 589 1058 617 1061 l 589 1022 l 500 1022 z "},"Ơ":{"ha":1086,"x_min":63,"x_max":1103,"o":"m 543 -17 q 286 37 394 -17 q 120 200 178 90 q 63 476 63 310 q 120 753 63 644 q 286 916 178 863 q 543 969 394 969 q 801 916 693 969 q 966 753 908 863 q 1024 476 1024 644 q 966 200 1024 310 q 801 37 908 90 q 543 -17 693 -17 m 543 136 q 670 157 615 136 q 763 219 725 178 q 819 320 800 260 q 839 460 839 381 l 839 490 q 819 632 839 571 q 763 734 800 693 q 670 796 725 775 q 543 817 615 817 q 416 796 471 817 q 324 734 361 775 q 267 632 286 693 q 249 490 249 571 l 249 460 q 267 320 249 381 q 324 219 286 260 q 416 157 361 178 q 543 136 471 136 m 814 775 l 814 864 q 942 893 896 864 q 989 974 989 922 l 899 974 l 899 1151 l 1103 1151 l 1103 1021 q 1067 890 1103 946 q 967 805 1032 835 q 814 775 903 775 z "},"Ớ":{"ha":1086,"x_min":63,"x_max":1103,"o":"m 543 -17 q 286 37 394 -17 q 120 200 178 90 q 63 476 63 310 q 120 753 63 644 q 286 916 178 863 q 543 969 394 969 q 801 916 693 969 q 966 753 908 863 q 1024 476 1024 644 q 966 200 1024 310 q 801 37 908 90 q 543 -17 693 -17 m 543 136 q 670 157 615 136 q 763 219 725 178 q 819 320 800 260 q 839 460 839 381 l 839 490 q 819 632 839 571 q 763 734 800 693 q 670 796 725 775 q 543 817 615 817 q 416 796 471 817 q 324 734 361 775 q 267 632 286 693 q 249 490 249 571 l 249 460 q 267 320 249 381 q 324 219 286 260 q 416 157 361 178 q 543 136 471 136 m 814 775 l 814 864 q 942 893 896 864 q 989 974 989 922 l 899 974 l 899 1151 l 1103 1151 l 1103 1021 q 1067 890 1103 946 q 967 805 1032 835 q 814 775 903 775 m 463 1022 l 575 1206 l 758 1206 l 760 1201 l 610 1022 l 463 1022 z "},"Ợ":{"ha":1086,"x_min":63,"x_max":1103,"o":"m 543 -17 q 286 37 394 -17 q 120 200 178 90 q 63 476 63 310 q 120 753 63 644 q 286 916 178 863 q 543 969 394 969 q 801 916 693 969 q 966 753 908 863 q 1024 476 1024 644 q 966 200 1024 310 q 801 37 908 90 q 543 -17 693 -17 m 543 136 q 670 157 615 136 q 763 219 725 178 q 819 320 800 260 q 839 460 839 381 l 839 490 q 819 632 839 571 q 763 734 800 693 q 670 796 725 775 q 543 817 615 817 q 416 796 471 817 q 324 734 361 775 q 267 632 286 693 q 249 490 249 571 l 249 460 q 267 320 249 381 q 324 219 286 260 q 416 157 361 178 q 543 136 471 136 m 814 775 l 814 864 q 942 893 896 864 q 989 974 989 922 l 899 974 l 899 1151 l 1103 1151 l 1103 1021 q 1067 890 1103 946 q 967 805 1032 835 q 814 775 903 775 m 460 -272 l 460 -111 l 626 -111 l 626 -272 l 460 -272 z "},"Ờ":{"ha":1086,"x_min":63,"x_max":1103,"o":"m 543 -17 q 286 37 394 -17 q 120 200 178 90 q 63 476 63 310 q 120 753 63 644 q 286 916 178 863 q 543 969 394 969 q 801 916 693 969 q 966 753 908 863 q 1024 476 1024 644 q 966 200 1024 310 q 801 37 908 90 q 543 -17 693 -17 m 543 136 q 670 157 615 136 q 763 219 725 178 q 819 320 800 260 q 839 460 839 381 l 839 490 q 819 632 839 571 q 763 734 800 693 q 670 796 725 775 q 543 817 615 817 q 416 796 471 817 q 324 734 361 775 q 267 632 286 693 q 249 490 249 571 l 249 460 q 267 320 249 381 q 324 219 286 260 q 416 157 361 178 q 543 136 471 136 m 814 775 l 814 864 q 942 893 896 864 q 989 974 989 922 l 899 974 l 899 1151 l 1103 1151 l 1103 1021 q 1067 890 1103 946 q 967 805 1032 835 q 814 775 903 775 m 632 1022 l 485 1022 l 335 1201 l 336 1206 l 519 1206 l 632 1022 z "},"Ở":{"ha":1086,"x_min":63,"x_max":1103,"o":"m 543 -17 q 286 37 394 -17 q 120 200 178 90 q 63 476 63 310 q 120 753 63 644 q 286 916 178 863 q 543 969 394 969 q 801 916 693 969 q 966 753 908 863 q 1024 476 1024 644 q 966 200 1024 310 q 801 37 908 90 q 543 -17 693 -17 m 543 136 q 670 157 615 136 q 763 219 725 178 q 819 320 800 260 q 839 460 839 381 l 839 490 q 819 632 839 571 q 763 734 800 693 q 670 796 725 775 q 543 817 615 817 q 416 796 471 817 q 324 734 361 775 q 267 632 286 693 q 249 490 249 571 l 249 460 q 267 320 249 381 q 324 219 286 260 q 416 157 361 178 q 543 136 471 136 m 814 775 l 814 864 q 942 893 896 864 q 989 974 989 922 l 899 974 l 899 1151 l 1103 1151 l 1103 1021 q 1067 890 1103 946 q 967 805 1032 835 q 814 775 903 775 m 500 1022 l 500 1100 l 518 1100 q 551 1106 542 1100 q 561 1126 561 1113 q 549 1147 561 1142 q 515 1151 538 1151 l 433 1151 l 433 1211 q 469 1217 450 1215 q 508 1221 489 1219 q 544 1222 528 1222 q 594 1219 568 1222 q 644 1206 621 1215 q 681 1181 667 1197 q 696 1138 696 1164 q 681 1094 696 1111 q 641 1069 665 1078 q 589 1058 617 1061 l 589 1022 l 500 1022 z "},"Ỡ":{"ha":1086,"x_min":63,"x_max":1103,"o":"m 543 -17 q 286 37 394 -17 q 120 200 178 90 q 63 476 63 310 q 120 753 63 644 q 286 916 178 863 q 543 969 394 969 q 801 916 693 969 q 966 753 908 863 q 1024 476 1024 644 q 966 200 1024 310 q 801 37 908 90 q 543 -17 693 -17 m 543 136 q 670 157 615 136 q 763 219 725 178 q 819 320 800 260 q 839 460 839 381 l 839 490 q 819 632 839 571 q 763 734 800 693 q 670 796 725 775 q 543 817 615 817 q 416 796 471 817 q 324 734 361 775 q 267 632 286 693 q 249 490 249 571 l 249 460 q 267 320 249 381 q 324 219 286 260 q 416 157 361 178 q 543 136 471 136 m 814 775 l 814 864 q 942 893 896 864 q 989 974 989 922 l 899 974 l 899 1151 l 1103 1151 l 1103 1021 q 1067 890 1103 946 q 967 805 1032 835 q 814 775 903 775 m 311 1050 q 324 1131 311 1094 q 367 1190 338 1168 q 442 1213 396 1213 q 509 1201 478 1213 q 571 1176 540 1189 q 633 1164 601 1164 q 665 1174 653 1164 q 679 1213 676 1185 l 774 1213 q 760 1133 774 1169 q 719 1073 747 1096 q 643 1050 690 1050 q 576 1063 608 1050 q 515 1088 544 1075 q 453 1100 485 1100 q 422 1089 435 1100 q 407 1050 410 1078 l 311 1050 z "},"Ő":{"ha":1086,"x_min":63,"x_max":1024,"o":"m 543 -17 q 286 37 394 -17 q 120 200 178 90 q 63 476 63 310 q 120 753 63 644 q 286 916 178 863 q 543 969 394 969 q 801 916 693 969 q 966 753 908 863 q 1024 476 1024 644 q 966 200 1024 310 q 801 37 908 90 q 543 -17 693 -17 m 543 136 q 670 157 615 136 q 763 219 725 178 q 819 320 800 260 q 839 460 839 381 l 839 490 q 819 632 839 571 q 763 734 800 693 q 670 796 725 775 q 543 817 615 817 q 416 796 471 817 q 324 734 361 775 q 267 632 286 693 q 249 490 249 571 l 249 460 q 267 320 249 381 q 324 219 286 260 q 416 157 361 178 q 543 136 471 136 m 593 1022 l 696 1206 l 879 1206 l 881 1201 l 738 1022 l 593 1022 m 338 1022 l 440 1206 l 624 1206 l 625 1201 l 482 1022 l 338 1022 z "},"Ȏ":{"ha":1086,"x_min":63,"x_max":1024,"o":"m 543 -17 q 286 37 394 -17 q 120 200 178 90 q 63 476 63 310 q 120 753 63 644 q 286 916 178 863 q 543 969 394 969 q 801 916 693 969 q 966 753 908 863 q 1024 476 1024 644 q 966 200 1024 310 q 801 37 908 90 q 543 -17 693 -17 m 543 136 q 670 157 615 136 q 763 219 725 178 q 819 320 800 260 q 839 460 839 381 l 839 490 q 819 632 839 571 q 763 734 800 693 q 670 796 725 775 q 543 817 615 817 q 416 796 471 817 q 324 734 361 775 q 267 632 286 693 q 249 490 249 571 l 249 460 q 267 320 249 381 q 324 219 286 260 q 416 157 361 178 q 543 136 471 136 m 326 1024 q 348 1108 326 1067 q 417 1178 369 1150 q 544 1206 465 1206 q 672 1178 625 1206 q 740 1108 719 1150 q 761 1024 761 1067 l 649 1024 q 635 1054 646 1039 q 603 1081 625 1069 q 544 1092 581 1092 q 485 1081 508 1092 q 451 1054 463 1069 q 439 1024 440 1039 l 326 1024 z "},"Ō":{"ha":1086,"x_min":63,"x_max":1024,"o":"m 543 -17 q 286 37 394 -17 q 120 200 178 90 q 63 476 63 310 q 120 753 63 644 q 286 916 178 863 q 543 969 394 969 q 801 916 693 969 q 966 753 908 863 q 1024 476 1024 644 q 966 200 1024 310 q 801 37 908 90 q 543 -17 693 -17 m 543 136 q 670 157 615 136 q 763 219 725 178 q 819 320 800 260 q 839 460 839 381 l 839 490 q 819 632 839 571 q 763 734 800 693 q 670 796 725 775 q 543 817 615 817 q 416 796 471 817 q 324 734 361 775 q 267 632 286 693 q 249 490 249 571 l 249 460 q 267 320 249 381 q 324 219 286 260 q 416 157 361 178 q 543 136 471 136 m 331 1051 l 331 1167 l 754 1167 l 754 1051 l 331 1051 z "},"Ǫ":{"ha":1086,"x_min":63,"x_max":1024,"o":"m 543 -17 q 286 37 394 -17 q 120 200 178 90 q 63 476 63 310 q 120 753 63 644 q 286 916 178 863 q 543 969 394 969 q 801 916 693 969 q 966 753 908 863 q 1024 476 1024 644 q 966 200 1024 310 q 801 37 908 90 q 543 -17 693 -17 m 543 136 q 670 157 615 136 q 763 219 725 178 q 819 320 800 260 q 839 460 839 381 l 839 490 q 819 632 839 571 q 763 734 800 693 q 670 796 725 775 q 543 817 615 817 q 416 796 471 817 q 324 734 361 775 q 267 632 286 693 q 249 490 249 571 l 249 460 q 267 320 249 381 q 324 219 286 260 q 416 157 361 178 q 543 136 471 136 m 699 -253 q 631 -242 664 -253 q 575 -203 597 -231 q 553 -129 553 -176 q 576 -44 553 -78 q 626 17 599 -10 l 735 17 l 735 11 q 704 -30 721 -3 q 688 -86 688 -57 q 703 -136 688 -114 q 757 -158 719 -158 l 811 -158 l 811 -233 q 754 -248 786 -243 q 699 -253 722 -253 z "},"Ø":{"ha":1086,"x_min":63,"x_max":1024,"o":"m 543 -17 q 286 37 394 -17 q 120 200 178 90 q 63 476 63 310 q 120 753 63 644 q 286 916 178 863 q 543 969 394 969 q 801 916 693 969 q 966 753 908 863 q 1024 476 1024 644 q 966 200 1024 310 q 801 37 908 90 q 543 -17 693 -17 m 543 136 q 670 157 615 136 q 763 219 725 178 q 819 320 800 260 q 839 460 839 381 l 839 490 q 819 632 839 571 q 763 734 800 693 q 670 796 725 775 q 543 817 615 817 q 416 796 471 817 q 324 734 361 775 q 267 632 286 693 q 249 490 249 571 l 249 460 q 267 320 249 381 q 324 219 286 260 q 416 157 361 178 q 543 136 471 136 m 67 -68 l 876 1021 l 1018 1021 l 210 -68 l 67 -68 z "},"Ǿ":{"ha":1086,"x_min":63,"x_max":1024,"o":"m 543 -17 q 286 37 394 -17 q 120 200 178 90 q 63 476 63 310 q 120 753 63 644 q 286 916 178 863 q 543 969 394 969 q 801 916 693 969 q 966 753 908 863 q 1024 476 1024 644 q 966 200 1024 310 q 801 37 908 90 q 543 -17 693 -17 m 543 136 q 670 157 615 136 q 763 219 725 178 q 819 320 800 260 q 839 460 839 381 l 839 490 q 819 632 839 571 q 763 734 800 693 q 670 796 725 775 q 543 817 615 817 q 416 796 471 817 q 324 734 361 775 q 267 632 286 693 q 249 490 249 571 l 249 460 q 267 320 249 381 q 324 219 286 260 q 416 157 361 178 q 543 136 471 136 m 67 -68 l 876 1021 l 1018 1021 l 210 -68 l 67 -68 m 463 1022 l 575 1206 l 758 1206 l 760 1201 l 610 1022 l 463 1022 z "},"Õ":{"ha":1086,"x_min":63,"x_max":1024,"o":"m 543 -17 q 286 37 394 -17 q 120 200 178 90 q 63 476 63 310 q 120 753 63 644 q 286 916 178 863 q 543 969 394 969 q 801 916 693 969 q 966 753 908 863 q 1024 476 1024 644 q 966 200 1024 310 q 801 37 908 90 q 543 -17 693 -17 m 543 136 q 670 157 615 136 q 763 219 725 178 q 819 320 800 260 q 839 460 839 381 l 839 490 q 819 632 839 571 q 763 734 800 693 q 670 796 725 775 q 543 817 615 817 q 416 796 471 817 q 324 734 361 775 q 267 632 286 693 q 249 490 249 571 l 249 460 q 267 320 249 381 q 324 219 286 260 q 416 157 361 178 q 543 136 471 136 m 311 1050 q 324 1131 311 1094 q 367 1190 338 1168 q 442 1213 396 1213 q 509 1201 478 1213 q 571 1176 540 1189 q 633 1164 601 1164 q 665 1174 653 1164 q 679 1213 676 1185 l 774 1213 q 760 1133 774 1169 q 719 1073 747 1096 q 643 1050 690 1050 q 576 1063 608 1050 q 515 1088 544 1075 q 453 1100 485 1100 q 422 1089 435 1100 q 407 1050 410 1078 l 311 1050 z "},"Ȭ":{"ha":1086,"x_min":63,"x_max":1024,"o":"m 543 -17 q 286 37 394 -17 q 120 200 178 90 q 63 476 63 310 q 120 753 63 644 q 286 916 178 863 q 543 969 394 969 q 801 916 693 969 q 966 753 908 863 q 1024 476 1024 644 q 966 200 1024 310 q 801 37 908 90 q 543 -17 693 -17 m 543 136 q 670 157 615 136 q 763 219 725 178 q 819 320 800 260 q 839 460 839 381 l 839 490 q 819 632 839 571 q 763 734 800 693 q 670 796 725 775 q 543 817 615 817 q 416 796 471 817 q 324 734 361 775 q 267 632 286 693 q 249 490 249 571 l 249 460 q 267 320 249 381 q 324 219 286 260 q 416 157 361 178 q 543 136 471 136 m 311 1050 q 324 1131 311 1094 q 367 1190 338 1168 q 442 1213 396 1213 q 509 1201 478 1213 q 571 1176 540 1189 q 633 1164 601 1164 q 665 1174 653 1164 q 679 1213 676 1185 l 774 1213 q 760 1133 774 1169 q 719 1073 747 1096 q 643 1050 690 1050 q 576 1063 608 1050 q 515 1088 544 1075 q 453 1100 485 1100 q 422 1089 435 1100 q 407 1050 410 1078 l 311 1050 m 331 1279 l 331 1394 l 754 1394 l 754 1279 l 331 1279 z "},"Œ":{"ha":1667,"x_min":63,"x_max":1590,"o":"m 543 -17 q 286 37 394 -17 q 120 200 178 90 q 63 476 63 310 q 120 753 63 644 q 286 916 178 863 q 543 969 394 969 q 708 949 633 969 q 839 888 783 929 l 839 953 l 1582 953 l 1582 799 l 1018 799 l 1018 564 l 1521 564 l 1521 410 l 1018 410 l 1018 154 l 1590 154 l 1590 0 l 839 0 l 839 65 q 708 3 783 24 q 543 -17 633 -17 m 543 136 q 670 157 615 136 q 763 219 725 178 q 819 320 800 260 q 839 460 839 381 l 839 490 q 819 632 839 571 q 763 734 800 693 q 670 796 725 775 q 543 817 615 817 q 416 796 471 817 q 324 734 361 775 q 267 632 286 693 q 249 490 249 571 l 249 460 q 267 320 249 381 q 324 219 286 260 q 416 157 361 178 q 543 136 471 136 z "},"P":{"ha":931,"x_min":106,"x_max":896,"o":"m 106 0 l 106 953 l 583 953 q 758 915 689 953 q 861 810 826 878 q 896 647 896 742 q 860 485 896 554 q 752 377 824 415 q 574 339 681 339 l 286 339 l 286 0 l 106 0 m 286 493 l 568 493 q 676 534 638 493 q 714 647 714 575 q 697 729 714 696 q 649 781 681 763 q 568 799 617 799 l 286 799 l 286 493 z "},"Þ":{"ha":958,"x_min":113,"x_max":882,"o":"m 113 0 l 113 953 l 293 953 l 293 799 l 569 799 q 744 761 675 799 q 847 656 813 724 q 882 494 882 588 q 846 331 882 400 q 738 223 810 261 q 560 185 667 185 l 293 185 l 293 0 l 113 0 m 293 339 l 554 339 q 662 381 624 339 q 700 494 700 422 q 683 575 700 542 q 635 626 667 608 q 554 644 603 644 l 293 644 l 293 339 z "},"Q":{"ha":1086,"x_min":63,"x_max":1024,"o":"m 747 -181 l 589 -15 q 566 -17 578 -17 q 543 -17 554 -17 q 286 37 394 -17 q 120 200 178 90 q 63 476 63 310 q 120 753 63 644 q 286 916 178 863 q 543 969 394 969 q 801 916 693 969 q 966 753 908 863 q 1024 476 1024 644 q 959 188 1024 300 q 776 25 894 76 l 989 -181 l 747 -181 m 543 136 q 670 157 615 136 q 763 219 725 178 q 819 320 800 260 q 839 460 839 381 l 839 490 q 819 632 839 571 q 763 734 800 693 q 670 796 725 775 q 543 817 615 817 q 416 796 471 817 q 324 734 361 775 q 267 632 286 693 q 249 490 249 571 l 249 460 q 267 320 249 381 q 324 219 286 260 q 416 157 361 178 q 543 136 471 136 z "},"R":{"ha":996,"x_min":106,"x_max":954,"o":"m 106 0 l 106 953 l 607 953 q 782 917 713 953 q 886 814 851 881 q 921 657 921 747 q 879 492 921 564 q 757 385 838 421 l 954 0 l 757 0 l 582 354 l 286 354 l 286 0 l 106 0 m 286 506 l 593 506 q 700 546 663 506 q 738 657 738 586 q 721 734 738 703 q 672 782 704 765 q 593 799 640 799 l 286 799 l 286 506 z "},"Ŕ":{"ha":996,"x_min":106,"x_max":954,"o":"m 106 0 l 106 953 l 607 953 q 782 917 713 953 q 886 814 851 881 q 921 657 921 747 q 879 492 921 564 q 757 385 838 421 l 954 0 l 757 0 l 582 354 l 286 354 l 286 0 l 106 0 m 286 506 l 593 506 q 700 546 663 506 q 738 657 738 586 q 721 734 738 703 q 672 782 704 765 q 593 799 640 799 l 286 799 l 286 506 m 418 1022 l 531 1206 l 714 1206 l 715 1201 l 565 1022 l 418 1022 z "},"Ř":{"ha":996,"x_min":106,"x_max":954,"o":"m 106 0 l 106 953 l 607 953 q 782 917 713 953 q 886 814 851 881 q 921 657 921 747 q 879 492 921 564 q 757 385 838 421 l 954 0 l 757 0 l 582 354 l 286 354 l 286 0 l 106 0 m 286 506 l 593 506 q 700 546 663 506 q 738 657 738 586 q 721 734 738 703 q 672 782 704 765 q 593 799 640 799 l 286 799 l 286 506 m 265 1206 l 419 1206 l 538 1061 l 460 1060 l 576 1206 l 731 1206 l 585 1022 l 413 1022 l 265 1206 z "},"Ŗ":{"ha":996,"x_min":106,"x_max":954,"o":"m 106 0 l 106 953 l 607 953 q 782 917 713 953 q 886 814 851 881 q 921 657 921 747 q 879 492 921 564 q 757 385 838 421 l 954 0 l 757 0 l 582 354 l 286 354 l 286 0 l 106 0 m 286 506 l 593 506 q 700 546 663 506 q 738 657 738 586 q 721 734 738 703 q 672 782 704 765 q 593 799 640 799 l 286 799 l 286 506 m 404 -431 l 404 -360 q 470 -333 449 -360 q 492 -272 492 -306 l 415 -272 l 415 -106 l 582 -106 l 582 -236 q 557 -349 582 -306 q 492 -411 532 -392 q 404 -431 451 -431 z "},"Ȑ":{"ha":996,"x_min":106,"x_max":954,"o":"m 106 0 l 106 953 l 607 953 q 782 917 713 953 q 886 814 851 881 q 921 657 921 747 q 879 492 921 564 q 757 385 838 421 l 954 0 l 757 0 l 582 354 l 286 354 l 286 0 l 106 0 m 286 506 l 593 506 q 700 546 663 506 q 738 657 738 586 q 721 734 738 703 q 672 782 704 765 q 593 799 640 799 l 286 799 l 286 506 m 575 1022 l 432 1201 l 433 1206 l 617 1206 l 719 1022 l 575 1022 m 319 1022 l 176 1201 l 178 1206 l 361 1206 l 464 1022 l 319 1022 z "},"Ȓ":{"ha":996,"x_min":106,"x_max":954,"o":"m 106 0 l 106 953 l 607 953 q 782 917 713 953 q 886 814 851 881 q 921 657 921 747 q 879 492 921 564 q 757 385 838 421 l 954 0 l 757 0 l 582 354 l 286 354 l 286 0 l 106 0 m 286 506 l 593 506 q 700 546 663 506 q 738 657 738 586 q 721 734 738 703 q 672 782 704 765 q 593 799 640 799 l 286 799 l 286 506 m 282 1024 q 303 1108 282 1067 q 373 1178 325 1150 q 500 1206 421 1206 q 628 1178 581 1206 q 696 1108 675 1150 q 717 1024 717 1067 l 604 1024 q 591 1054 601 1039 q 558 1081 581 1069 q 500 1092 536 1092 q 441 1081 464 1092 q 407 1054 418 1069 q 394 1024 396 1039 l 282 1024 z "},"S":{"ha":926,"x_min":63,"x_max":864,"o":"m 461 -17 q 310 1 382 -17 q 182 55 238 18 q 94 147 126 92 q 63 276 63 201 q 63 293 63 285 q 64 306 64 301 l 246 306 q 245 295 246 303 q 244 282 244 288 q 271 203 244 236 q 347 153 297 171 q 465 136 397 136 q 547 142 511 136 q 608 158 582 147 q 650 183 633 168 q 674 215 667 197 q 682 254 682 233 q 657 321 682 294 q 590 365 632 347 q 494 398 547 383 q 384 428 440 413 q 274 465 328 443 q 178 517 221 486 q 111 594 136 547 q 86 706 86 640 q 115 822 86 772 q 195 905 143 872 q 317 953 247 938 q 468 969 386 969 q 612 953 544 969 q 731 903 679 938 q 811 817 782 869 q 840 693 840 765 l 840 676 l 661 676 l 661 690 q 637 758 661 731 q 569 801 613 786 q 467 817 525 817 q 360 805 404 817 q 292 770 315 793 q 268 714 268 747 q 293 656 268 679 q 360 615 318 632 q 456 585 403 599 q 566 555 510 571 q 676 518 622 539 q 772 466 729 497 q 839 389 814 435 q 864 279 864 343 q 812 107 864 172 q 669 13 760 42 q 461 -17 578 -17 z "},"Ś":{"ha":926,"x_min":63,"x_max":864,"o":"m 461 -17 q 310 1 382 -17 q 182 55 238 18 q 94 147 126 92 q 63 276 63 201 q 63 293 63 285 q 64 306 64 301 l 246 306 q 245 295 246 303 q 244 282 244 288 q 271 203 244 236 q 347 153 297 171 q 465 136 397 136 q 547 142 511 136 q 608 158 582 147 q 650 183 633 168 q 674 215 667 197 q 682 254 682 233 q 657 321 682 294 q 590 365 632 347 q 494 398 547 383 q 384 428 440 413 q 274 465 328 443 q 178 517 221 486 q 111 594 136 547 q 86 706 86 640 q 115 822 86 772 q 195 905 143 872 q 317 953 247 938 q 468 969 386 969 q 612 953 544 969 q 731 903 679 938 q 811 817 782 869 q 840 693 840 765 l 840 676 l 661 676 l 661 690 q 637 758 661 731 q 569 801 613 786 q 467 817 525 817 q 360 805 404 817 q 292 770 315 793 q 268 714 268 747 q 293 656 268 679 q 360 615 318 632 q 456 585 403 599 q 566 555 510 571 q 676 518 622 539 q 772 466 729 497 q 839 389 814 435 q 864 279 864 343 q 812 107 864 172 q 669 13 760 42 q 461 -17 578 -17 m 383 1022 l 496 1206 l 679 1206 l 681 1201 l 531 1022 l 383 1022 z "},"Š":{"ha":926,"x_min":63,"x_max":864,"o":"m 461 -17 q 310 1 382 -17 q 182 55 238 18 q 94 147 126 92 q 63 276 63 201 q 63 293 63 285 q 64 306 64 301 l 246 306 q 245 295 246 303 q 244 282 244 288 q 271 203 244 236 q 347 153 297 171 q 465 136 397 136 q 547 142 511 136 q 608 158 582 147 q 650 183 633 168 q 674 215 667 197 q 682 254 682 233 q 657 321 682 294 q 590 365 632 347 q 494 398 547 383 q 384 428 440 413 q 274 465 328 443 q 178 517 221 486 q 111 594 136 547 q 86 706 86 640 q 115 822 86 772 q 195 905 143 872 q 317 953 247 938 q 468 969 386 969 q 612 953 544 969 q 731 903 679 938 q 811 817 782 869 q 840 693 840 765 l 840 676 l 661 676 l 661 690 q 637 758 661 731 q 569 801 613 786 q 467 817 525 817 q 360 805 404 817 q 292 770 315 793 q 268 714 268 747 q 293 656 268 679 q 360 615 318 632 q 456 585 403 599 q 566 555 510 571 q 676 518 622 539 q 772 466 729 497 q 839 389 814 435 q 864 279 864 343 q 812 107 864 172 q 669 13 760 42 q 461 -17 578 -17 m 231 1206 l 385 1206 l 503 1061 l 425 1060 l 542 1206 l 696 1206 l 550 1022 l 378 1022 l 231 1206 z "},"Ş":{"ha":926,"x_min":63,"x_max":864,"o":"m 461 -17 q 310 1 382 -17 q 182 55 238 18 q 94 147 126 92 q 63 276 63 201 q 63 293 63 285 q 64 306 64 301 l 246 306 q 245 295 246 303 q 244 282 244 288 q 271 203 244 236 q 347 153 297 171 q 465 136 397 136 q 547 142 511 136 q 608 158 582 147 q 650 183 633 168 q 674 215 667 197 q 682 254 682 233 q 657 321 682 294 q 590 365 632 347 q 494 398 547 383 q 384 428 440 413 q 274 465 328 443 q 178 517 221 486 q 111 594 136 547 q 86 706 86 640 q 115 822 86 772 q 195 905 143 872 q 317 953 247 938 q 468 969 386 969 q 612 953 544 969 q 731 903 679 938 q 811 817 782 869 q 840 693 840 765 l 840 676 l 661 676 l 661 690 q 637 758 661 731 q 569 801 613 786 q 467 817 525 817 q 360 805 404 817 q 292 770 315 793 q 268 714 268 747 q 293 656 268 679 q 360 615 318 632 q 456 585 403 599 q 566 555 510 571 q 676 518 622 539 q 772 466 729 497 q 839 389 814 435 q 864 279 864 343 q 812 107 864 172 q 669 13 760 42 q 461 -17 578 -17 m 461 -253 q 389 -250 426 -253 q 321 -242 351 -247 l 321 -174 l 449 -174 q 492 -167 476 -174 q 508 -140 508 -160 q 497 -115 508 -124 q 451 -107 485 -107 l 390 -107 l 410 15 l 518 15 l 510 -47 q 576 -59 546 -49 q 625 -89 607 -69 q 643 -140 643 -108 q 625 -197 643 -175 q 579 -231 607 -219 q 520 -248 551 -243 q 461 -253 489 -253 z "},"Ŝ":{"ha":926,"x_min":63,"x_max":864,"o":"m 461 -17 q 310 1 382 -17 q 182 55 238 18 q 94 147 126 92 q 63 276 63 201 q 63 293 63 285 q 64 306 64 301 l 246 306 q 245 295 246 303 q 244 282 244 288 q 271 203 244 236 q 347 153 297 171 q 465 136 397 136 q 547 142 511 136 q 608 158 582 147 q 650 183 633 168 q 674 215 667 197 q 682 254 682 233 q 657 321 682 294 q 590 365 632 347 q 494 398 547 383 q 384 428 440 413 q 274 465 328 443 q 178 517 221 486 q 111 594 136 547 q 86 706 86 640 q 115 822 86 772 q 195 905 143 872 q 317 953 247 938 q 468 969 386 969 q 612 953 544 969 q 731 903 679 938 q 811 817 782 869 q 840 693 840 765 l 840 676 l 661 676 l 661 690 q 637 758 661 731 q 569 801 613 786 q 467 817 525 817 q 360 805 404 817 q 292 770 315 793 q 268 714 268 747 q 293 656 268 679 q 360 615 318 632 q 456 585 403 599 q 566 555 510 571 q 676 518 622 539 q 772 466 729 497 q 839 389 814 435 q 864 279 864 343 q 812 107 864 172 q 669 13 760 42 q 461 -17 578 -17 m 231 1022 l 378 1206 l 550 1206 l 696 1022 l 542 1022 l 425 1168 l 503 1167 l 385 1022 l 231 1022 z "},"Ș":{"ha":926,"x_min":63,"x_max":864,"o":"m 461 -17 q 310 1 382 -17 q 182 55 238 18 q 94 147 126 92 q 63 276 63 201 q 63 293 63 285 q 64 306 64 301 l 246 306 q 245 295 246 303 q 244 282 244 288 q 271 203 244 236 q 347 153 297 171 q 465 136 397 136 q 547 142 511 136 q 608 158 582 147 q 650 183 633 168 q 674 215 667 197 q 682 254 682 233 q 657 321 682 294 q 590 365 632 347 q 494 398 547 383 q 384 428 440 413 q 274 465 328 443 q 178 517 221 486 q 111 594 136 547 q 86 706 86 640 q 115 822 86 772 q 195 905 143 872 q 317 953 247 938 q 468 969 386 969 q 612 953 544 969 q 731 903 679 938 q 811 817 782 869 q 840 693 840 765 l 840 676 l 661 676 l 661 690 q 637 758 661 731 q 569 801 613 786 q 467 817 525 817 q 360 805 404 817 q 292 770 315 793 q 268 714 268 747 q 293 656 268 679 q 360 615 318 632 q 456 585 403 599 q 566 555 510 571 q 676 518 622 539 q 772 466 729 497 q 839 389 814 435 q 864 279 864 343 q 812 107 864 172 q 669 13 760 42 q 461 -17 578 -17 m 372 -431 l 372 -360 q 438 -333 417 -360 q 460 -272 460 -306 l 383 -272 l 383 -106 l 550 -106 l 550 -236 q 525 -349 550 -306 q 460 -411 500 -392 q 372 -431 419 -431 z "},"Ṣ":{"ha":926,"x_min":63,"x_max":864,"o":"m 461 -17 q 310 1 382 -17 q 182 55 238 18 q 94 147 126 92 q 63 276 63 201 q 63 293 63 285 q 64 306 64 301 l 246 306 q 245 295 246 303 q 244 282 244 288 q 271 203 244 236 q 347 153 297 171 q 465 136 397 136 q 547 142 511 136 q 608 158 582 147 q 650 183 633 168 q 674 215 667 197 q 682 254 682 233 q 657 321 682 294 q 590 365 632 347 q 494 398 547 383 q 384 428 440 413 q 274 465 328 443 q 178 517 221 486 q 111 594 136 547 q 86 706 86 640 q 115 822 86 772 q 195 905 143 872 q 317 953 247 938 q 468 969 386 969 q 612 953 544 969 q 731 903 679 938 q 811 817 782 869 q 840 693 840 765 l 840 676 l 661 676 l 661 690 q 637 758 661 731 q 569 801 613 786 q 467 817 525 817 q 360 805 404 817 q 292 770 315 793 q 268 714 268 747 q 293 656 268 679 q 360 615 318 632 q 456 585 403 599 q 566 555 510 571 q 676 518 622 539 q 772 466 729 497 q 839 389 814 435 q 864 279 864 343 q 812 107 864 172 q 669 13 760 42 q 461 -17 578 -17 m 383 -272 l 383 -111 l 550 -111 l 550 -272 l 383 -272 z "},"ẞ":{"ha":1119,"x_min":111,"x_max":1035,"o":"m 111 0 l 111 556 q 168 785 111 693 q 330 924 225 878 q 578 969 435 969 q 744 950 669 969 q 874 894 819 931 q 958 808 928 858 q 988 694 988 757 q 970 604 988 646 q 924 532 953 563 q 861 488 896 501 l 861 482 q 988 404 942 461 q 1035 261 1035 347 q 999 128 1035 188 q 895 34 963 68 q 733 0 828 0 l 421 0 l 421 156 l 715 156 q 788 174 758 156 q 834 219 818 192 q 850 276 850 247 q 831 337 850 311 q 775 378 811 363 q 688 393 739 393 l 421 393 l 421 549 l 683 549 q 771 588 739 549 q 803 678 803 628 q 751 778 803 740 q 593 815 699 815 q 427 786 494 815 q 326 697 360 757 q 292 546 292 638 l 292 0 l 111 0 z "},"Ə":{"ha":1050,"x_min":63,"x_max":988,"o":"m 524 -17 q 326 10 411 -17 q 181 94 240 38 q 92 240 122 151 q 63 453 63 329 l 63 524 l 801 524 q 764 691 797 625 q 667 790 731 757 q 507 822 604 822 q 404 811 451 822 q 322 776 357 800 q 266 714 286 751 q 246 622 246 676 l 63 622 q 96 776 63 711 q 190 885 129 842 q 333 949 250 928 q 515 969 415 969 q 777 916 672 969 q 935 753 882 863 q 988 471 988 643 q 937 196 988 304 q 783 35 886 88 q 524 -17 681 -17 m 529 131 q 672 158 615 131 q 759 241 728 185 q 799 386 790 297 l 246 386 q 266 268 246 317 q 324 189 286 219 q 413 144 361 158 q 529 131 465 131 z "},"T":{"ha":860,"x_min":35,"x_max":825,"o":"m 339 0 l 339 797 l 35 797 l 35 953 l 825 953 l 825 797 l 519 797 l 519 0 l 339 0 z "},"Ŧ":{"ha":860,"x_min":35,"x_max":825,"o":"m 339 0 l 339 797 l 35 797 l 35 953 l 825 953 l 825 797 l 519 797 l 519 0 l 339 0 m 199 388 l 199 513 l 663 513 l 663 388 l 199 388 z "},"Ť":{"ha":860,"x_min":35,"x_max":825,"o":"m 339 0 l 339 797 l 35 797 l 35 953 l 825 953 l 825 797 l 519 797 l 519 0 l 339 0 m 197 1206 l 351 1206 l 469 1061 l 392 1060 l 508 1206 l 663 1206 l 517 1022 l 344 1022 l 197 1206 z "},"Ţ":{"ha":860,"x_min":35,"x_max":825,"o":"m 339 0 l 339 797 l 35 797 l 35 953 l 825 953 l 825 797 l 519 797 l 519 0 l 339 0 m 425 -253 q 353 -250 390 -253 q 285 -242 315 -247 l 285 -174 l 413 -174 q 456 -167 440 -174 q 472 -140 472 -160 q 460 -115 472 -124 q 415 -107 449 -107 l 354 -107 l 374 15 l 482 15 l 474 -47 q 540 -59 510 -49 q 589 -89 571 -69 q 607 -140 607 -108 q 589 -197 607 -175 q 543 -231 571 -219 q 484 -248 515 -243 q 425 -253 453 -253 z "},"Ț":{"ha":860,"x_min":35,"x_max":825,"o":"m 339 0 l 339 797 l 35 797 l 35 953 l 825 953 l 825 797 l 519 797 l 519 0 l 339 0 m 336 -431 l 336 -360 q 402 -333 381 -360 q 424 -272 424 -306 l 347 -272 l 347 -106 l 514 -106 l 514 -236 q 489 -349 514 -306 q 424 -411 464 -392 q 336 -431 383 -431 z "},"Ṭ":{"ha":860,"x_min":35,"x_max":825,"o":"m 339 0 l 339 797 l 35 797 l 35 953 l 825 953 l 825 797 l 519 797 l 519 0 l 339 0 m 347 -272 l 347 -111 l 514 -111 l 514 -272 l 347 -272 z "},"U":{"ha":1006,"x_min":100,"x_max":906,"o":"m 501 -17 q 286 24 376 -17 q 148 147 196 64 q 100 353 100 229 l 100 953 l 281 953 l 281 358 q 338 192 281 249 q 501 136 396 136 q 666 192 607 136 q 725 358 725 249 l 725 953 l 906 953 l 906 353 q 857 147 906 229 q 718 24 808 64 q 501 -17 628 -17 z "},"Ú":{"ha":1006,"x_min":100,"x_max":906,"o":"m 501 -17 q 286 24 376 -17 q 148 147 196 64 q 100 353 100 229 l 100 953 l 281 953 l 281 358 q 338 192 281 249 q 501 136 396 136 q 666 192 607 136 q 725 358 725 249 l 725 953 l 906 953 l 906 353 q 857 147 906 229 q 718 24 808 64 q 501 -17 628 -17 m 422 1022 l 535 1206 l 718 1206 l 719 1201 l 569 1022 l 422 1022 z "},"Ŭ":{"ha":1006,"x_min":100,"x_max":906,"o":"m 501 -17 q 286 24 376 -17 q 148 147 196 64 q 100 353 100 229 l 100 953 l 281 953 l 281 358 q 338 192 281 249 q 501 136 396 136 q 666 192 607 136 q 725 358 725 249 l 725 953 l 906 953 l 906 353 q 857 147 906 229 q 718 24 808 64 q 501 -17 628 -17 m 503 1024 q 376 1051 424 1024 q 307 1122 328 1079 q 286 1206 286 1164 l 399 1206 q 412 1175 401 1192 q 444 1147 422 1158 q 503 1136 467 1136 q 562 1147 539 1136 q 596 1175 585 1158 q 608 1206 607 1192 l 721 1206 q 699 1122 721 1164 q 631 1051 678 1079 q 503 1024 583 1024 z "},"Ǔ":{"ha":1006,"x_min":100,"x_max":906,"o":"m 501 -17 q 286 24 376 -17 q 148 147 196 64 q 100 353 100 229 l 100 953 l 281 953 l 281 358 q 338 192 281 249 q 501 136 396 136 q 666 192 607 136 q 725 358 725 249 l 725 953 l 906 953 l 906 353 q 857 147 906 229 q 718 24 808 64 q 501 -17 628 -17 m 269 1206 l 424 1206 l 542 1061 l 464 1060 l 581 1206 l 735 1206 l 589 1022 l 417 1022 l 269 1206 z "},"Û":{"ha":1006,"x_min":100,"x_max":906,"o":"m 501 -17 q 286 24 376 -17 q 148 147 196 64 q 100 353 100 229 l 100 953 l 281 953 l 281 358 q 338 192 281 249 q 501 136 396 136 q 666 192 607 136 q 725 358 725 249 l 725 953 l 906 953 l 906 353 q 857 147 906 229 q 718 24 808 64 q 501 -17 628 -17 m 269 1022 l 417 1206 l 589 1206 l 735 1022 l 581 1022 l 464 1168 l 542 1167 l 424 1022 l 269 1022 z "},"Ȕ":{"ha":1006,"x_min":100,"x_max":906,"o":"m 501 -17 q 286 24 376 -17 q 148 147 196 64 q 100 353 100 229 l 100 953 l 281 953 l 281 358 q 338 192 281 249 q 501 136 396 136 q 666 192 607 136 q 725 358 725 249 l 725 953 l 906 953 l 906 353 q 857 147 906 229 q 718 24 808 64 q 501 -17 628 -17 m 579 1022 l 436 1201 l 438 1206 l 621 1206 l 724 1022 l 579 1022 m 324 1022 l 181 1201 l 182 1206 l 365 1206 l 468 1022 l 324 1022 z "},"Ü":{"ha":1006,"x_min":100,"x_max":906,"o":"m 501 -17 q 286 24 376 -17 q 148 147 196 64 q 100 353 100 229 l 100 953 l 281 953 l 281 358 q 338 192 281 249 q 501 136 396 136 q 666 192 607 136 q 725 358 725 249 l 725 953 l 906 953 l 906 353 q 857 147 906 229 q 718 24 808 64 q 501 -17 628 -17 m 286 1051 l 286 1206 l 438 1206 l 438 1051 l 286 1051 m 568 1051 l 568 1206 l 719 1206 l 719 1051 l 568 1051 z "},"Ǘ":{"ha":1006,"x_min":100,"x_max":906,"o":"m 501 -17 q 286 24 376 -17 q 148 147 196 64 q 100 353 100 229 l 100 953 l 281 953 l 281 358 q 338 192 281 249 q 501 136 396 136 q 666 192 607 136 q 725 358 725 249 l 725 953 l 906 953 l 906 353 q 857 147 906 229 q 718 24 808 64 q 501 -17 628 -17 m 286 1051 l 286 1206 l 438 1206 l 438 1051 l 286 1051 m 568 1051 l 568 1206 l 719 1206 l 719 1051 l 568 1051 m 422 1264 l 535 1447 l 718 1447 l 719 1443 l 569 1264 l 422 1264 z "},"Ǚ":{"ha":1006,"x_min":100,"x_max":906,"o":"m 501 -17 q 286 24 376 -17 q 148 147 196 64 q 100 353 100 229 l 100 953 l 281 953 l 281 358 q 338 192 281 249 q 501 136 396 136 q 666 192 607 136 q 725 358 725 249 l 725 953 l 906 953 l 906 353 q 857 147 906 229 q 718 24 808 64 q 501 -17 628 -17 m 286 1051 l 286 1206 l 438 1206 l 438 1051 l 286 1051 m 568 1051 l 568 1206 l 719 1206 l 719 1051 l 568 1051 m 269 1447 l 424 1447 l 542 1303 l 464 1301 l 581 1447 l 735 1447 l 589 1264 l 417 1264 l 269 1447 z "},"Ǜ":{"ha":1006,"x_min":100,"x_max":906,"o":"m 501 -17 q 286 24 376 -17 q 148 147 196 64 q 100 353 100 229 l 100 953 l 281 953 l 281 358 q 338 192 281 249 q 501 136 396 136 q 666 192 607 136 q 725 358 725 249 l 725 953 l 906 953 l 906 353 q 857 147 906 229 q 718 24 808 64 q 501 -17 628 -17 m 286 1051 l 286 1206 l 438 1206 l 438 1051 l 286 1051 m 568 1051 l 568 1206 l 719 1206 l 719 1051 l 568 1051 m 592 1264 l 444 1264 l 294 1443 l 296 1447 l 479 1447 l 592 1264 z "},"Ǖ":{"ha":1006,"x_min":100,"x_max":906,"o":"m 501 -17 q 286 24 376 -17 q 148 147 196 64 q 100 353 100 229 l 100 953 l 281 953 l 281 358 q 338 192 281 249 q 501 136 396 136 q 666 192 607 136 q 725 358 725 249 l 725 953 l 906 953 l 906 353 q 857 147 906 229 q 718 24 808 64 q 501 -17 628 -17 m 286 1051 l 286 1206 l 438 1206 l 438 1051 l 286 1051 m 568 1051 l 568 1206 l 719 1206 l 719 1051 l 568 1051 m 290 1293 l 290 1408 l 714 1408 l 714 1293 l 290 1293 z "},"Ụ":{"ha":1006,"x_min":100,"x_max":906,"o":"m 501 -17 q 286 24 376 -17 q 148 147 196 64 q 100 353 100 229 l 100 953 l 281 953 l 281 358 q 338 192 281 249 q 501 136 396 136 q 666 192 607 136 q 725 358 725 249 l 725 953 l 906 953 l 906 353 q 857 147 906 229 q 718 24 808 64 q 501 -17 628 -17 m 419 -272 l 419 -111 l 586 -111 l 586 -272 l 419 -272 z "},"Ù":{"ha":1006,"x_min":100,"x_max":906,"o":"m 501 -17 q 286 24 376 -17 q 148 147 196 64 q 100 353 100 229 l 100 953 l 281 953 l 281 358 q 338 192 281 249 q 501 136 396 136 q 666 192 607 136 q 725 358 725 249 l 725 953 l 906 953 l 906 353 q 857 147 906 229 q 718 24 808 64 q 501 -17 628 -17 m 592 1022 l 444 1022 l 294 1201 l 296 1206 l 479 1206 l 592 1022 z "},"Ủ":{"ha":1006,"x_min":100,"x_max":906,"o":"m 501 -17 q 286 24 376 -17 q 148 147 196 64 q 100 353 100 229 l 100 953 l 281 953 l 281 358 q 338 192 281 249 q 501 136 396 136 q 666 192 607 136 q 725 358 725 249 l 725 953 l 906 953 l 906 353 q 857 147 906 229 q 718 24 808 64 q 501 -17 628 -17 m 460 1022 l 460 1100 l 478 1100 q 511 1106 501 1100 q 521 1126 521 1113 q 509 1147 521 1142 q 475 1151 497 1151 l 393 1151 l 393 1211 q 429 1217 410 1215 q 468 1221 449 1219 q 504 1222 488 1222 q 554 1219 528 1222 q 603 1206 581 1215 q 641 1181 626 1197 q 656 1138 656 1164 q 640 1094 656 1111 q 601 1069 625 1078 q 549 1058 576 1061 l 549 1022 l 460 1022 z "},"Ư":{"ha":1006,"x_min":100,"x_max":1082,"o":"m 501 -17 q 286 24 376 -17 q 148 147 196 64 q 100 353 100 229 l 100 953 l 281 953 l 281 358 q 338 192 281 249 q 501 136 396 136 q 666 192 607 136 q 725 358 725 249 l 725 953 l 906 953 l 906 353 q 857 147 906 229 q 718 24 808 64 q 501 -17 628 -17 m 793 864 l 793 953 q 922 982 875 953 q 968 1063 968 1011 l 878 1063 l 878 1240 l 1082 1240 l 1082 1110 q 1047 979 1082 1035 q 947 894 1011 924 q 793 864 882 864 z "},"Ứ":{"ha":1006,"x_min":100,"x_max":1082,"o":"m 501 -17 q 286 24 376 -17 q 148 147 196 64 q 100 353 100 229 l 100 953 l 281 953 l 281 358 q 338 192 281 249 q 501 136 396 136 q 666 192 607 136 q 725 358 725 249 l 725 953 l 906 953 l 906 353 q 857 147 906 229 q 718 24 808 64 q 501 -17 628 -17 m 793 864 l 793 953 q 922 982 875 953 q 968 1063 968 1011 l 878 1063 l 878 1240 l 1082 1240 l 1082 1110 q 1047 979 1082 1035 q 947 894 1011 924 q 793 864 882 864 m 422 1022 l 535 1206 l 718 1206 l 719 1201 l 569 1022 l 422 1022 z "},"Ự":{"ha":1006,"x_min":100,"x_max":1082,"o":"m 501 -17 q 286 24 376 -17 q 148 147 196 64 q 100 353 100 229 l 100 953 l 281 953 l 281 358 q 338 192 281 249 q 501 136 396 136 q 666 192 607 136 q 725 358 725 249 l 725 953 l 906 953 l 906 353 q 857 147 906 229 q 718 24 808 64 q 501 -17 628 -17 m 793 864 l 793 953 q 922 982 875 953 q 968 1063 968 1011 l 878 1063 l 878 1240 l 1082 1240 l 1082 1110 q 1047 979 1082 1035 q 947 894 1011 924 q 793 864 882 864 m 419 -272 l 419 -111 l 586 -111 l 586 -272 l 419 -272 z "},"Ừ":{"ha":1006,"x_min":100,"x_max":1082,"o":"m 501 -17 q 286 24 376 -17 q 148 147 196 64 q 100 353 100 229 l 100 953 l 281 953 l 281 358 q 338 192 281 249 q 501 136 396 136 q 666 192 607 136 q 725 358 725 249 l 725 953 l 906 953 l 906 353 q 857 147 906 229 q 718 24 808 64 q 501 -17 628 -17 m 793 864 l 793 953 q 922 982 875 953 q 968 1063 968 1011 l 878 1063 l 878 1240 l 1082 1240 l 1082 1110 q 1047 979 1082 1035 q 947 894 1011 924 q 793 864 882 864 m 592 1022 l 444 1022 l 294 1201 l 296 1206 l 479 1206 l 592 1022 z "},"Ử":{"ha":1006,"x_min":100,"x_max":1082,"o":"m 501 -17 q 286 24 376 -17 q 148 147 196 64 q 100 353 100 229 l 100 953 l 281 953 l 281 358 q 338 192 281 249 q 501 136 396 136 q 666 192 607 136 q 725 358 725 249 l 725 953 l 906 953 l 906 353 q 857 147 906 229 q 718 24 808 64 q 501 -17 628 -17 m 793 864 l 793 953 q 922 982 875 953 q 968 1063 968 1011 l 878 1063 l 878 1240 l 1082 1240 l 1082 1110 q 1047 979 1082 1035 q 947 894 1011 924 q 793 864 882 864 m 460 1022 l 460 1100 l 478 1100 q 511 1106 501 1100 q 521 1126 521 1113 q 509 1147 521 1142 q 475 1151 497 1151 l 393 1151 l 393 1211 q 429 1217 410 1215 q 468 1221 449 1219 q 504 1222 488 1222 q 554 1219 528 1222 q 603 1206 581 1215 q 641 1181 626 1197 q 656 1138 656 1164 q 640 1094 656 1111 q 601 1069 625 1078 q 549 1058 576 1061 l 549 1022 l 460 1022 z "},"Ữ":{"ha":1006,"x_min":100,"x_max":1082,"o":"m 501 -17 q 286 24 376 -17 q 148 147 196 64 q 100 353 100 229 l 100 953 l 281 953 l 281 358 q 338 192 281 249 q 501 136 396 136 q 666 192 607 136 q 725 358 725 249 l 725 953 l 906 953 l 906 353 q 857 147 906 229 q 718 24 808 64 q 501 -17 628 -17 m 793 864 l 793 953 q 922 982 875 953 q 968 1063 968 1011 l 878 1063 l 878 1240 l 1082 1240 l 1082 1110 q 1047 979 1082 1035 q 947 894 1011 924 q 793 864 882 864 m 271 1050 q 284 1131 271 1094 q 326 1190 297 1168 q 401 1213 356 1213 q 469 1201 438 1213 q 531 1176 500 1189 q 593 1164 561 1164 q 624 1174 613 1164 q 639 1213 636 1185 l 733 1213 q 720 1133 733 1169 q 678 1073 707 1096 q 603 1050 650 1050 q 536 1063 568 1050 q 474 1088 504 1075 q 413 1100 444 1100 q 382 1089 394 1100 q 367 1050 369 1078 l 271 1050 z "},"Ű":{"ha":1006,"x_min":100,"x_max":906,"o":"m 501 -17 q 286 24 376 -17 q 148 147 196 64 q 100 353 100 229 l 100 953 l 281 953 l 281 358 q 338 192 281 249 q 501 136 396 136 q 666 192 607 136 q 725 358 725 249 l 725 953 l 906 953 l 906 353 q 857 147 906 229 q 718 24 808 64 q 501 -17 628 -17 m 553 1022 l 656 1206 l 839 1206 l 840 1201 l 697 1022 l 553 1022 m 297 1022 l 400 1206 l 583 1206 l 585 1201 l 442 1022 l 297 1022 z "},"Ȗ":{"ha":1006,"x_min":100,"x_max":906,"o":"m 501 -17 q 286 24 376 -17 q 148 147 196 64 q 100 353 100 229 l 100 953 l 281 953 l 281 358 q 338 192 281 249 q 501 136 396 136 q 666 192 607 136 q 725 358 725 249 l 725 953 l 906 953 l 906 353 q 857 147 906 229 q 718 24 808 64 q 501 -17 628 -17 m 286 1024 q 308 1108 286 1067 q 377 1178 329 1150 q 504 1206 425 1206 q 632 1178 585 1206 q 700 1108 679 1150 q 721 1024 721 1067 l 608 1024 q 595 1054 606 1039 q 563 1081 585 1069 q 504 1092 540 1092 q 445 1081 468 1092 q 411 1054 422 1069 q 399 1024 400 1039 l 286 1024 z "},"Ū":{"ha":1006,"x_min":100,"x_max":906,"o":"m 501 -17 q 286 24 376 -17 q 148 147 196 64 q 100 353 100 229 l 100 953 l 281 953 l 281 358 q 338 192 281 249 q 501 136 396 136 q 666 192 607 136 q 725 358 725 249 l 725 953 l 906 953 l 906 353 q 857 147 906 229 q 718 24 808 64 q 501 -17 628 -17 m 290 1051 l 290 1167 l 714 1167 l 714 1051 l 290 1051 z "},"Ų":{"ha":1006,"x_min":100,"x_max":906,"o":"m 501 -17 q 286 24 376 -17 q 148 147 196 64 q 100 353 100 229 l 100 953 l 281 953 l 281 358 q 338 192 281 249 q 501 136 396 136 q 666 192 607 136 q 725 358 725 249 l 725 953 l 906 953 l 906 353 q 857 147 906 229 q 718 24 808 64 q 501 -17 628 -17 m 649 -253 q 581 -242 614 -253 q 525 -203 547 -231 q 503 -129 503 -176 q 526 -44 503 -78 q 576 17 549 -10 l 685 17 l 685 11 q 654 -30 671 -3 q 638 -86 638 -57 q 653 -136 638 -114 q 707 -158 669 -158 l 761 -158 l 761 -233 q 704 -248 736 -243 q 649 -253 672 -253 z "},"Ů":{"ha":1006,"x_min":100,"x_max":906,"o":"m 501 -17 q 286 24 376 -17 q 148 147 196 64 q 100 353 100 229 l 100 953 l 281 953 l 281 358 q 338 192 281 249 q 501 136 396 136 q 666 192 607 136 q 725 358 725 249 l 725 953 l 906 953 l 906 353 q 857 147 906 229 q 718 24 808 64 q 501 -17 628 -17 m 503 1013 q 398 1051 439 1013 q 357 1150 357 1090 q 398 1250 357 1211 q 503 1289 439 1289 q 608 1250 567 1289 q 649 1150 649 1211 q 608 1051 649 1090 q 503 1013 567 1013 m 503 1090 q 549 1107 531 1090 q 567 1150 567 1124 q 549 1194 567 1176 q 503 1211 531 1211 q 457 1194 475 1211 q 439 1150 439 1176 q 457 1107 439 1124 q 503 1090 475 1090 z "},"Ũ":{"ha":1006,"x_min":100,"x_max":906,"o":"m 501 -17 q 286 24 376 -17 q 148 147 196 64 q 100 353 100 229 l 100 953 l 281 953 l 281 358 q 338 192 281 249 q 501 136 396 136 q 666 192 607 136 q 725 358 725 249 l 725 953 l 906 953 l 906 353 q 857 147 906 229 q 718 24 808 64 q 501 -17 628 -17 m 271 1050 q 284 1131 271 1094 q 326 1190 297 1168 q 401 1213 356 1213 q 469 1201 438 1213 q 531 1176 500 1189 q 593 1164 561 1164 q 624 1174 613 1164 q 639 1213 636 1185 l 733 1213 q 720 1133 733 1169 q 678 1073 707 1096 q 603 1050 650 1050 q 536 1063 568 1050 q 474 1088 504 1075 q 413 1100 444 1100 q 382 1089 394 1100 q 367 1050 369 1078 l 271 1050 z "},"V":{"ha":932,"x_min":14,"x_max":918,"o":"m 361 0 l 14 953 l 210 953 l 436 297 q 447 265 442 283 q 458 231 453 247 q 468 203 464 215 l 475 203 q 484 229 479 214 q 494 262 489 244 q 506 296 500 279 l 731 953 l 918 953 l 571 0 l 361 0 z "},"W":{"ha":1325,"x_min":14,"x_max":1311,"o":"m 272 0 l 14 953 l 206 953 l 360 340 q 368 302 364 326 q 376 251 372 278 q 383 204 381 225 l 390 204 q 395 240 393 221 q 401 279 397 260 q 407 315 404 299 q 411 340 410 331 l 554 953 l 786 953 l 929 340 q 938 302 933 326 q 946 251 942 278 q 953 204 950 225 l 960 204 q 966 238 963 219 q 973 276 969 257 q 981 311 976 294 q 988 340 985 328 l 1142 953 l 1311 953 l 1051 0 l 844 0 l 690 625 q 681 670 686 644 q 673 722 676 696 q 667 767 669 747 l 661 767 q 656 719 660 746 q 649 667 653 692 q 640 625 644 642 l 488 0 l 272 0 z "},"Ẃ":{"ha":1325,"x_min":14,"x_max":1311,"o":"m 272 0 l 14 953 l 206 953 l 360 340 q 368 302 364 326 q 376 251 372 278 q 383 204 381 225 l 390 204 q 395 240 393 221 q 401 279 397 260 q 407 315 404 299 q 411 340 410 331 l 554 953 l 786 953 l 929 340 q 938 302 933 326 q 946 251 942 278 q 953 204 950 225 l 960 204 q 966 238 963 219 q 973 276 969 257 q 981 311 976 294 q 988 340 985 328 l 1142 953 l 1311 953 l 1051 0 l 844 0 l 690 625 q 681 670 686 644 q 673 722 676 696 q 667 767 669 747 l 661 767 q 656 719 660 746 q 649 667 653 692 q 640 625 644 642 l 488 0 l 272 0 m 585 1022 l 697 1206 l 881 1206 l 882 1201 l 732 1022 l 585 1022 z "},"Ŵ":{"ha":1325,"x_min":14,"x_max":1311,"o":"m 272 0 l 14 953 l 206 953 l 360 340 q 368 302 364 326 q 376 251 372 278 q 383 204 381 225 l 390 204 q 395 240 393 221 q 401 279 397 260 q 407 315 404 299 q 411 340 410 331 l 554 953 l 786 953 l 929 340 q 938 302 933 326 q 946 251 942 278 q 953 204 950 225 l 960 204 q 966 238 963 219 q 973 276 969 257 q 981 311 976 294 q 988 340 985 328 l 1142 953 l 1311 953 l 1051 0 l 844 0 l 690 625 q 681 670 686 644 q 673 722 676 696 q 667 767 669 747 l 661 767 q 656 719 660 746 q 649 667 653 692 q 640 625 644 642 l 488 0 l 272 0 m 432 1022 l 579 1206 l 751 1206 l 897 1022 l 743 1022 l 626 1168 l 704 1167 l 586 1022 l 432 1022 z "},"Ẅ":{"ha":1325,"x_min":14,"x_max":1311,"o":"m 272 0 l 14 953 l 206 953 l 360 340 q 368 302 364 326 q 376 251 372 278 q 383 204 381 225 l 390 204 q 395 240 393 221 q 401 279 397 260 q 407 315 404 299 q 411 340 410 331 l 554 953 l 786 953 l 929 340 q 938 302 933 326 q 946 251 942 278 q 953 204 950 225 l 960 204 q 966 238 963 219 q 973 276 969 257 q 981 311 976 294 q 988 340 985 328 l 1142 953 l 1311 953 l 1051 0 l 844 0 l 690 625 q 681 670 686 644 q 673 722 676 696 q 667 767 669 747 l 661 767 q 656 719 660 746 q 649 667 653 692 q 640 625 644 642 l 488 0 l 272 0 m 449 1051 l 449 1206 l 600 1206 l 600 1051 l 449 1051 m 731 1051 l 731 1206 l 882 1206 l 882 1051 l 731 1051 z "},"Ẁ":{"ha":1325,"x_min":14,"x_max":1311,"o":"m 272 0 l 14 953 l 206 953 l 360 340 q 368 302 364 326 q 376 251 372 278 q 383 204 381 225 l 390 204 q 395 240 393 221 q 401 279 397 260 q 407 315 404 299 q 411 340 410 331 l 554 953 l 786 953 l 929 340 q 938 302 933 326 q 946 251 942 278 q 953 204 950 225 l 960 204 q 966 238 963 219 q 973 276 969 257 q 981 311 976 294 q 988 340 985 328 l 1142 953 l 1311 953 l 1051 0 l 844 0 l 690 625 q 681 670 686 644 q 673 722 676 696 q 667 767 669 747 l 661 767 q 656 719 660 746 q 649 667 653 692 q 640 625 644 642 l 488 0 l 272 0 m 754 1022 l 607 1022 l 457 1201 l 458 1206 l 642 1206 l 754 1022 z "},"X":{"ha":953,"x_min":15,"x_max":938,"o":"m 15 0 l 358 500 l 47 953 l 268 953 l 479 635 l 486 635 l 697 953 l 904 953 l 593 501 l 938 0 l 718 0 l 474 368 l 465 368 l 224 0 l 15 0 z "},"Y":{"ha":940,"x_min":14,"x_max":926,"o":"m 381 0 l 381 388 l 14 953 l 222 953 l 474 550 l 481 550 l 729 953 l 926 953 l 561 388 l 561 0 l 381 0 z "},"Ý":{"ha":940,"x_min":14,"x_max":926,"o":"m 381 0 l 381 388 l 14 953 l 222 953 l 474 550 l 481 550 l 729 953 l 926 953 l 561 388 l 561 0 l 381 0 m 390 1022 l 503 1206 l 686 1206 l 688 1201 l 538 1022 l 390 1022 z "},"Ŷ":{"ha":940,"x_min":14,"x_max":926,"o":"m 381 0 l 381 388 l 14 953 l 222 953 l 474 550 l 481 550 l 729 953 l 926 953 l 561 388 l 561 0 l 381 0 m 238 1022 l 385 1206 l 557 1206 l 703 1022 l 549 1022 l 432 1168 l 510 1167 l 392 1022 l 238 1022 z "},"Ÿ":{"ha":940,"x_min":14,"x_max":926,"o":"m 381 0 l 381 388 l 14 953 l 222 953 l 474 550 l 481 550 l 729 953 l 926 953 l 561 388 l 561 0 l 381 0 m 254 1051 l 254 1206 l 406 1206 l 406 1051 l 254 1051 m 536 1051 l 536 1206 l 688 1206 l 688 1051 l 536 1051 z "},"Ỵ":{"ha":940,"x_min":14,"x_max":926,"o":"m 381 0 l 381 388 l 14 953 l 222 953 l 474 550 l 481 550 l 729 953 l 926 953 l 561 388 l 561 0 l 381 0 m 388 -272 l 388 -111 l 554 -111 l 554 -272 l 388 -272 z "},"Ỳ":{"ha":940,"x_min":14,"x_max":926,"o":"m 381 0 l 381 388 l 14 953 l 222 953 l 474 550 l 481 550 l 729 953 l 926 953 l 561 388 l 561 0 l 381 0 m 560 1022 l 413 1022 l 263 1201 l 264 1206 l 447 1206 l 560 1022 z "},"Ỷ":{"ha":940,"x_min":14,"x_max":926,"o":"m 381 0 l 381 388 l 14 953 l 222 953 l 474 550 l 481 550 l 729 953 l 926 953 l 561 388 l 561 0 l 381 0 m 428 1022 l 428 1100 l 446 1100 q 479 1106 469 1100 q 489 1126 489 1113 q 477 1147 489 1142 q 443 1151 465 1151 l 361 1151 l 361 1211 q 397 1217 378 1215 q 436 1221 417 1219 q 472 1222 456 1222 q 522 1219 496 1222 q 572 1206 549 1215 q 609 1181 594 1197 q 624 1138 624 1164 q 608 1094 624 1111 q 569 1069 593 1078 q 517 1058 544 1061 l 517 1022 l 428 1022 z "},"Ȳ":{"ha":940,"x_min":14,"x_max":926,"o":"m 381 0 l 381 388 l 14 953 l 222 953 l 474 550 l 481 550 l 729 953 l 926 953 l 561 388 l 561 0 l 381 0 m 258 1051 l 258 1167 l 682 1167 l 682 1051 l 258 1051 z "},"Ỹ":{"ha":940,"x_min":14,"x_max":926,"o":"m 381 0 l 381 388 l 14 953 l 222 953 l 474 550 l 481 550 l 729 953 l 926 953 l 561 388 l 561 0 l 381 0 m 239 1050 q 252 1131 239 1094 q 294 1190 265 1168 q 369 1213 324 1213 q 437 1201 406 1213 q 499 1176 468 1189 q 561 1164 529 1164 q 592 1174 581 1164 q 607 1213 604 1185 l 701 1213 q 688 1133 701 1169 q 647 1073 675 1096 q 571 1050 618 1050 q 504 1063 536 1050 q 442 1088 472 1075 q 381 1100 413 1100 q 350 1089 363 1100 q 335 1050 338 1078 l 239 1050 z "},"Z":{"ha":881,"x_min":40,"x_max":829,"o":"m 40 0 l 40 86 l 549 799 l 76 799 l 76 953 l 817 953 l 817 865 l 308 154 l 829 154 l 829 0 l 40 0 z "},"Ź":{"ha":881,"x_min":40,"x_max":829,"o":"m 40 0 l 40 86 l 549 799 l 76 799 l 76 953 l 817 953 l 817 865 l 308 154 l 829 154 l 829 0 l 40 0 m 360 1022 l 472 1206 l 656 1206 l 657 1201 l 507 1022 l 360 1022 z "},"Ž":{"ha":881,"x_min":40,"x_max":829,"o":"m 40 0 l 40 86 l 549 799 l 76 799 l 76 953 l 817 953 l 817 865 l 308 154 l 829 154 l 829 0 l 40 0 m 207 1206 l 361 1206 l 479 1061 l 401 1060 l 518 1206 l 672 1206 l 526 1022 l 354 1022 l 207 1206 z "},"Ż":{"ha":881,"x_min":40,"x_max":829,"o":"m 40 0 l 40 86 l 549 799 l 76 799 l 76 953 l 817 953 l 817 865 l 308 154 l 829 154 l 829 0 l 40 0 m 357 1051 l 357 1218 l 524 1218 l 524 1051 l 357 1051 z "},"a":{"ha":772,"x_min":47,"x_max":765,"o":"m 278 -17 q 208 -9 247 -17 q 131 19 168 -1 q 71 81 94 40 q 47 189 47 122 q 81 313 47 264 q 174 391 114 363 q 319 431 235 419 q 503 443 403 443 l 503 503 q 493 560 503 535 q 458 599 483 585 q 381 614 432 614 q 300 601 329 614 q 260 571 271 589 q 249 533 249 553 l 249 514 l 85 514 q 83 528 83 521 q 83 544 83 535 q 121 653 83 607 q 225 723 158 699 q 379 747 292 747 q 544 719 479 747 q 640 640 608 692 q 672 515 672 589 l 672 171 q 688 133 672 144 q 721 122 703 122 l 765 122 l 765 6 q 725 -8 751 0 q 660 -15 699 -15 q 595 -3 624 -15 q 547 31 567 8 q 519 83 528 53 l 511 83 q 455 31 488 54 q 378 -4 422 8 q 278 -17 335 -17 m 329 122 q 403 135 371 122 q 458 169 436 147 q 491 224 479 192 q 503 293 503 256 l 503 326 q 362 317 426 326 q 259 281 297 307 q 221 206 221 254 q 233 162 221 181 q 269 133 244 143 q 329 122 293 122 z "},"á":{"ha":772,"x_min":47,"x_max":765,"o":"m 278 -17 q 208 -9 247 -17 q 131 19 168 -1 q 71 81 94 40 q 47 189 47 122 q 81 313 47 264 q 174 391 114 363 q 319 431 235 419 q 503 443 403 443 l 503 503 q 493 560 503 535 q 458 599 483 585 q 381 614 432 614 q 300 601 329 614 q 260 571 271 589 q 249 533 249 553 l 249 514 l 85 514 q 83 528 83 521 q 83 544 83 535 q 121 653 83 607 q 225 723 158 699 q 379 747 292 747 q 544 719 479 747 q 640 640 608 692 q 672 515 672 589 l 672 171 q 688 133 672 144 q 721 122 703 122 l 765 122 l 765 6 q 725 -8 751 0 q 660 -15 699 -15 q 595 -3 624 -15 q 547 31 567 8 q 519 83 528 53 l 511 83 q 455 31 488 54 q 378 -4 422 8 q 278 -17 335 -17 m 329 122 q 403 135 371 122 q 458 169 436 147 q 491 224 479 192 q 503 293 503 256 l 503 326 q 362 317 426 326 q 259 281 297 307 q 221 206 221 254 q 233 162 221 181 q 269 133 244 143 q 329 122 293 122 m 289 821 l 401 1004 l 578 1004 l 579 1000 l 429 821 l 289 821 z "},"ă":{"ha":772,"x_min":47,"x_max":765,"o":"m 278 -17 q 208 -9 247 -17 q 131 19 168 -1 q 71 81 94 40 q 47 189 47 122 q 81 313 47 264 q 174 391 114 363 q 319 431 235 419 q 503 443 403 443 l 503 503 q 493 560 503 535 q 458 599 483 585 q 381 614 432 614 q 300 601 329 614 q 260 571 271 589 q 249 533 249 553 l 249 514 l 85 514 q 83 528 83 521 q 83 544 83 535 q 121 653 83 607 q 225 723 158 699 q 379 747 292 747 q 544 719 479 747 q 640 640 608 692 q 672 515 672 589 l 672 171 q 688 133 672 144 q 721 122 703 122 l 765 122 l 765 6 q 725 -8 751 0 q 660 -15 699 -15 q 595 -3 624 -15 q 547 31 567 8 q 519 83 528 53 l 511 83 q 455 31 488 54 q 378 -4 422 8 q 278 -17 335 -17 m 329 122 q 403 135 371 122 q 458 169 436 147 q 491 224 479 192 q 503 293 503 256 l 503 326 q 362 317 426 326 q 259 281 297 307 q 221 206 221 254 q 233 162 221 181 q 269 133 244 143 q 329 122 293 122 m 378 822 q 251 850 299 822 q 182 920 203 878 q 161 1004 161 963 l 274 1004 q 288 974 276 990 q 320 946 299 957 q 378 935 342 935 q 437 946 414 935 q 471 974 460 957 q 483 1004 482 990 l 596 1004 q 574 920 596 963 q 506 850 553 878 q 378 822 458 822 z "},"ắ":{"ha":772,"x_min":47,"x_max":765,"o":"m 278 -17 q 208 -9 247 -17 q 131 19 168 -1 q 71 81 94 40 q 47 189 47 122 q 81 313 47 264 q 174 391 114 363 q 319 431 235 419 q 503 443 403 443 l 503 503 q 493 560 503 535 q 458 599 483 585 q 381 614 432 614 q 300 601 329 614 q 260 571 271 589 q 249 533 249 553 l 249 514 l 85 514 q 83 528 83 521 q 83 544 83 535 q 121 653 83 607 q 225 723 158 699 q 379 747 292 747 q 544 719 479 747 q 640 640 608 692 q 672 515 672 589 l 672 171 q 688 133 672 144 q 721 122 703 122 l 765 122 l 765 6 q 725 -8 751 0 q 660 -15 699 -15 q 595 -3 624 -15 q 547 31 567 8 q 519 83 528 53 l 511 83 q 455 31 488 54 q 378 -4 422 8 q 278 -17 335 -17 m 329 122 q 403 135 371 122 q 458 169 436 147 q 491 224 479 192 q 503 293 503 256 l 503 326 q 362 317 426 326 q 259 281 297 307 q 221 206 221 254 q 233 162 221 181 q 269 133 244 143 q 329 122 293 122 m 378 822 q 251 850 299 822 q 182 920 203 878 q 161 1004 161 963 l 274 1004 q 288 974 276 990 q 320 946 299 957 q 378 935 342 935 q 437 946 414 935 q 471 974 460 957 q 483 1004 482 990 l 596 1004 q 574 920 596 963 q 506 850 553 878 q 378 822 458 822 m 289 1076 l 401 1260 l 578 1260 l 579 1256 l 429 1076 l 289 1076 z "},"ặ":{"ha":772,"x_min":47,"x_max":765,"o":"m 278 -17 q 208 -9 247 -17 q 131 19 168 -1 q 71 81 94 40 q 47 189 47 122 q 81 313 47 264 q 174 391 114 363 q 319 431 235 419 q 503 443 403 443 l 503 503 q 493 560 503 535 q 458 599 483 585 q 381 614 432 614 q 300 601 329 614 q 260 571 271 589 q 249 533 249 553 l 249 514 l 85 514 q 83 528 83 521 q 83 544 83 535 q 121 653 83 607 q 225 723 158 699 q 379 747 292 747 q 544 719 479 747 q 640 640 608 692 q 672 515 672 589 l 672 171 q 688 133 672 144 q 721 122 703 122 l 765 122 l 765 6 q 725 -8 751 0 q 660 -15 699 -15 q 595 -3 624 -15 q 547 31 567 8 q 519 83 528 53 l 511 83 q 455 31 488 54 q 378 -4 422 8 q 278 -17 335 -17 m 329 122 q 403 135 371 122 q 458 169 436 147 q 491 224 479 192 q 503 293 503 256 l 503 326 q 362 317 426 326 q 259 281 297 307 q 221 206 221 254 q 233 162 221 181 q 269 133 244 143 q 329 122 293 122 m 296 -272 l 296 -111 l 463 -111 l 463 -272 l 296 -272 m 378 822 q 251 850 299 822 q 182 920 203 878 q 161 1004 161 963 l 274 1004 q 288 974 276 990 q 320 946 299 957 q 378 935 342 935 q 437 946 414 935 q 471 974 460 957 q 483 1004 482 990 l 596 1004 q 574 920 596 963 q 506 850 553 878 q 378 822 458 822 z "},"ằ":{"ha":772,"x_min":47,"x_max":765,"o":"m 278 -17 q 208 -9 247 -17 q 131 19 168 -1 q 71 81 94 40 q 47 189 47 122 q 81 313 47 264 q 174 391 114 363 q 319 431 235 419 q 503 443 403 443 l 503 503 q 493 560 503 535 q 458 599 483 585 q 381 614 432 614 q 300 601 329 614 q 260 571 271 589 q 249 533 249 553 l 249 514 l 85 514 q 83 528 83 521 q 83 544 83 535 q 121 653 83 607 q 225 723 158 699 q 379 747 292 747 q 544 719 479 747 q 640 640 608 692 q 672 515 672 589 l 672 171 q 688 133 672 144 q 721 122 703 122 l 765 122 l 765 6 q 725 -8 751 0 q 660 -15 699 -15 q 595 -3 624 -15 q 547 31 567 8 q 519 83 528 53 l 511 83 q 455 31 488 54 q 378 -4 422 8 q 278 -17 335 -17 m 329 122 q 403 135 371 122 q 458 169 436 147 q 491 224 479 192 q 503 293 503 256 l 503 326 q 362 317 426 326 q 259 281 297 307 q 221 206 221 254 q 233 162 221 181 q 269 133 244 143 q 329 122 293 122 m 378 822 q 251 850 299 822 q 182 920 203 878 q 161 1004 161 963 l 274 1004 q 288 974 276 990 q 320 946 299 957 q 378 935 342 935 q 437 946 414 935 q 471 974 460 957 q 483 1004 482 990 l 596 1004 q 574 920 596 963 q 506 850 553 878 q 378 822 458 822 m 474 1076 l 333 1076 l 183 1256 l 185 1260 l 361 1260 l 474 1076 z "},"ẳ":{"ha":772,"x_min":47,"x_max":765,"o":"m 278 -17 q 208 -9 247 -17 q 131 19 168 -1 q 71 81 94 40 q 47 189 47 122 q 81 313 47 264 q 174 391 114 363 q 319 431 235 419 q 503 443 403 443 l 503 503 q 493 560 503 535 q 458 599 483 585 q 381 614 432 614 q 300 601 329 614 q 260 571 271 589 q 249 533 249 553 l 249 514 l 85 514 q 83 528 83 521 q 83 544 83 535 q 121 653 83 607 q 225 723 158 699 q 379 747 292 747 q 544 719 479 747 q 640 640 608 692 q 672 515 672 589 l 672 171 q 688 133 672 144 q 721 122 703 122 l 765 122 l 765 6 q 725 -8 751 0 q 660 -15 699 -15 q 595 -3 624 -15 q 547 31 567 8 q 519 83 528 53 l 511 83 q 455 31 488 54 q 378 -4 422 8 q 278 -17 335 -17 m 329 122 q 403 135 371 122 q 458 169 436 147 q 491 224 479 192 q 503 293 503 256 l 503 326 q 362 317 426 326 q 259 281 297 307 q 221 206 221 254 q 233 162 221 181 q 269 133 244 143 q 329 122 293 122 m 378 822 q 251 850 299 822 q 182 920 203 878 q 161 1004 161 963 l 274 1004 q 288 974 276 990 q 320 946 299 957 q 378 935 342 935 q 437 946 414 935 q 471 974 460 957 q 483 1004 482 990 l 596 1004 q 574 920 596 963 q 506 850 553 878 q 378 822 458 822 m 338 1076 l 338 1154 l 356 1154 q 389 1160 379 1154 q 399 1181 399 1167 q 387 1201 399 1196 q 353 1206 375 1206 l 271 1206 l 271 1265 q 307 1272 288 1269 q 346 1275 326 1274 q 382 1276 365 1276 q 432 1273 406 1276 q 481 1260 458 1269 q 519 1235 504 1251 q 533 1192 533 1218 q 518 1149 533 1165 q 478 1124 503 1132 q 426 1113 454 1115 l 426 1076 l 338 1076 z "},"ẵ":{"ha":772,"x_min":47,"x_max":765,"o":"m 278 -17 q 208 -9 247 -17 q 131 19 168 -1 q 71 81 94 40 q 47 189 47 122 q 81 313 47 264 q 174 391 114 363 q 319 431 235 419 q 503 443 403 443 l 503 503 q 493 560 503 535 q 458 599 483 585 q 381 614 432 614 q 300 601 329 614 q 260 571 271 589 q 249 533 249 553 l 249 514 l 85 514 q 83 528 83 521 q 83 544 83 535 q 121 653 83 607 q 225 723 158 699 q 379 747 292 747 q 544 719 479 747 q 640 640 608 692 q 672 515 672 589 l 672 171 q 688 133 672 144 q 721 122 703 122 l 765 122 l 765 6 q 725 -8 751 0 q 660 -15 699 -15 q 595 -3 624 -15 q 547 31 567 8 q 519 83 528 53 l 511 83 q 455 31 488 54 q 378 -4 422 8 q 278 -17 335 -17 m 329 122 q 403 135 371 122 q 458 169 436 147 q 491 224 479 192 q 503 293 503 256 l 503 326 q 362 317 426 326 q 259 281 297 307 q 221 206 221 254 q 233 162 221 181 q 269 133 244 143 q 329 122 293 122 m 378 822 q 251 850 299 822 q 182 920 203 878 q 161 1004 161 963 l 274 1004 q 288 974 276 990 q 320 946 299 957 q 378 935 342 935 q 437 946 414 935 q 471 974 460 957 q 483 1004 482 990 l 596 1004 q 574 920 596 963 q 506 850 553 878 q 378 822 458 822 m 147 1097 q 160 1178 147 1142 q 203 1238 174 1215 q 278 1260 232 1260 q 345 1248 314 1260 q 407 1224 376 1236 q 469 1211 438 1211 q 501 1222 489 1211 q 515 1260 513 1232 l 610 1260 q 597 1180 610 1217 q 555 1120 583 1143 q 479 1097 526 1097 q 413 1110 444 1097 q 351 1135 381 1122 q 289 1147 321 1147 q 258 1136 271 1147 q 243 1097 246 1125 l 147 1097 z "},"ǎ":{"ha":772,"x_min":47,"x_max":765,"o":"m 278 -17 q 208 -9 247 -17 q 131 19 168 -1 q 71 81 94 40 q 47 189 47 122 q 81 313 47 264 q 174 391 114 363 q 319 431 235 419 q 503 443 403 443 l 503 503 q 493 560 503 535 q 458 599 483 585 q 381 614 432 614 q 300 601 329 614 q 260 571 271 589 q 249 533 249 553 l 249 514 l 85 514 q 83 528 83 521 q 83 544 83 535 q 121 653 83 607 q 225 723 158 699 q 379 747 292 747 q 544 719 479 747 q 640 640 608 692 q 672 515 672 589 l 672 171 q 688 133 672 144 q 721 122 703 122 l 765 122 l 765 6 q 725 -8 751 0 q 660 -15 699 -15 q 595 -3 624 -15 q 547 31 567 8 q 519 83 528 53 l 511 83 q 455 31 488 54 q 378 -4 422 8 q 278 -17 335 -17 m 329 122 q 403 135 371 122 q 458 169 436 147 q 491 224 479 192 q 503 293 503 256 l 503 326 q 362 317 426 326 q 259 281 297 307 q 221 206 221 254 q 233 162 221 181 q 269 133 244 143 q 329 122 293 122 m 153 1004 l 300 1004 l 418 860 l 340 858 l 457 1004 l 604 1004 l 458 821 l 300 821 l 153 1004 z "},"â":{"ha":772,"x_min":47,"x_max":765,"o":"m 278 -17 q 208 -9 247 -17 q 131 19 168 -1 q 71 81 94 40 q 47 189 47 122 q 81 313 47 264 q 174 391 114 363 q 319 431 235 419 q 503 443 403 443 l 503 503 q 493 560 503 535 q 458 599 483 585 q 381 614 432 614 q 300 601 329 614 q 260 571 271 589 q 249 533 249 553 l 249 514 l 85 514 q 83 528 83 521 q 83 544 83 535 q 121 653 83 607 q 225 723 158 699 q 379 747 292 747 q 544 719 479 747 q 640 640 608 692 q 672 515 672 589 l 672 171 q 688 133 672 144 q 721 122 703 122 l 765 122 l 765 6 q 725 -8 751 0 q 660 -15 699 -15 q 595 -3 624 -15 q 547 31 567 8 q 519 83 528 53 l 511 83 q 455 31 488 54 q 378 -4 422 8 q 278 -17 335 -17 m 329 122 q 403 135 371 122 q 458 169 436 147 q 491 224 479 192 q 503 293 503 256 l 503 326 q 362 317 426 326 q 259 281 297 307 q 221 206 221 254 q 233 162 221 181 q 269 133 244 143 q 329 122 293 122 m 153 821 l 300 1004 l 458 1004 l 604 821 l 457 821 l 340 967 l 418 965 l 300 821 l 153 821 z "},"ấ":{"ha":772,"x_min":47,"x_max":765,"o":"m 278 -17 q 208 -9 247 -17 q 131 19 168 -1 q 71 81 94 40 q 47 189 47 122 q 81 313 47 264 q 174 391 114 363 q 319 431 235 419 q 503 443 403 443 l 503 503 q 493 560 503 535 q 458 599 483 585 q 381 614 432 614 q 300 601 329 614 q 260 571 271 589 q 249 533 249 553 l 249 514 l 85 514 q 83 528 83 521 q 83 544 83 535 q 121 653 83 607 q 225 723 158 699 q 379 747 292 747 q 544 719 479 747 q 640 640 608 692 q 672 515 672 589 l 672 171 q 688 133 672 144 q 721 122 703 122 l 765 122 l 765 6 q 725 -8 751 0 q 660 -15 699 -15 q 595 -3 624 -15 q 547 31 567 8 q 519 83 528 53 l 511 83 q 455 31 488 54 q 378 -4 422 8 q 278 -17 335 -17 m 329 122 q 403 135 371 122 q 458 169 436 147 q 491 224 479 192 q 503 293 503 256 l 503 326 q 362 317 426 326 q 259 281 297 307 q 221 206 221 254 q 233 162 221 181 q 269 133 244 143 q 329 122 293 122 m 153 821 l 300 1004 l 458 1004 l 604 821 l 457 821 l 340 967 l 418 965 l 300 821 l 153 821 m 289 1076 l 401 1260 l 578 1260 l 579 1256 l 429 1076 l 289 1076 z "},"ậ":{"ha":772,"x_min":47,"x_max":765,"o":"m 278 -17 q 208 -9 247 -17 q 131 19 168 -1 q 71 81 94 40 q 47 189 47 122 q 81 313 47 264 q 174 391 114 363 q 319 431 235 419 q 503 443 403 443 l 503 503 q 493 560 503 535 q 458 599 483 585 q 381 614 432 614 q 300 601 329 614 q 260 571 271 589 q 249 533 249 553 l 249 514 l 85 514 q 83 528 83 521 q 83 544 83 535 q 121 653 83 607 q 225 723 158 699 q 379 747 292 747 q 544 719 479 747 q 640 640 608 692 q 672 515 672 589 l 672 171 q 688 133 672 144 q 721 122 703 122 l 765 122 l 765 6 q 725 -8 751 0 q 660 -15 699 -15 q 595 -3 624 -15 q 547 31 567 8 q 519 83 528 53 l 511 83 q 455 31 488 54 q 378 -4 422 8 q 278 -17 335 -17 m 329 122 q 403 135 371 122 q 458 169 436 147 q 491 224 479 192 q 503 293 503 256 l 503 326 q 362 317 426 326 q 259 281 297 307 q 221 206 221 254 q 233 162 221 181 q 269 133 244 143 q 329 122 293 122 m 296 -272 l 296 -111 l 463 -111 l 463 -272 l 296 -272 m 153 821 l 300 1004 l 458 1004 l 604 821 l 457 821 l 340 967 l 418 965 l 300 821 l 153 821 z "},"ầ":{"ha":772,"x_min":47,"x_max":765,"o":"m 278 -17 q 208 -9 247 -17 q 131 19 168 -1 q 71 81 94 40 q 47 189 47 122 q 81 313 47 264 q 174 391 114 363 q 319 431 235 419 q 503 443 403 443 l 503 503 q 493 560 503 535 q 458 599 483 585 q 381 614 432 614 q 300 601 329 614 q 260 571 271 589 q 249 533 249 553 l 249 514 l 85 514 q 83 528 83 521 q 83 544 83 535 q 121 653 83 607 q 225 723 158 699 q 379 747 292 747 q 544 719 479 747 q 640 640 608 692 q 672 515 672 589 l 672 171 q 688 133 672 144 q 721 122 703 122 l 765 122 l 765 6 q 725 -8 751 0 q 660 -15 699 -15 q 595 -3 624 -15 q 547 31 567 8 q 519 83 528 53 l 511 83 q 455 31 488 54 q 378 -4 422 8 q 278 -17 335 -17 m 329 122 q 403 135 371 122 q 458 169 436 147 q 491 224 479 192 q 503 293 503 256 l 503 326 q 362 317 426 326 q 259 281 297 307 q 221 206 221 254 q 233 162 221 181 q 269 133 244 143 q 329 122 293 122 m 153 821 l 300 1004 l 458 1004 l 604 821 l 457 821 l 340 967 l 418 965 l 300 821 l 153 821 m 474 1076 l 333 1076 l 183 1256 l 185 1260 l 361 1260 l 474 1076 z "},"ẩ":{"ha":772,"x_min":47,"x_max":765,"o":"m 278 -17 q 208 -9 247 -17 q 131 19 168 -1 q 71 81 94 40 q 47 189 47 122 q 81 313 47 264 q 174 391 114 363 q 319 431 235 419 q 503 443 403 443 l 503 503 q 493 560 503 535 q 458 599 483 585 q 381 614 432 614 q 300 601 329 614 q 260 571 271 589 q 249 533 249 553 l 249 514 l 85 514 q 83 528 83 521 q 83 544 83 535 q 121 653 83 607 q 225 723 158 699 q 379 747 292 747 q 544 719 479 747 q 640 640 608 692 q 672 515 672 589 l 672 171 q 688 133 672 144 q 721 122 703 122 l 765 122 l 765 6 q 725 -8 751 0 q 660 -15 699 -15 q 595 -3 624 -15 q 547 31 567 8 q 519 83 528 53 l 511 83 q 455 31 488 54 q 378 -4 422 8 q 278 -17 335 -17 m 329 122 q 403 135 371 122 q 458 169 436 147 q 491 224 479 192 q 503 293 503 256 l 503 326 q 362 317 426 326 q 259 281 297 307 q 221 206 221 254 q 233 162 221 181 q 269 133 244 143 q 329 122 293 122 m 153 821 l 300 1004 l 458 1004 l 604 821 l 457 821 l 340 967 l 418 965 l 300 821 l 153 821 m 338 1076 l 338 1154 l 356 1154 q 389 1160 379 1154 q 399 1181 399 1167 q 387 1201 399 1196 q 353 1206 375 1206 l 271 1206 l 271 1265 q 307 1272 288 1269 q 346 1275 326 1274 q 382 1276 365 1276 q 432 1273 406 1276 q 481 1260 458 1269 q 519 1235 504 1251 q 533 1192 533 1218 q 518 1149 533 1165 q 478 1124 503 1132 q 426 1113 454 1115 l 426 1076 l 338 1076 z "},"ẫ":{"ha":772,"x_min":47,"x_max":765,"o":"m 278 -17 q 208 -9 247 -17 q 131 19 168 -1 q 71 81 94 40 q 47 189 47 122 q 81 313 47 264 q 174 391 114 363 q 319 431 235 419 q 503 443 403 443 l 503 503 q 493 560 503 535 q 458 599 483 585 q 381 614 432 614 q 300 601 329 614 q 260 571 271 589 q 249 533 249 553 l 249 514 l 85 514 q 83 528 83 521 q 83 544 83 535 q 121 653 83 607 q 225 723 158 699 q 379 747 292 747 q 544 719 479 747 q 640 640 608 692 q 672 515 672 589 l 672 171 q 688 133 672 144 q 721 122 703 122 l 765 122 l 765 6 q 725 -8 751 0 q 660 -15 699 -15 q 595 -3 624 -15 q 547 31 567 8 q 519 83 528 53 l 511 83 q 455 31 488 54 q 378 -4 422 8 q 278 -17 335 -17 m 329 122 q 403 135 371 122 q 458 169 436 147 q 491 224 479 192 q 503 293 503 256 l 503 326 q 362 317 426 326 q 259 281 297 307 q 221 206 221 254 q 233 162 221 181 q 269 133 244 143 q 329 122 293 122 m 153 821 l 300 1004 l 458 1004 l 604 821 l 457 821 l 340 967 l 418 965 l 300 821 l 153 821 m 147 1097 q 160 1178 147 1142 q 203 1238 174 1215 q 278 1260 232 1260 q 345 1248 314 1260 q 407 1224 376 1236 q 469 1211 438 1211 q 501 1222 489 1211 q 515 1260 513 1232 l 610 1260 q 597 1180 610 1217 q 555 1120 583 1143 q 479 1097 526 1097 q 413 1110 444 1097 q 351 1135 381 1122 q 289 1147 321 1147 q 258 1136 271 1147 q 243 1097 246 1125 l 147 1097 z "},"ȁ":{"ha":772,"x_min":47,"x_max":765,"o":"m 278 -17 q 208 -9 247 -17 q 131 19 168 -1 q 71 81 94 40 q 47 189 47 122 q 81 313 47 264 q 174 391 114 363 q 319 431 235 419 q 503 443 403 443 l 503 503 q 493 560 503 535 q 458 599 483 585 q 381 614 432 614 q 300 601 329 614 q 260 571 271 589 q 249 533 249 553 l 249 514 l 85 514 q 83 528 83 521 q 83 544 83 535 q 121 653 83 607 q 225 723 158 699 q 379 747 292 747 q 544 719 479 747 q 640 640 608 692 q 672 515 672 589 l 672 171 q 688 133 672 144 q 721 122 703 122 l 765 122 l 765 6 q 725 -8 751 0 q 660 -15 699 -15 q 595 -3 624 -15 q 547 31 567 8 q 519 83 528 53 l 511 83 q 455 31 488 54 q 378 -4 422 8 q 278 -17 335 -17 m 329 122 q 403 135 371 122 q 458 169 436 147 q 491 224 479 192 q 503 293 503 256 l 503 326 q 362 317 426 326 q 259 281 297 307 q 221 206 221 254 q 233 162 221 181 q 269 133 244 143 q 329 122 293 122 m 444 821 l 304 1000 l 306 1004 l 475 1004 l 578 821 l 444 821 m 217 821 l 76 1000 l 78 1004 l 247 1004 l 350 821 l 217 821 z "},"ä":{"ha":772,"x_min":47,"x_max":765,"o":"m 278 -17 q 208 -9 247 -17 q 131 19 168 -1 q 71 81 94 40 q 47 189 47 122 q 81 313 47 264 q 174 391 114 363 q 319 431 235 419 q 503 443 403 443 l 503 503 q 493 560 503 535 q 458 599 483 585 q 381 614 432 614 q 300 601 329 614 q 260 571 271 589 q 249 533 249 553 l 249 514 l 85 514 q 83 528 83 521 q 83 544 83 535 q 121 653 83 607 q 225 723 158 699 q 379 747 292 747 q 544 719 479 747 q 640 640 608 692 q 672 515 672 589 l 672 171 q 688 133 672 144 q 721 122 703 122 l 765 122 l 765 6 q 725 -8 751 0 q 660 -15 699 -15 q 595 -3 624 -15 q 547 31 567 8 q 519 83 528 53 l 511 83 q 455 31 488 54 q 378 -4 422 8 q 278 -17 335 -17 m 329 122 q 403 135 371 122 q 458 169 436 147 q 491 224 479 192 q 503 293 503 256 l 503 326 q 362 317 426 326 q 259 281 297 307 q 221 206 221 254 q 233 162 221 181 q 269 133 244 143 q 329 122 293 122 m 161 850 l 161 1004 l 313 1004 l 313 850 l 161 850 m 443 850 l 443 1004 l 596 1004 l 596 850 l 443 850 z "},"ạ":{"ha":772,"x_min":47,"x_max":765,"o":"m 278 -17 q 208 -9 247 -17 q 131 19 168 -1 q 71 81 94 40 q 47 189 47 122 q 81 313 47 264 q 174 391 114 363 q 319 431 235 419 q 503 443 403 443 l 503 503 q 493 560 503 535 q 458 599 483 585 q 381 614 432 614 q 300 601 329 614 q 260 571 271 589 q 249 533 249 553 l 249 514 l 85 514 q 83 528 83 521 q 83 544 83 535 q 121 653 83 607 q 225 723 158 699 q 379 747 292 747 q 544 719 479 747 q 640 640 608 692 q 672 515 672 589 l 672 171 q 688 133 672 144 q 721 122 703 122 l 765 122 l 765 6 q 725 -8 751 0 q 660 -15 699 -15 q 595 -3 624 -15 q 547 31 567 8 q 519 83 528 53 l 511 83 q 455 31 488 54 q 378 -4 422 8 q 278 -17 335 -17 m 329 122 q 403 135 371 122 q 458 169 436 147 q 491 224 479 192 q 503 293 503 256 l 503 326 q 362 317 426 326 q 259 281 297 307 q 221 206 221 254 q 233 162 221 181 q 269 133 244 143 q 329 122 293 122 m 296 -272 l 296 -111 l 463 -111 l 463 -272 l 296 -272 z "},"à":{"ha":772,"x_min":47,"x_max":765,"o":"m 278 -17 q 208 -9 247 -17 q 131 19 168 -1 q 71 81 94 40 q 47 189 47 122 q 81 313 47 264 q 174 391 114 363 q 319 431 235 419 q 503 443 403 443 l 503 503 q 493 560 503 535 q 458 599 483 585 q 381 614 432 614 q 300 601 329 614 q 260 571 271 589 q 249 533 249 553 l 249 514 l 85 514 q 83 528 83 521 q 83 544 83 535 q 121 653 83 607 q 225 723 158 699 q 379 747 292 747 q 544 719 479 747 q 640 640 608 692 q 672 515 672 589 l 672 171 q 688 133 672 144 q 721 122 703 122 l 765 122 l 765 6 q 725 -8 751 0 q 660 -15 699 -15 q 595 -3 624 -15 q 547 31 567 8 q 519 83 528 53 l 511 83 q 455 31 488 54 q 378 -4 422 8 q 278 -17 335 -17 m 329 122 q 403 135 371 122 q 458 169 436 147 q 491 224 479 192 q 503 293 503 256 l 503 326 q 362 317 426 326 q 259 281 297 307 q 221 206 221 254 q 233 162 221 181 q 269 133 244 143 q 329 122 293 122 m 474 821 l 333 821 l 183 1000 l 185 1004 l 361 1004 l 474 821 z "},"ả":{"ha":772,"x_min":47,"x_max":765,"o":"m 278 -17 q 208 -9 247 -17 q 131 19 168 -1 q 71 81 94 40 q 47 189 47 122 q 81 313 47 264 q 174 391 114 363 q 319 431 235 419 q 503 443 403 443 l 503 503 q 493 560 503 535 q 458 599 483 585 q 381 614 432 614 q 300 601 329 614 q 260 571 271 589 q 249 533 249 553 l 249 514 l 85 514 q 83 528 83 521 q 83 544 83 535 q 121 653 83 607 q 225 723 158 699 q 379 747 292 747 q 544 719 479 747 q 640 640 608 692 q 672 515 672 589 l 672 171 q 688 133 672 144 q 721 122 703 122 l 765 122 l 765 6 q 725 -8 751 0 q 660 -15 699 -15 q 595 -3 624 -15 q 547 31 567 8 q 519 83 528 53 l 511 83 q 455 31 488 54 q 378 -4 422 8 q 278 -17 335 -17 m 329 122 q 403 135 371 122 q 458 169 436 147 q 491 224 479 192 q 503 293 503 256 l 503 326 q 362 317 426 326 q 259 281 297 307 q 221 206 221 254 q 233 162 221 181 q 269 133 244 143 q 329 122 293 122 m 338 821 l 338 899 l 356 899 q 389 905 379 899 q 399 925 399 911 q 387 945 399 940 q 353 950 375 950 l 271 950 l 271 1010 q 307 1016 288 1014 q 346 1019 326 1018 q 382 1021 365 1021 q 432 1017 406 1021 q 481 1005 458 1014 q 519 979 504 996 q 533 936 533 963 q 518 893 533 910 q 478 868 503 876 q 426 857 454 860 l 426 821 l 338 821 z "},"ȃ":{"ha":772,"x_min":47,"x_max":765,"o":"m 278 -17 q 208 -9 247 -17 q 131 19 168 -1 q 71 81 94 40 q 47 189 47 122 q 81 313 47 264 q 174 391 114 363 q 319 431 235 419 q 503 443 403 443 l 503 503 q 493 560 503 535 q 458 599 483 585 q 381 614 432 614 q 300 601 329 614 q 260 571 271 589 q 249 533 249 553 l 249 514 l 85 514 q 83 528 83 521 q 83 544 83 535 q 121 653 83 607 q 225 723 158 699 q 379 747 292 747 q 544 719 479 747 q 640 640 608 692 q 672 515 672 589 l 672 171 q 688 133 672 144 q 721 122 703 122 l 765 122 l 765 6 q 725 -8 751 0 q 660 -15 699 -15 q 595 -3 624 -15 q 547 31 567 8 q 519 83 528 53 l 511 83 q 455 31 488 54 q 378 -4 422 8 q 278 -17 335 -17 m 329 122 q 403 135 371 122 q 458 169 436 147 q 491 224 479 192 q 503 293 503 256 l 503 326 q 362 317 426 326 q 259 281 297 307 q 221 206 221 254 q 233 162 221 181 q 269 133 244 143 q 329 122 293 122 m 378 1004 q 506 976 458 1004 q 574 907 553 949 q 596 822 596 865 l 483 822 q 471 853 482 838 q 437 881 460 869 q 378 892 414 892 q 320 881 342 892 q 288 853 299 869 q 274 822 276 838 l 161 822 q 182 907 161 865 q 251 976 203 949 q 378 1004 299 1004 z "},"ā":{"ha":772,"x_min":47,"x_max":765,"o":"m 278 -17 q 208 -9 247 -17 q 131 19 168 -1 q 71 81 94 40 q 47 189 47 122 q 81 313 47 264 q 174 391 114 363 q 319 431 235 419 q 503 443 403 443 l 503 503 q 493 560 503 535 q 458 599 483 585 q 381 614 432 614 q 300 601 329 614 q 260 571 271 589 q 249 533 249 553 l 249 514 l 85 514 q 83 528 83 521 q 83 544 83 535 q 121 653 83 607 q 225 723 158 699 q 379 747 292 747 q 544 719 479 747 q 640 640 608 692 q 672 515 672 589 l 672 171 q 688 133 672 144 q 721 122 703 122 l 765 122 l 765 6 q 725 -8 751 0 q 660 -15 699 -15 q 595 -3 624 -15 q 547 31 567 8 q 519 83 528 53 l 511 83 q 455 31 488 54 q 378 -4 422 8 q 278 -17 335 -17 m 329 122 q 403 135 371 122 q 458 169 436 147 q 491 224 479 192 q 503 293 503 256 l 503 326 q 362 317 426 326 q 259 281 297 307 q 221 206 221 254 q 233 162 221 181 q 269 133 244 143 q 329 122 293 122 m 167 857 l 167 972 l 590 972 l 590 857 l 167 857 z "},"ą":{"ha":772,"x_min":47,"x_max":765,"o":"m 278 -17 q 208 -9 247 -17 q 131 19 168 -1 q 71 81 94 40 q 47 189 47 122 q 81 313 47 264 q 174 391 114 363 q 319 431 235 419 q 503 443 403 443 l 503 503 q 493 560 503 535 q 458 599 483 585 q 381 614 432 614 q 300 601 329 614 q 260 571 271 589 q 249 533 249 553 l 249 514 l 85 514 q 83 528 83 521 q 83 544 83 535 q 121 653 83 607 q 225 723 158 699 q 379 747 292 747 q 544 719 479 747 q 640 640 608 692 q 672 515 672 589 l 672 171 q 688 133 672 144 q 721 122 703 122 l 765 122 l 765 6 q 725 -8 751 0 q 660 -15 699 -15 q 595 -3 624 -15 q 547 31 567 8 q 519 83 528 53 l 511 83 q 455 31 488 54 q 378 -4 422 8 q 278 -17 335 -17 m 329 122 q 403 135 371 122 q 458 169 436 147 q 491 224 479 192 q 503 293 503 256 l 503 326 q 362 317 426 326 q 259 281 297 307 q 221 206 221 254 q 233 162 221 181 q 269 133 244 143 q 329 122 293 122 m 653 -253 q 585 -242 618 -253 q 529 -203 551 -231 q 507 -129 507 -176 q 530 -44 507 -78 q 581 17 553 -10 l 689 17 l 689 11 q 658 -30 675 -3 q 642 -86 642 -57 q 658 -136 642 -114 q 711 -158 674 -158 l 765 -158 l 765 -233 q 708 -248 740 -243 q 653 -253 676 -253 z "},"å":{"ha":772,"x_min":47,"x_max":765,"o":"m 278 -17 q 208 -9 247 -17 q 131 19 168 -1 q 71 81 94 40 q 47 189 47 122 q 81 313 47 264 q 174 391 114 363 q 319 431 235 419 q 503 443 403 443 l 503 503 q 493 560 503 535 q 458 599 483 585 q 381 614 432 614 q 300 601 329 614 q 260 571 271 589 q 249 533 249 553 l 249 514 l 85 514 q 83 528 83 521 q 83 544 83 535 q 121 653 83 607 q 225 723 158 699 q 379 747 292 747 q 544 719 479 747 q 640 640 608 692 q 672 515 672 589 l 672 171 q 688 133 672 144 q 721 122 703 122 l 765 122 l 765 6 q 725 -8 751 0 q 660 -15 699 -15 q 595 -3 624 -15 q 547 31 567 8 q 519 83 528 53 l 511 83 q 455 31 488 54 q 378 -4 422 8 q 278 -17 335 -17 m 329 122 q 403 135 371 122 q 458 169 436 147 q 491 224 479 192 q 503 293 503 256 l 503 326 q 362 317 426 326 q 259 281 297 307 q 221 206 221 254 q 233 162 221 181 q 269 133 244 143 q 329 122 293 122 m 379 804 q 280 843 319 804 q 240 942 240 882 q 280 1042 240 1003 q 379 1081 319 1081 q 479 1042 440 1081 q 518 942 518 1003 q 479 843 518 882 q 379 804 440 804 m 379 878 q 425 896 407 878 q 443 942 443 914 q 425 988 443 969 q 379 1007 407 1007 q 333 988 351 1007 q 315 942 315 969 q 333 896 315 914 q 379 878 351 878 z "},"ǻ":{"ha":772,"x_min":47,"x_max":765,"o":"m 278 -17 q 208 -9 247 -17 q 131 19 168 -1 q 71 81 94 40 q 47 189 47 122 q 81 313 47 264 q 174 391 114 363 q 319 431 235 419 q 503 443 403 443 l 503 503 q 493 560 503 535 q 458 599 483 585 q 381 614 432 614 q 300 601 329 614 q 260 571 271 589 q 249 533 249 553 l 249 514 l 85 514 q 83 528 83 521 q 83 544 83 535 q 121 653 83 607 q 225 723 158 699 q 379 747 292 747 q 544 719 479 747 q 640 640 608 692 q 672 515 672 589 l 672 171 q 688 133 672 144 q 721 122 703 122 l 765 122 l 765 6 q 725 -8 751 0 q 660 -15 699 -15 q 595 -3 624 -15 q 547 31 567 8 q 519 83 528 53 l 511 83 q 455 31 488 54 q 378 -4 422 8 q 278 -17 335 -17 m 329 122 q 403 135 371 122 q 458 169 436 147 q 491 224 479 192 q 503 293 503 256 l 503 326 q 362 317 426 326 q 259 281 297 307 q 221 206 221 254 q 233 162 221 181 q 269 133 244 143 q 329 122 293 122 m 379 804 q 280 843 319 804 q 240 942 240 882 q 280 1042 240 1003 q 379 1081 319 1081 q 479 1042 440 1081 q 518 942 518 1003 q 479 843 518 882 q 379 804 440 804 m 379 878 q 425 896 407 878 q 443 942 443 914 q 425 988 443 969 q 379 1007 407 1007 q 333 988 351 1007 q 315 942 315 969 q 333 896 315 914 q 379 878 351 878 m 289 1139 l 401 1322 l 578 1322 l 579 1318 l 429 1139 l 289 1139 z "},"ã":{"ha":772,"x_min":47,"x_max":765,"o":"m 278 -17 q 208 -9 247 -17 q 131 19 168 -1 q 71 81 94 40 q 47 189 47 122 q 81 313 47 264 q 174 391 114 363 q 319 431 235 419 q 503 443 403 443 l 503 503 q 493 560 503 535 q 458 599 483 585 q 381 614 432 614 q 300 601 329 614 q 260 571 271 589 q 249 533 249 553 l 249 514 l 85 514 q 83 528 83 521 q 83 544 83 535 q 121 653 83 607 q 225 723 158 699 q 379 747 292 747 q 544 719 479 747 q 640 640 608 692 q 672 515 672 589 l 672 171 q 688 133 672 144 q 721 122 703 122 l 765 122 l 765 6 q 725 -8 751 0 q 660 -15 699 -15 q 595 -3 624 -15 q 547 31 567 8 q 519 83 528 53 l 511 83 q 455 31 488 54 q 378 -4 422 8 q 278 -17 335 -17 m 329 122 q 403 135 371 122 q 458 169 436 147 q 491 224 479 192 q 503 293 503 256 l 503 326 q 362 317 426 326 q 259 281 297 307 q 221 206 221 254 q 233 162 221 181 q 269 133 244 143 q 329 122 293 122 m 147 842 q 160 923 147 886 q 203 982 174 960 q 278 1004 232 1004 q 345 992 314 1004 q 407 968 376 981 q 469 956 438 956 q 501 966 489 956 q 515 1004 513 976 l 610 1004 q 597 924 610 961 q 555 865 583 888 q 479 842 526 842 q 413 854 444 842 q 351 879 381 867 q 289 892 321 892 q 258 881 271 892 q 243 842 246 869 l 147 842 z "},"æ":{"ha":1243,"x_min":47,"x_max":1189,"o":"m 321 -17 q 238 -9 285 -17 q 148 19 192 -1 q 76 81 104 40 q 47 189 47 122 q 82 313 47 264 q 181 391 117 363 q 333 431 244 419 q 526 443 421 443 l 526 503 q 516 560 526 535 q 476 599 506 585 q 390 614 447 614 q 303 601 335 614 q 260 571 272 589 q 249 533 249 553 l 249 514 l 85 514 q 83 528 83 521 q 83 544 83 535 q 122 653 83 607 q 228 723 160 699 q 389 747 297 747 q 535 726 475 747 q 632 667 594 706 q 734 727 675 707 q 869 747 793 747 q 1046 708 975 747 q 1153 586 1117 668 q 1189 374 1189 504 l 1189 324 l 697 324 q 717 209 700 256 q 773 140 735 163 q 872 117 811 117 q 931 125 904 117 q 979 151 958 133 q 1011 194 1000 168 q 1022 256 1022 221 l 1189 256 q 1165 135 1189 186 q 1097 50 1140 83 q 995 0 1053 17 q 869 -17 938 -17 q 711 9 778 -17 q 603 86 644 35 q 531 31 572 54 q 438 -4 490 8 q 321 -17 386 -17 m 339 118 q 419 130 385 118 q 478 165 454 142 q 514 220 501 188 q 526 293 526 253 l 526 324 q 374 315 444 324 q 263 280 304 306 q 221 206 221 254 q 234 158 221 178 q 274 128 247 139 q 339 118 300 118 m 700 443 l 1013 443 q 1002 521 1013 489 q 973 574 992 553 q 928 603 954 594 q 869 613 901 613 q 781 594 817 613 q 725 539 744 576 q 700 443 706 501 z "},"ǽ":{"ha":1243,"x_min":47,"x_max":1189,"o":"m 321 -17 q 238 -9 285 -17 q 148 19 192 -1 q 76 81 104 40 q 47 189 47 122 q 82 313 47 264 q 181 391 117 363 q 333 431 244 419 q 526 443 421 443 l 526 503 q 516 560 526 535 q 476 599 506 585 q 390 614 447 614 q 303 601 335 614 q 260 571 272 589 q 249 533 249 553 l 249 514 l 85 514 q 83 528 83 521 q 83 544 83 535 q 122 653 83 607 q 228 723 160 699 q 389 747 297 747 q 535 726 475 747 q 632 667 594 706 q 734 727 675 707 q 869 747 793 747 q 1046 708 975 747 q 1153 586 1117 668 q 1189 374 1189 504 l 1189 324 l 697 324 q 717 209 700 256 q 773 140 735 163 q 872 117 811 117 q 931 125 904 117 q 979 151 958 133 q 1011 194 1000 168 q 1022 256 1022 221 l 1189 256 q 1165 135 1189 186 q 1097 50 1140 83 q 995 0 1053 17 q 869 -17 938 -17 q 711 9 778 -17 q 603 86 644 35 q 531 31 572 54 q 438 -4 490 8 q 321 -17 386 -17 m 339 118 q 419 130 385 118 q 478 165 454 142 q 514 220 501 188 q 526 293 526 253 l 526 324 q 374 315 444 324 q 263 280 304 306 q 221 206 221 254 q 234 158 221 178 q 274 128 247 139 q 339 118 300 118 m 700 443 l 1013 443 q 1002 521 1013 489 q 973 574 992 553 q 928 603 954 594 q 869 613 901 613 q 781 594 817 613 q 725 539 744 576 q 700 443 706 501 m 542 821 l 654 1004 l 831 1004 l 832 1000 l 682 821 l 542 821 z "},"b":{"ha":822,"x_min":90,"x_max":768,"o":"m 478 -17 q 349 12 407 -17 q 254 97 290 40 l 244 97 l 231 0 l 90 0 l 90 1004 l 260 1004 l 260 646 l 268 646 q 322 702 290 679 q 396 736 354 725 q 488 747 438 747 q 633 707 569 747 q 732 583 696 667 q 768 367 768 499 q 733 149 768 233 q 633 24 697 64 q 478 -17 568 -17 m 425 129 q 524 153 488 129 q 577 228 561 178 q 593 354 593 278 l 593 374 q 577 502 593 451 q 524 577 561 553 q 425 601 488 601 q 351 586 382 601 q 299 542 319 571 q 269 469 279 513 q 260 372 260 426 l 260 354 q 277 232 260 282 q 331 156 294 182 q 425 129 368 129 z "},"c":{"ha":760,"x_min":54,"x_max":706,"o":"m 394 -17 q 205 24 281 -17 q 92 150 129 65 q 54 365 54 235 q 92 581 54 497 q 206 706 131 665 q 394 747 282 747 q 525 729 468 747 q 623 674 582 711 q 685 583 664 638 q 706 457 706 529 l 533 457 q 518 542 533 508 q 472 592 503 575 q 392 610 440 610 q 299 583 335 610 q 245 505 263 557 q 228 374 228 453 l 228 356 q 245 225 228 278 q 300 147 263 172 q 399 121 338 121 q 477 138 446 121 q 525 190 508 156 q 542 274 542 225 l 706 274 q 685 151 706 206 q 624 60 664 97 q 526 3 583 22 q 394 -17 468 -17 z "},"ć":{"ha":760,"x_min":54,"x_max":706,"o":"m 394 -17 q 205 24 281 -17 q 92 150 129 65 q 54 365 54 235 q 92 581 54 497 q 206 706 131 665 q 394 747 282 747 q 525 729 468 747 q 623 674 582 711 q 685 583 664 638 q 706 457 706 529 l 533 457 q 518 542 533 508 q 472 592 503 575 q 392 610 440 610 q 299 583 335 610 q 245 505 263 557 q 228 374 228 453 l 228 356 q 245 225 228 278 q 300 147 263 172 q 399 121 338 121 q 477 138 446 121 q 525 190 508 156 q 542 274 542 225 l 706 274 q 685 151 706 206 q 624 60 664 97 q 526 3 583 22 q 394 -17 468 -17 m 303 821 l 415 1004 l 592 1004 l 593 1000 l 443 821 l 303 821 z "},"č":{"ha":760,"x_min":54,"x_max":706,"o":"m 394 -17 q 205 24 281 -17 q 92 150 129 65 q 54 365 54 235 q 92 581 54 497 q 206 706 131 665 q 394 747 282 747 q 525 729 468 747 q 623 674 582 711 q 685 583 664 638 q 706 457 706 529 l 533 457 q 518 542 533 508 q 472 592 503 575 q 392 610 440 610 q 299 583 335 610 q 245 505 263 557 q 228 374 228 453 l 228 356 q 245 225 228 278 q 300 147 263 172 q 399 121 338 121 q 477 138 446 121 q 525 190 508 156 q 542 274 542 225 l 706 274 q 685 151 706 206 q 624 60 664 97 q 526 3 583 22 q 394 -17 468 -17 m 167 1004 l 314 1004 l 432 860 l 354 858 l 471 1004 l 618 1004 l 472 821 l 314 821 l 167 1004 z "},"ç":{"ha":760,"x_min":54,"x_max":706,"o":"m 394 -17 q 205 24 281 -17 q 92 150 129 65 q 54 365 54 235 q 92 581 54 497 q 206 706 131 665 q 394 747 282 747 q 525 729 468 747 q 623 674 582 711 q 685 583 664 638 q 706 457 706 529 l 533 457 q 518 542 533 508 q 472 592 503 575 q 392 610 440 610 q 299 583 335 610 q 245 505 263 557 q 228 374 228 453 l 228 356 q 245 225 228 278 q 300 147 263 172 q 399 121 338 121 q 477 138 446 121 q 525 190 508 156 q 542 274 542 225 l 706 274 q 685 151 706 206 q 624 60 664 97 q 526 3 583 22 q 394 -17 468 -17 m 379 -253 q 307 -250 344 -253 q 239 -242 269 -247 l 239 -174 l 367 -174 q 410 -167 394 -174 q 426 -140 426 -160 q 415 -115 426 -124 q 369 -107 403 -107 l 308 -107 l 328 15 l 436 15 l 428 -47 q 494 -59 464 -49 q 543 -89 525 -69 q 561 -140 561 -108 q 543 -197 561 -175 q 497 -231 525 -219 q 438 -248 469 -243 q 379 -253 407 -253 z "},"ĉ":{"ha":760,"x_min":54,"x_max":706,"o":"m 394 -17 q 205 24 281 -17 q 92 150 129 65 q 54 365 54 235 q 92 581 54 497 q 206 706 131 665 q 394 747 282 747 q 525 729 468 747 q 623 674 582 711 q 685 583 664 638 q 706 457 706 529 l 533 457 q 518 542 533 508 q 472 592 503 575 q 392 610 440 610 q 299 583 335 610 q 245 505 263 557 q 228 374 228 453 l 228 356 q 245 225 228 278 q 300 147 263 172 q 399 121 338 121 q 477 138 446 121 q 525 190 508 156 q 542 274 542 225 l 706 274 q 685 151 706 206 q 624 60 664 97 q 526 3 583 22 q 394 -17 468 -17 m 167 821 l 314 1004 l 472 1004 l 618 821 l 471 821 l 354 967 l 432 965 l 314 821 l 167 821 z "},"ċ":{"ha":760,"x_min":54,"x_max":706,"o":"m 394 -17 q 205 24 281 -17 q 92 150 129 65 q 54 365 54 235 q 92 581 54 497 q 206 706 131 665 q 394 747 282 747 q 525 729 468 747 q 623 674 582 711 q 685 583 664 638 q 706 457 706 529 l 533 457 q 518 542 533 508 q 472 592 503 575 q 392 610 440 610 q 299 583 335 610 q 245 505 263 557 q 228 374 228 453 l 228 356 q 245 225 228 278 q 300 147 263 172 q 399 121 338 121 q 477 138 446 121 q 525 190 508 156 q 542 274 542 225 l 706 274 q 685 151 706 206 q 624 60 664 97 q 526 3 583 22 q 394 -17 468 -17 m 310 839 l 310 1000 l 476 1000 l 476 839 l 310 839 z "},"d":{"ha":822,"x_min":54,"x_max":732,"o":"m 344 -17 q 190 24 256 -17 q 90 149 125 64 q 54 367 54 233 q 90 583 54 499 q 190 707 126 667 q 335 747 254 747 q 426 736 385 747 q 500 702 468 725 q 554 646 532 679 l 563 646 l 563 1004 l 732 1004 l 732 0 l 592 0 l 578 97 l 568 97 q 474 12 533 40 q 344 -17 415 -17 m 397 129 q 492 156 456 129 q 545 232 528 182 q 563 354 563 282 l 563 372 q 553 469 563 426 q 523 542 543 513 q 472 586 503 571 q 397 601 440 601 q 298 577 335 601 q 245 502 261 553 q 229 374 229 451 l 229 354 q 245 228 229 278 q 298 153 261 178 q 397 129 335 129 z "},"ð":{"ha":853,"x_min":65,"x_max":788,"o":"m 426 -17 q 226 24 307 -17 q 106 148 146 64 q 65 361 65 232 q 101 566 65 482 q 206 694 138 650 q 372 738 275 738 q 435 731 404 738 q 492 714 465 725 l 497 718 q 456 776 478 747 q 408 833 433 804 l 183 817 l 183 913 l 322 922 q 278 960 301 942 q 232 997 256 979 l 238 1004 l 435 1004 q 464 982 450 993 q 491 960 478 971 q 517 936 504 949 l 735 953 l 735 857 l 606 847 q 706 703 665 779 q 767 542 746 626 q 788 361 788 457 q 747 148 788 232 q 627 24 707 64 q 426 -17 547 -17 m 426 122 q 534 148 493 122 q 594 224 575 174 q 613 351 613 275 l 613 369 q 594 498 613 447 q 534 574 575 549 q 426 599 493 599 q 319 574 360 599 q 259 498 278 549 q 240 371 240 447 l 240 354 q 259 225 240 276 q 319 148 278 174 q 426 122 360 122 z "},"ď":{"ha":822,"x_min":54,"x_max":946,"o":"m 344 -17 q 190 24 256 -17 q 90 149 125 64 q 54 367 54 233 q 90 583 54 499 q 190 707 126 667 q 335 747 254 747 q 426 736 385 747 q 500 702 468 725 q 554 646 532 679 l 563 646 l 563 1004 l 732 1004 l 732 0 l 592 0 l 578 97 l 568 97 q 474 12 533 40 q 344 -17 415 -17 m 397 129 q 492 156 456 129 q 545 232 528 182 q 563 354 563 282 l 563 372 q 553 469 563 426 q 523 542 543 513 q 472 586 503 571 q 397 601 440 601 q 298 577 335 601 q 245 502 261 553 q 229 374 229 451 l 229 354 q 245 228 229 278 q 298 153 261 178 q 397 129 335 129 m 788 771 l 788 1004 l 946 1004 l 903 771 l 788 771 z "},"đ":{"ha":822,"x_min":54,"x_max":822,"o":"m 344 -17 q 190 24 256 -17 q 90 149 125 64 q 54 367 54 233 q 90 583 54 499 q 190 707 126 667 q 335 747 254 747 q 426 736 385 747 q 500 702 468 725 q 554 646 532 679 l 563 646 l 563 1004 l 732 1004 l 732 0 l 592 0 l 578 97 l 568 97 q 474 12 533 40 q 344 -17 415 -17 m 397 129 q 492 156 456 129 q 545 232 528 182 q 563 354 563 282 l 563 372 q 553 469 563 426 q 523 542 543 513 q 472 586 503 571 q 397 601 440 601 q 298 577 335 601 q 245 502 261 553 q 229 374 229 451 l 229 354 q 245 228 229 278 q 298 153 261 178 q 397 129 335 129 m 358 806 l 358 918 l 822 918 l 822 806 l 358 806 z "},"ǆ":{"ha":1529,"x_min":54,"x_max":1488,"o":"m 344 -17 q 190 24 256 -17 q 90 149 125 64 q 54 367 54 233 q 90 583 54 499 q 190 707 126 667 q 335 747 254 747 q 426 736 385 747 q 500 702 468 725 q 554 646 532 679 l 563 646 l 563 1004 l 732 1004 l 732 0 l 592 0 l 578 97 l 568 97 q 474 12 533 40 q 344 -17 415 -17 m 397 129 q 492 156 456 129 q 545 232 528 182 q 563 354 563 282 l 563 372 q 553 469 563 426 q 523 542 543 513 q 472 586 503 571 q 397 601 440 601 q 298 577 335 601 q 245 502 261 553 q 229 374 229 451 l 229 354 q 245 228 229 278 q 298 153 261 178 q 397 129 335 129 m 856 0 l 856 79 l 1225 592 l 879 592 l 879 731 l 1472 731 l 1472 653 l 1101 139 l 1488 139 l 1488 0 l 856 0 m 950 1004 l 1097 1004 l 1215 860 l 1138 858 l 1254 1004 l 1401 1004 l 1256 821 l 1097 821 l 950 1004 z "},"e":{"ha":779,"x_min":54,"x_max":725,"o":"m 404 -17 q 210 24 288 -17 q 93 150 132 65 q 54 365 54 235 q 93 581 54 497 q 210 706 132 665 q 404 747 288 747 q 581 708 510 747 q 689 586 653 668 q 725 374 725 504 l 725 324 l 228 324 q 249 209 231 256 q 305 140 267 163 q 406 117 343 117 q 465 125 438 117 q 514 151 493 133 q 547 194 535 168 q 558 256 558 221 l 725 256 q 701 135 725 186 q 633 50 676 83 q 531 0 589 17 q 404 -17 472 -17 m 231 443 l 549 443 q 538 521 549 489 q 509 574 528 553 q 464 603 490 594 q 404 613 438 613 q 313 594 350 613 q 257 539 276 576 q 231 443 238 501 z "},"é":{"ha":779,"x_min":54,"x_max":725,"o":"m 404 -17 q 210 24 288 -17 q 93 150 132 65 q 54 365 54 235 q 93 581 54 497 q 210 706 132 665 q 404 747 288 747 q 581 708 510 747 q 689 586 653 668 q 725 374 725 504 l 725 324 l 228 324 q 249 209 231 256 q 305 140 267 163 q 406 117 343 117 q 465 125 438 117 q 514 151 493 133 q 547 194 535 168 q 558 256 558 221 l 725 256 q 701 135 725 186 q 633 50 676 83 q 531 0 589 17 q 404 -17 472 -17 m 231 443 l 549 443 q 538 521 549 489 q 509 574 528 553 q 464 603 490 594 q 404 613 438 613 q 313 594 350 613 q 257 539 276 576 q 231 443 238 501 m 313 821 l 425 1004 l 601 1004 l 603 1000 l 453 821 l 313 821 z "},"ĕ":{"ha":779,"x_min":54,"x_max":725,"o":"m 404 -17 q 210 24 288 -17 q 93 150 132 65 q 54 365 54 235 q 93 581 54 497 q 210 706 132 665 q 404 747 288 747 q 581 708 510 747 q 689 586 653 668 q 725 374 725 504 l 725 324 l 228 324 q 249 209 231 256 q 305 140 267 163 q 406 117 343 117 q 465 125 438 117 q 514 151 493 133 q 547 194 535 168 q 558 256 558 221 l 725 256 q 701 135 725 186 q 633 50 676 83 q 531 0 589 17 q 404 -17 472 -17 m 231 443 l 549 443 q 538 521 549 489 q 509 574 528 553 q 464 603 490 594 q 404 613 438 613 q 313 594 350 613 q 257 539 276 576 q 231 443 238 501 m 401 822 q 274 850 322 822 q 206 920 226 878 q 185 1004 185 963 l 297 1004 q 311 974 300 990 q 344 946 322 957 q 401 935 365 935 q 460 946 438 935 q 494 974 483 957 q 507 1004 506 990 l 619 1004 q 598 920 619 963 q 529 850 576 878 q 401 822 482 822 z "},"ě":{"ha":779,"x_min":54,"x_max":725,"o":"m 404 -17 q 210 24 288 -17 q 93 150 132 65 q 54 365 54 235 q 93 581 54 497 q 210 706 132 665 q 404 747 288 747 q 581 708 510 747 q 689 586 653 668 q 725 374 725 504 l 725 324 l 228 324 q 249 209 231 256 q 305 140 267 163 q 406 117 343 117 q 465 125 438 117 q 514 151 493 133 q 547 194 535 168 q 558 256 558 221 l 725 256 q 701 135 725 186 q 633 50 676 83 q 531 0 589 17 q 404 -17 472 -17 m 231 443 l 549 443 q 538 521 549 489 q 509 574 528 553 q 464 603 490 594 q 404 613 438 613 q 313 594 350 613 q 257 539 276 576 q 231 443 238 501 m 176 1004 l 324 1004 l 442 860 l 364 858 l 481 1004 l 628 1004 l 482 821 l 324 821 l 176 1004 z "},"ê":{"ha":779,"x_min":54,"x_max":725,"o":"m 404 -17 q 210 24 288 -17 q 93 150 132 65 q 54 365 54 235 q 93 581 54 497 q 210 706 132 665 q 404 747 288 747 q 581 708 510 747 q 689 586 653 668 q 725 374 725 504 l 725 324 l 228 324 q 249 209 231 256 q 305 140 267 163 q 406 117 343 117 q 465 125 438 117 q 514 151 493 133 q 547 194 535 168 q 558 256 558 221 l 725 256 q 701 135 725 186 q 633 50 676 83 q 531 0 589 17 q 404 -17 472 -17 m 231 443 l 549 443 q 538 521 549 489 q 509 574 528 553 q 464 603 490 594 q 404 613 438 613 q 313 594 350 613 q 257 539 276 576 q 231 443 238 501 m 176 821 l 324 1004 l 482 1004 l 628 821 l 481 821 l 364 967 l 442 965 l 324 821 l 176 821 z "},"ế":{"ha":779,"x_min":54,"x_max":725,"o":"m 404 -17 q 210 24 288 -17 q 93 150 132 65 q 54 365 54 235 q 93 581 54 497 q 210 706 132 665 q 404 747 288 747 q 581 708 510 747 q 689 586 653 668 q 725 374 725 504 l 725 324 l 228 324 q 249 209 231 256 q 305 140 267 163 q 406 117 343 117 q 465 125 438 117 q 514 151 493 133 q 547 194 535 168 q 558 256 558 221 l 725 256 q 701 135 725 186 q 633 50 676 83 q 531 0 589 17 q 404 -17 472 -17 m 231 443 l 549 443 q 538 521 549 489 q 509 574 528 553 q 464 603 490 594 q 404 613 438 613 q 313 594 350 613 q 257 539 276 576 q 231 443 238 501 m 176 821 l 324 1004 l 482 1004 l 628 821 l 481 821 l 364 967 l 442 965 l 324 821 l 176 821 m 313 1076 l 425 1260 l 601 1260 l 603 1256 l 453 1076 l 313 1076 z "},"ệ":{"ha":779,"x_min":54,"x_max":725,"o":"m 404 -17 q 210 24 288 -17 q 93 150 132 65 q 54 365 54 235 q 93 581 54 497 q 210 706 132 665 q 404 747 288 747 q 581 708 510 747 q 689 586 653 668 q 725 374 725 504 l 725 324 l 228 324 q 249 209 231 256 q 305 140 267 163 q 406 117 343 117 q 465 125 438 117 q 514 151 493 133 q 547 194 535 168 q 558 256 558 221 l 725 256 q 701 135 725 186 q 633 50 676 83 q 531 0 589 17 q 404 -17 472 -17 m 231 443 l 549 443 q 538 521 549 489 q 509 574 528 553 q 464 603 490 594 q 404 613 438 613 q 313 594 350 613 q 257 539 276 576 q 231 443 238 501 m 319 -272 l 319 -111 l 486 -111 l 486 -272 l 319 -272 m 176 821 l 324 1004 l 482 1004 l 628 821 l 481 821 l 364 967 l 442 965 l 324 821 l 176 821 z "},"ề":{"ha":779,"x_min":54,"x_max":725,"o":"m 404 -17 q 210 24 288 -17 q 93 150 132 65 q 54 365 54 235 q 93 581 54 497 q 210 706 132 665 q 404 747 288 747 q 581 708 510 747 q 689 586 653 668 q 725 374 725 504 l 725 324 l 228 324 q 249 209 231 256 q 305 140 267 163 q 406 117 343 117 q 465 125 438 117 q 514 151 493 133 q 547 194 535 168 q 558 256 558 221 l 725 256 q 701 135 725 186 q 633 50 676 83 q 531 0 589 17 q 404 -17 472 -17 m 231 443 l 549 443 q 538 521 549 489 q 509 574 528 553 q 464 603 490 594 q 404 613 438 613 q 313 594 350 613 q 257 539 276 576 q 231 443 238 501 m 176 821 l 324 1004 l 482 1004 l 628 821 l 481 821 l 364 967 l 442 965 l 324 821 l 176 821 m 497 1076 l 357 1076 l 207 1256 l 208 1260 l 385 1260 l 497 1076 z "},"ể":{"ha":779,"x_min":54,"x_max":725,"o":"m 404 -17 q 210 24 288 -17 q 93 150 132 65 q 54 365 54 235 q 93 581 54 497 q 210 706 132 665 q 404 747 288 747 q 581 708 510 747 q 689 586 653 668 q 725 374 725 504 l 725 324 l 228 324 q 249 209 231 256 q 305 140 267 163 q 406 117 343 117 q 465 125 438 117 q 514 151 493 133 q 547 194 535 168 q 558 256 558 221 l 725 256 q 701 135 725 186 q 633 50 676 83 q 531 0 589 17 q 404 -17 472 -17 m 231 443 l 549 443 q 538 521 549 489 q 509 574 528 553 q 464 603 490 594 q 404 613 438 613 q 313 594 350 613 q 257 539 276 576 q 231 443 238 501 m 176 821 l 324 1004 l 482 1004 l 628 821 l 481 821 l 364 967 l 442 965 l 324 821 l 176 821 m 361 1076 l 361 1154 l 379 1154 q 413 1160 403 1154 q 422 1181 422 1167 q 410 1201 422 1196 q 376 1206 399 1206 l 294 1206 l 294 1265 q 331 1272 311 1269 q 369 1275 350 1274 q 406 1276 389 1276 q 456 1273 429 1276 q 505 1260 482 1269 q 542 1235 528 1251 q 557 1192 557 1218 q 542 1149 557 1165 q 502 1124 526 1132 q 450 1113 478 1115 l 450 1076 l 361 1076 z "},"ễ":{"ha":779,"x_min":54,"x_max":725,"o":"m 404 -17 q 210 24 288 -17 q 93 150 132 65 q 54 365 54 235 q 93 581 54 497 q 210 706 132 665 q 404 747 288 747 q 581 708 510 747 q 689 586 653 668 q 725 374 725 504 l 725 324 l 228 324 q 249 209 231 256 q 305 140 267 163 q 406 117 343 117 q 465 125 438 117 q 514 151 493 133 q 547 194 535 168 q 558 256 558 221 l 725 256 q 701 135 725 186 q 633 50 676 83 q 531 0 589 17 q 404 -17 472 -17 m 231 443 l 549 443 q 538 521 549 489 q 509 574 528 553 q 464 603 490 594 q 404 613 438 613 q 313 594 350 613 q 257 539 276 576 q 231 443 238 501 m 176 821 l 324 1004 l 482 1004 l 628 821 l 481 821 l 364 967 l 442 965 l 324 821 l 176 821 m 171 1097 q 184 1178 171 1142 q 226 1238 197 1215 q 301 1260 256 1260 q 369 1248 338 1260 q 431 1224 400 1236 q 493 1211 461 1211 q 524 1222 513 1211 q 539 1260 536 1232 l 633 1260 q 620 1180 633 1217 q 578 1120 607 1143 q 503 1097 550 1097 q 436 1110 468 1097 q 374 1135 404 1122 q 313 1147 344 1147 q 282 1136 294 1147 q 267 1097 269 1125 l 171 1097 z "},"ȅ":{"ha":779,"x_min":54,"x_max":725,"o":"m 404 -17 q 210 24 288 -17 q 93 150 132 65 q 54 365 54 235 q 93 581 54 497 q 210 706 132 665 q 404 747 288 747 q 581 708 510 747 q 689 586 653 668 q 725 374 725 504 l 725 324 l 228 324 q 249 209 231 256 q 305 140 267 163 q 406 117 343 117 q 465 125 438 117 q 514 151 493 133 q 547 194 535 168 q 558 256 558 221 l 725 256 q 701 135 725 186 q 633 50 676 83 q 531 0 589 17 q 404 -17 472 -17 m 231 443 l 549 443 q 538 521 549 489 q 509 574 528 553 q 464 603 490 594 q 404 613 438 613 q 313 594 350 613 q 257 539 276 576 q 231 443 238 501 m 468 821 l 328 1000 l 329 1004 l 499 1004 l 601 821 l 468 821 m 240 821 l 100 1000 l 101 1004 l 271 1004 l 374 821 l 240 821 z "},"ë":{"ha":779,"x_min":54,"x_max":725,"o":"m 404 -17 q 210 24 288 -17 q 93 150 132 65 q 54 365 54 235 q 93 581 54 497 q 210 706 132 665 q 404 747 288 747 q 581 708 510 747 q 689 586 653 668 q 725 374 725 504 l 725 324 l 228 324 q 249 209 231 256 q 305 140 267 163 q 406 117 343 117 q 465 125 438 117 q 514 151 493 133 q 547 194 535 168 q 558 256 558 221 l 725 256 q 701 135 725 186 q 633 50 676 83 q 531 0 589 17 q 404 -17 472 -17 m 231 443 l 549 443 q 538 521 549 489 q 509 574 528 553 q 464 603 490 594 q 404 613 438 613 q 313 594 350 613 q 257 539 276 576 q 231 443 238 501 m 185 850 l 185 1004 l 336 1004 l 336 850 l 185 850 m 467 850 l 467 1004 l 619 1004 l 619 850 l 467 850 z "},"ė":{"ha":779,"x_min":54,"x_max":725,"o":"m 404 -17 q 210 24 288 -17 q 93 150 132 65 q 54 365 54 235 q 93 581 54 497 q 210 706 132 665 q 404 747 288 747 q 581 708 510 747 q 689 586 653 668 q 725 374 725 504 l 725 324 l 228 324 q 249 209 231 256 q 305 140 267 163 q 406 117 343 117 q 465 125 438 117 q 514 151 493 133 q 547 194 535 168 q 558 256 558 221 l 725 256 q 701 135 725 186 q 633 50 676 83 q 531 0 589 17 q 404 -17 472 -17 m 231 443 l 549 443 q 538 521 549 489 q 509 574 528 553 q 464 603 490 594 q 404 613 438 613 q 313 594 350 613 q 257 539 276 576 q 231 443 238 501 m 319 839 l 319 1000 l 486 1000 l 486 839 l 319 839 z "},"ẹ":{"ha":779,"x_min":54,"x_max":725,"o":"m 404 -17 q 210 24 288 -17 q 93 150 132 65 q 54 365 54 235 q 93 581 54 497 q 210 706 132 665 q 404 747 288 747 q 581 708 510 747 q 689 586 653 668 q 725 374 725 504 l 725 324 l 228 324 q 249 209 231 256 q 305 140 267 163 q 406 117 343 117 q 465 125 438 117 q 514 151 493 133 q 547 194 535 168 q 558 256 558 221 l 725 256 q 701 135 725 186 q 633 50 676 83 q 531 0 589 17 q 404 -17 472 -17 m 231 443 l 549 443 q 538 521 549 489 q 509 574 528 553 q 464 603 490 594 q 404 613 438 613 q 313 594 350 613 q 257 539 276 576 q 231 443 238 501 m 319 -272 l 319 -111 l 486 -111 l 486 -272 l 319 -272 z "},"è":{"ha":779,"x_min":54,"x_max":725,"o":"m 404 -17 q 210 24 288 -17 q 93 150 132 65 q 54 365 54 235 q 93 581 54 497 q 210 706 132 665 q 404 747 288 747 q 581 708 510 747 q 689 586 653 668 q 725 374 725 504 l 725 324 l 228 324 q 249 209 231 256 q 305 140 267 163 q 406 117 343 117 q 465 125 438 117 q 514 151 493 133 q 547 194 535 168 q 558 256 558 221 l 725 256 q 701 135 725 186 q 633 50 676 83 q 531 0 589 17 q 404 -17 472 -17 m 231 443 l 549 443 q 538 521 549 489 q 509 574 528 553 q 464 603 490 594 q 404 613 438 613 q 313 594 350 613 q 257 539 276 576 q 231 443 238 501 m 497 821 l 357 821 l 207 1000 l 208 1004 l 385 1004 l 497 821 z "},"ẻ":{"ha":779,"x_min":54,"x_max":725,"o":"m 404 -17 q 210 24 288 -17 q 93 150 132 65 q 54 365 54 235 q 93 581 54 497 q 210 706 132 665 q 404 747 288 747 q 581 708 510 747 q 689 586 653 668 q 725 374 725 504 l 725 324 l 228 324 q 249 209 231 256 q 305 140 267 163 q 406 117 343 117 q 465 125 438 117 q 514 151 493 133 q 547 194 535 168 q 558 256 558 221 l 725 256 q 701 135 725 186 q 633 50 676 83 q 531 0 589 17 q 404 -17 472 -17 m 231 443 l 549 443 q 538 521 549 489 q 509 574 528 553 q 464 603 490 594 q 404 613 438 613 q 313 594 350 613 q 257 539 276 576 q 231 443 238 501 m 361 821 l 361 899 l 379 899 q 413 905 403 899 q 422 925 422 911 q 410 945 422 940 q 376 950 399 950 l 294 950 l 294 1010 q 331 1016 311 1014 q 369 1019 350 1018 q 406 1021 389 1021 q 456 1017 429 1021 q 505 1005 482 1014 q 542 979 528 996 q 557 936 557 963 q 542 893 557 910 q 502 868 526 876 q 450 857 478 860 l 450 821 l 361 821 z "},"ȇ":{"ha":779,"x_min":54,"x_max":725,"o":"m 404 -17 q 210 24 288 -17 q 93 150 132 65 q 54 365 54 235 q 93 581 54 497 q 210 706 132 665 q 404 747 288 747 q 581 708 510 747 q 689 586 653 668 q 725 374 725 504 l 725 324 l 228 324 q 249 209 231 256 q 305 140 267 163 q 406 117 343 117 q 465 125 438 117 q 514 151 493 133 q 547 194 535 168 q 558 256 558 221 l 725 256 q 701 135 725 186 q 633 50 676 83 q 531 0 589 17 q 404 -17 472 -17 m 231 443 l 549 443 q 538 521 549 489 q 509 574 528 553 q 464 603 490 594 q 404 613 438 613 q 313 594 350 613 q 257 539 276 576 q 231 443 238 501 m 401 1004 q 529 976 482 1004 q 598 907 576 949 q 619 822 619 865 l 507 822 q 494 853 506 838 q 460 881 483 869 q 401 892 438 892 q 344 881 365 892 q 311 853 322 869 q 297 822 300 838 l 185 822 q 206 907 185 865 q 274 976 226 949 q 401 1004 322 1004 z "},"ē":{"ha":779,"x_min":54,"x_max":725,"o":"m 404 -17 q 210 24 288 -17 q 93 150 132 65 q 54 365 54 235 q 93 581 54 497 q 210 706 132 665 q 404 747 288 747 q 581 708 510 747 q 689 586 653 668 q 725 374 725 504 l 725 324 l 228 324 q 249 209 231 256 q 305 140 267 163 q 406 117 343 117 q 465 125 438 117 q 514 151 493 133 q 547 194 535 168 q 558 256 558 221 l 725 256 q 701 135 725 186 q 633 50 676 83 q 531 0 589 17 q 404 -17 472 -17 m 231 443 l 549 443 q 538 521 549 489 q 509 574 528 553 q 464 603 490 594 q 404 613 438 613 q 313 594 350 613 q 257 539 276 576 q 231 443 238 501 m 190 857 l 190 972 l 614 972 l 614 857 l 190 857 z "},"ę":{"ha":779,"x_min":54,"x_max":725,"o":"m 404 -17 q 210 24 288 -17 q 93 150 132 65 q 54 365 54 235 q 93 581 54 497 q 210 706 132 665 q 404 747 288 747 q 581 708 510 747 q 689 586 653 668 q 725 374 725 504 l 725 324 l 228 324 q 249 209 231 256 q 305 140 267 163 q 406 117 343 117 q 465 125 438 117 q 514 151 493 133 q 547 194 535 168 q 558 256 558 221 l 725 256 q 701 135 725 186 q 633 50 676 83 q 531 0 589 17 q 404 -17 472 -17 m 231 443 l 549 443 q 538 521 549 489 q 509 574 528 553 q 464 603 490 594 q 404 613 438 613 q 313 594 350 613 q 257 539 276 576 q 231 443 238 501 m 526 -253 q 458 -242 492 -253 q 403 -203 425 -231 q 381 -129 381 -176 q 403 -44 381 -78 q 454 17 426 -10 l 563 17 l 563 11 q 532 -30 549 -3 q 515 -86 515 -57 q 531 -136 515 -114 q 585 -158 547 -158 l 639 -158 l 639 -233 q 582 -248 614 -243 q 526 -253 550 -253 z "},"ẽ":{"ha":779,"x_min":54,"x_max":725,"o":"m 404 -17 q 210 24 288 -17 q 93 150 132 65 q 54 365 54 235 q 93 581 54 497 q 210 706 132 665 q 404 747 288 747 q 581 708 510 747 q 689 586 653 668 q 725 374 725 504 l 725 324 l 228 324 q 249 209 231 256 q 305 140 267 163 q 406 117 343 117 q 465 125 438 117 q 514 151 493 133 q 547 194 535 168 q 558 256 558 221 l 725 256 q 701 135 725 186 q 633 50 676 83 q 531 0 589 17 q 404 -17 472 -17 m 231 443 l 549 443 q 538 521 549 489 q 509 574 528 553 q 464 603 490 594 q 404 613 438 613 q 313 594 350 613 q 257 539 276 576 q 231 443 238 501 m 171 842 q 184 923 171 886 q 226 982 197 960 q 301 1004 256 1004 q 369 992 338 1004 q 431 968 400 981 q 493 956 461 956 q 524 966 513 956 q 539 1004 536 976 l 633 1004 q 620 924 633 961 q 578 865 607 888 q 503 842 550 842 q 436 854 468 842 q 374 879 404 867 q 313 892 344 892 q 282 881 294 892 q 267 842 269 869 l 171 842 z "},"ə":{"ha":806,"x_min":64,"x_max":735,"o":"m 385 -17 q 208 23 279 -17 q 100 145 136 63 q 64 357 64 228 l 64 407 l 563 407 q 541 522 560 476 q 484 591 522 568 q 383 614 446 614 q 324 606 351 614 q 275 580 296 597 q 242 537 254 563 q 231 475 231 511 l 64 475 q 88 596 64 544 q 156 681 113 647 q 258 731 200 714 q 385 747 317 747 q 580 706 503 747 q 696 581 657 665 q 735 365 735 497 q 696 150 735 235 q 579 24 657 65 q 385 -17 501 -17 m 385 118 q 476 136 440 118 q 533 192 513 154 q 560 288 554 231 l 240 288 q 251 210 240 242 q 281 157 261 178 q 326 127 300 136 q 385 118 353 118 z "},"f":{"ha":426,"x_min":19,"x_max":426,"o":"m 125 0 l 125 592 l 19 592 l 19 731 l 125 731 l 125 824 q 141 916 125 872 q 197 988 157 960 q 310 1015 238 1015 q 352 1013 331 1015 q 393 1005 374 1010 q 426 994 413 1000 l 426 876 l 357 876 q 310 860 326 876 q 294 814 294 844 l 294 731 l 426 731 l 426 592 l 294 592 l 294 0 l 125 0 z "},"g":{"ha":821,"x_min":24,"x_max":801,"o":"m 211 -253 q 119 -233 163 -253 q 50 -176 76 -214 q 24 -82 24 -137 q 59 15 24 -21 q 138 68 94 50 q 85 113 106 85 q 65 179 65 140 q 104 263 65 232 q 193 304 143 294 q 115 386 142 336 q 88 500 88 436 q 124 631 88 576 q 232 717 161 686 q 403 747 303 747 q 481 742 443 747 q 549 725 518 736 q 615 791 597 754 q 635 851 633 828 l 800 851 q 781 765 800 803 q 729 703 763 728 q 649 668 696 679 q 701 594 683 638 q 719 500 719 551 q 684 368 719 424 q 580 282 649 313 q 411 251 511 251 l 299 251 q 253 239 269 251 q 238 204 238 226 q 252 172 238 186 q 293 158 267 158 l 613 158 q 748 105 694 158 q 801 -32 801 51 q 769 -144 801 -94 q 678 -224 736 -194 q 542 -253 619 -253 l 211 -253 m 272 -131 l 540 -131 q 587 -122 567 -131 q 619 -96 607 -112 q 631 -58 631 -79 q 608 -4 631 -22 q 551 14 585 14 l 272 14 q 217 -6 239 14 q 194 -58 194 -26 q 216 -110 194 -90 q 272 -131 238 -131 m 404 371 q 515 405 478 371 q 551 500 551 439 q 515 594 551 561 q 404 628 478 628 q 294 594 331 628 q 257 500 257 561 q 273 431 257 460 q 322 386 289 401 q 404 371 354 371 z "},"ğ":{"ha":821,"x_min":24,"x_max":801,"o":"m 211 -253 q 119 -233 163 -253 q 50 -176 76 -214 q 24 -82 24 -137 q 59 15 24 -21 q 138 68 94 50 q 85 113 106 85 q 65 179 65 140 q 104 263 65 232 q 193 304 143 294 q 115 386 142 336 q 88 500 88 436 q 124 631 88 576 q 232 717 161 686 q 403 747 303 747 q 481 742 443 747 q 549 725 518 736 q 615 791 597 754 q 635 851 633 828 l 800 851 q 781 765 800 803 q 729 703 763 728 q 649 668 696 679 q 701 594 683 638 q 719 500 719 551 q 684 368 719 424 q 580 282 649 313 q 411 251 511 251 l 299 251 q 253 239 269 251 q 238 204 238 226 q 252 172 238 186 q 293 158 267 158 l 613 158 q 748 105 694 158 q 801 -32 801 51 q 769 -144 801 -94 q 678 -224 736 -194 q 542 -253 619 -253 l 211 -253 m 272 -131 l 540 -131 q 587 -122 567 -131 q 619 -96 607 -112 q 631 -58 631 -79 q 608 -4 631 -22 q 551 14 585 14 l 272 14 q 217 -6 239 14 q 194 -58 194 -26 q 216 -110 194 -90 q 272 -131 238 -131 m 404 371 q 515 405 478 371 q 551 500 551 439 q 515 594 551 561 q 404 628 478 628 q 294 594 331 628 q 257 500 257 561 q 273 431 257 460 q 322 386 289 401 q 404 371 354 371 m 396 822 q 269 850 317 822 q 200 920 221 878 q 179 1004 179 963 l 292 1004 q 306 974 294 990 q 338 946 317 957 q 396 935 360 935 q 455 946 432 935 q 489 974 478 957 q 501 1004 500 990 l 614 1004 q 592 920 614 963 q 524 850 571 878 q 396 822 476 822 z "},"ǧ":{"ha":821,"x_min":24,"x_max":801,"o":"m 211 -253 q 119 -233 163 -253 q 50 -176 76 -214 q 24 -82 24 -137 q 59 15 24 -21 q 138 68 94 50 q 85 113 106 85 q 65 179 65 140 q 104 263 65 232 q 193 304 143 294 q 115 386 142 336 q 88 500 88 436 q 124 631 88 576 q 232 717 161 686 q 403 747 303 747 q 481 742 443 747 q 549 725 518 736 q 615 791 597 754 q 635 851 633 828 l 800 851 q 781 765 800 803 q 729 703 763 728 q 649 668 696 679 q 701 594 683 638 q 719 500 719 551 q 684 368 719 424 q 580 282 649 313 q 411 251 511 251 l 299 251 q 253 239 269 251 q 238 204 238 226 q 252 172 238 186 q 293 158 267 158 l 613 158 q 748 105 694 158 q 801 -32 801 51 q 769 -144 801 -94 q 678 -224 736 -194 q 542 -253 619 -253 l 211 -253 m 272 -131 l 540 -131 q 587 -122 567 -131 q 619 -96 607 -112 q 631 -58 631 -79 q 608 -4 631 -22 q 551 14 585 14 l 272 14 q 217 -6 239 14 q 194 -58 194 -26 q 216 -110 194 -90 q 272 -131 238 -131 m 404 371 q 515 405 478 371 q 551 500 551 439 q 515 594 551 561 q 404 628 478 628 q 294 594 331 628 q 257 500 257 561 q 273 431 257 460 q 322 386 289 401 q 404 371 354 371 m 171 1004 l 318 1004 l 436 860 l 358 858 l 475 1004 l 622 1004 l 476 821 l 318 821 l 171 1004 z "},"ĝ":{"ha":821,"x_min":24,"x_max":801,"o":"m 211 -253 q 119 -233 163 -253 q 50 -176 76 -214 q 24 -82 24 -137 q 59 15 24 -21 q 138 68 94 50 q 85 113 106 85 q 65 179 65 140 q 104 263 65 232 q 193 304 143 294 q 115 386 142 336 q 88 500 88 436 q 124 631 88 576 q 232 717 161 686 q 403 747 303 747 q 481 742 443 747 q 549 725 518 736 q 615 791 597 754 q 635 851 633 828 l 800 851 q 781 765 800 803 q 729 703 763 728 q 649 668 696 679 q 701 594 683 638 q 719 500 719 551 q 684 368 719 424 q 580 282 649 313 q 411 251 511 251 l 299 251 q 253 239 269 251 q 238 204 238 226 q 252 172 238 186 q 293 158 267 158 l 613 158 q 748 105 694 158 q 801 -32 801 51 q 769 -144 801 -94 q 678 -224 736 -194 q 542 -253 619 -253 l 211 -253 m 272 -131 l 540 -131 q 587 -122 567 -131 q 619 -96 607 -112 q 631 -58 631 -79 q 608 -4 631 -22 q 551 14 585 14 l 272 14 q 217 -6 239 14 q 194 -58 194 -26 q 216 -110 194 -90 q 272 -131 238 -131 m 404 371 q 515 405 478 371 q 551 500 551 439 q 515 594 551 561 q 404 628 478 628 q 294 594 331 628 q 257 500 257 561 q 273 431 257 460 q 322 386 289 401 q 404 371 354 371 m 171 821 l 318 1004 l 476 1004 l 622 821 l 475 821 l 358 967 l 436 965 l 318 821 l 171 821 z "},"ģ":{"ha":821,"x_min":24,"x_max":801,"o":"m 211 -253 q 119 -233 163 -253 q 50 -176 76 -214 q 24 -82 24 -137 q 59 15 24 -21 q 138 68 94 50 q 85 113 106 85 q 65 179 65 140 q 104 263 65 232 q 193 304 143 294 q 115 386 142 336 q 88 500 88 436 q 124 631 88 576 q 232 717 161 686 q 403 747 303 747 q 481 742 443 747 q 549 725 518 736 q 615 791 597 754 q 635 851 633 828 l 800 851 q 781 765 800 803 q 729 703 763 728 q 649 668 696 679 q 701 594 683 638 q 719 500 719 551 q 684 368 719 424 q 580 282 649 313 q 411 251 511 251 l 299 251 q 253 239 269 251 q 238 204 238 226 q 252 172 238 186 q 293 158 267 158 l 613 158 q 748 105 694 158 q 801 -32 801 51 q 769 -144 801 -94 q 678 -224 736 -194 q 542 -253 619 -253 l 211 -253 m 272 -131 l 540 -131 q 587 -122 567 -131 q 619 -96 607 -112 q 631 -58 631 -79 q 608 -4 631 -22 q 551 14 585 14 l 272 14 q 217 -6 239 14 q 194 -58 194 -26 q 216 -110 194 -90 q 272 -131 238 -131 m 404 371 q 515 405 478 371 q 551 500 551 439 q 515 594 551 561 q 404 628 478 628 q 294 594 331 628 q 257 500 257 561 q 273 431 257 460 q 322 386 289 401 q 404 371 354 371 m 492 1182 l 492 1111 q 426 1084 447 1111 q 404 1024 404 1057 l 481 1024 l 481 857 l 314 857 l 314 988 q 339 1100 314 1057 q 404 1163 364 1143 q 492 1182 444 1182 z "},"ġ":{"ha":821,"x_min":24,"x_max":801,"o":"m 211 -253 q 119 -233 163 -253 q 50 -176 76 -214 q 24 -82 24 -137 q 59 15 24 -21 q 138 68 94 50 q 85 113 106 85 q 65 179 65 140 q 104 263 65 232 q 193 304 143 294 q 115 386 142 336 q 88 500 88 436 q 124 631 88 576 q 232 717 161 686 q 403 747 303 747 q 481 742 443 747 q 549 725 518 736 q 615 791 597 754 q 635 851 633 828 l 800 851 q 781 765 800 803 q 729 703 763 728 q 649 668 696 679 q 701 594 683 638 q 719 500 719 551 q 684 368 719 424 q 580 282 649 313 q 411 251 511 251 l 299 251 q 253 239 269 251 q 238 204 238 226 q 252 172 238 186 q 293 158 267 158 l 613 158 q 748 105 694 158 q 801 -32 801 51 q 769 -144 801 -94 q 678 -224 736 -194 q 542 -253 619 -253 l 211 -253 m 272 -131 l 540 -131 q 587 -122 567 -131 q 619 -96 607 -112 q 631 -58 631 -79 q 608 -4 631 -22 q 551 14 585 14 l 272 14 q 217 -6 239 14 q 194 -58 194 -26 q 216 -110 194 -90 q 272 -131 238 -131 m 404 371 q 515 405 478 371 q 551 500 551 439 q 515 594 551 561 q 404 628 478 628 q 294 594 331 628 q 257 500 257 561 q 273 431 257 460 q 322 386 289 401 q 404 371 354 371 m 314 839 l 314 1000 l 481 1000 l 481 839 l 314 839 z "},"h":{"ha":811,"x_min":90,"x_max":726,"o":"m 90 0 l 90 1004 l 260 1004 l 260 647 l 269 647 q 325 699 293 676 q 398 734 357 721 q 489 747 439 747 q 612 722 558 747 q 696 642 665 697 q 726 493 726 586 l 726 0 l 556 0 l 556 463 q 547 527 556 501 q 520 569 538 553 q 478 592 503 585 q 422 599 453 599 q 340 576 376 599 q 281 515 303 554 q 260 425 260 476 l 260 0 l 90 0 z "},"ħ":{"ha":811,"x_min":0,"x_max":726,"o":"m 90 0 l 90 1004 l 260 1004 l 260 647 l 269 647 q 325 699 293 676 q 398 734 357 721 q 489 747 439 747 q 612 722 558 747 q 696 642 665 697 q 726 493 726 586 l 726 0 l 556 0 l 556 463 q 547 527 556 501 q 520 569 538 553 q 478 592 503 585 q 422 599 453 599 q 340 576 376 599 q 281 515 303 554 q 260 425 260 476 l 260 0 l 90 0 m 0 806 l 0 918 l 464 918 l 464 806 l 0 806 z "},"ĥ":{"ha":811,"x_min":-60,"x_max":726,"o":"m 90 0 l 90 1004 l 260 1004 l 260 647 l 269 647 q 325 699 293 676 q 398 734 357 721 q 489 747 439 747 q 612 722 558 747 q 696 642 665 697 q 726 493 726 586 l 726 0 l 556 0 l 556 463 q 547 527 556 501 q 520 569 538 553 q 478 592 503 585 q 422 599 453 599 q 340 576 376 599 q 281 515 303 554 q 260 425 260 476 l 260 0 l 90 0 m -60 1022 l 88 1206 l 260 1206 l 406 1022 l 251 1022 l 135 1168 l 213 1167 l 94 1022 l -60 1022 z "},"ḥ":{"ha":811,"x_min":90,"x_max":726,"o":"m 90 0 l 90 1004 l 260 1004 l 260 647 l 269 647 q 325 699 293 676 q 398 734 357 721 q 489 747 439 747 q 612 722 558 747 q 696 642 665 697 q 726 493 726 586 l 726 0 l 556 0 l 556 463 q 547 527 556 501 q 520 569 538 553 q 478 592 503 585 q 422 599 453 599 q 340 576 376 599 q 281 515 303 554 q 260 425 260 476 l 260 0 l 90 0 m 325 -272 l 325 -111 l 492 -111 l 492 -272 l 325 -272 z "},"i":{"ha":350,"x_min":90,"x_max":260,"o":"m 90 843 l 90 1004 l 260 1004 l 260 843 l 90 843 m 90 0 l 90 731 l 260 731 l 260 0 l 90 0 z "},"ı":{"ha":350,"x_min":90,"x_max":260,"o":"m 90 0 l 90 731 l 260 731 l 260 0 l 90 0 z "},"í":{"ha":350,"x_min":83,"x_max":374,"o":"m 90 0 l 90 731 l 260 731 l 260 0 l 90 0 m 83 821 l 196 1004 l 372 1004 l 374 1000 l 224 821 l 83 821 z "},"ĭ":{"ha":350,"x_min":-44,"x_max":390,"o":"m 90 0 l 90 731 l 260 731 l 260 0 l 90 0 m 172 822 q 45 850 93 822 q -24 920 -3 878 q -44 1004 -44 963 l 68 1004 q 82 974 71 990 q 115 946 93 957 q 172 935 136 935 q 231 946 208 935 q 265 974 254 957 q 278 1004 276 990 l 390 1004 q 369 920 390 963 q 300 850 347 878 q 172 822 253 822 z "},"ǐ":{"ha":350,"x_min":-53,"x_max":399,"o":"m 90 0 l 90 731 l 260 731 l 260 0 l 90 0 m -53 1004 l 94 1004 l 213 860 l 135 858 l 251 1004 l 399 1004 l 253 821 l 94 821 l -53 1004 z "},"î":{"ha":350,"x_min":-53,"x_max":399,"o":"m 90 0 l 90 731 l 260 731 l 260 0 l 90 0 m -53 821 l 94 1004 l 253 1004 l 399 821 l 251 821 l 135 967 l 213 965 l 94 821 l -53 821 z "},"ȉ":{"ha":350,"x_min":-129,"x_max":372,"o":"m 90 0 l 90 731 l 260 731 l 260 0 l 90 0 m 239 821 l 99 1000 l 100 1004 l 269 1004 l 372 821 l 239 821 m 11 821 l -129 1000 l -128 1004 l 42 1004 l 144 821 l 11 821 z "},"ï":{"ha":350,"x_min":-44,"x_max":390,"o":"m 90 0 l 90 731 l 260 731 l 260 0 l 90 0 m -44 850 l -44 1004 l 107 1004 l 107 850 l -44 850 m 238 850 l 238 1004 l 390 1004 l 390 850 l 238 850 z "},"ị":{"ha":350,"x_min":90,"x_max":260,"o":"m 90 843 l 90 1004 l 260 1004 l 260 843 l 90 843 m 90 0 l 90 731 l 260 731 l 260 0 l 90 0 m 90 -272 l 90 -111 l 257 -111 l 257 -272 l 90 -272 z "},"ì":{"ha":350,"x_min":-22,"x_max":268,"o":"m 90 0 l 90 731 l 260 731 l 260 0 l 90 0 m 268 821 l 128 821 l -22 1000 l -21 1004 l 156 1004 l 268 821 z "},"ỉ":{"ha":350,"x_min":65,"x_max":328,"o":"m 90 0 l 90 731 l 260 731 l 260 0 l 90 0 m 132 821 l 132 899 l 150 899 q 183 905 174 899 q 193 925 193 911 q 181 945 193 940 q 147 950 169 950 l 65 950 l 65 1010 q 101 1016 82 1014 q 140 1019 121 1018 q 176 1021 160 1021 q 226 1017 200 1021 q 276 1005 253 1014 q 313 979 299 996 q 328 936 328 963 q 313 893 328 910 q 273 868 297 876 q 221 857 249 860 l 221 821 l 132 821 z "},"ȋ":{"ha":350,"x_min":-44,"x_max":390,"o":"m 90 0 l 90 731 l 260 731 l 260 0 l 90 0 m 172 1004 q 300 976 253 1004 q 369 907 347 949 q 390 822 390 865 l 278 822 q 265 853 276 838 q 231 881 254 869 q 172 892 208 892 q 115 881 136 892 q 82 853 93 869 q 68 822 71 838 l -44 822 q -24 907 -44 865 q 45 976 -3 949 q 172 1004 93 1004 z "},"ĳ":{"ha":697,"x_min":90,"x_max":610,"o":"m 90 843 l 90 1004 l 260 1004 l 260 843 l 90 843 m 90 0 l 90 731 l 260 731 l 260 0 l 90 0 m 440 843 l 440 1004 l 610 1004 l 610 843 l 440 843 m 429 -253 q 388 -250 410 -253 q 344 -242 365 -247 q 310 -232 324 -237 l 310 -115 l 379 -115 q 424 -99 408 -115 q 440 -53 440 -83 l 440 731 l 610 731 l 610 -65 q 594 -154 610 -111 q 539 -225 578 -197 q 429 -253 500 -253 z "},"ī":{"ha":350,"x_min":-39,"x_max":385,"o":"m 90 0 l 90 731 l 260 731 l 260 0 l 90 0 m -39 857 l -39 972 l 385 972 l 385 857 l -39 857 z "},"į":{"ha":350,"x_min":18,"x_max":276,"o":"m 90 843 l 90 1004 l 260 1004 l 260 843 l 90 843 m 90 0 l 90 731 l 260 731 l 260 0 l 90 0 m 164 -253 q 96 -242 129 -253 q 40 -203 63 -231 q 18 -129 18 -176 q 41 -44 18 -78 q 92 17 64 -10 l 200 17 l 200 11 q 169 -30 186 -3 q 153 -86 153 -57 q 169 -136 153 -114 q 222 -158 185 -158 l 276 -158 l 276 -233 q 219 -248 251 -243 q 164 -253 188 -253 z "},"ĩ":{"ha":350,"x_min":-58,"x_max":404,"o":"m 90 0 l 90 731 l 260 731 l 260 0 l 90 0 m -58 842 q -45 923 -58 886 q -3 982 -32 960 q 72 1004 26 1004 q 140 992 108 1004 q 201 968 171 981 q 264 956 232 956 q 295 966 283 956 q 310 1004 307 976 l 404 1004 q 391 924 404 961 q 349 865 378 888 q 274 842 321 842 q 207 854 239 842 q 145 879 175 867 q 83 892 115 892 q 53 881 65 892 q 38 842 40 869 l -58 842 z "},"j":{"ha":347,"x_min":-40,"x_max":260,"o":"m 90 843 l 90 1004 l 260 1004 l 260 843 l 90 843 m 79 -253 q 38 -250 60 -253 q -6 -242 15 -247 q -40 -232 -26 -237 l -40 -115 l 29 -115 q 74 -99 58 -115 q 90 -53 90 -83 l 90 731 l 260 731 l 260 -65 q 244 -154 260 -111 q 189 -225 228 -197 q 79 -253 150 -253 z "},"ȷ":{"ha":347,"x_min":-40,"x_max":260,"o":"m 79 -253 q 38 -250 60 -253 q -6 -242 15 -247 q -40 -232 -26 -237 l -40 -115 l 29 -115 q 74 -99 58 -115 q 90 -53 90 -83 l 90 731 l 260 731 l 260 -65 q 244 -154 260 -111 q 189 -225 228 -197 q 79 -253 150 -253 z "},"ĵ":{"ha":347,"x_min":-53,"x_max":399,"o":"m 79 -253 q 38 -250 60 -253 q -6 -242 15 -247 q -40 -232 -26 -237 l -40 -115 l 29 -115 q 74 -99 58 -115 q 90 -53 90 -83 l 90 731 l 260 731 l 260 -65 q 244 -154 260 -111 q 189 -225 228 -197 q 79 -253 150 -253 m -53 821 l 94 1004 l 253 1004 l 399 821 l 251 821 l 135 967 l 213 965 l 94 821 l -53 821 z "},"k":{"ha":754,"x_min":90,"x_max":735,"o":"m 90 0 l 90 1004 l 260 1004 l 260 419 l 522 731 l 721 731 l 476 447 l 735 0 l 540 0 l 368 324 l 260 219 l 260 0 l 90 0 z "},"ķ":{"ha":754,"x_min":90,"x_max":735,"o":"m 90 0 l 90 1004 l 260 1004 l 260 419 l 522 731 l 721 731 l 476 447 l 735 0 l 540 0 l 368 324 l 260 219 l 260 0 l 90 0 m 294 -431 l 294 -360 q 360 -333 339 -360 q 382 -272 382 -306 l 306 -272 l 306 -106 l 472 -106 l 472 -236 q 447 -349 472 -306 q 382 -411 422 -392 q 294 -431 342 -431 z "},"ĸ":{"ha":754,"x_min":90,"x_max":735,"o":"m 90 0 l 90 731 l 260 731 l 260 419 l 522 731 l 721 731 l 476 447 l 735 0 l 540 0 l 368 324 l 260 219 l 260 0 l 90 0 z "},"l":{"ha":350,"x_min":90,"x_max":260,"o":"m 90 0 l 90 1004 l 260 1004 l 260 0 l 90 0 z "},"ĺ":{"ha":350,"x_min":90,"x_max":392,"o":"m 90 0 l 90 1004 l 260 1004 l 260 0 l 90 0 m 94 1022 l 207 1206 l 390 1206 l 392 1201 l 242 1022 l 94 1022 z "},"ľ":{"ha":350,"x_min":90,"x_max":474,"o":"m 90 0 l 90 1004 l 260 1004 l 260 0 l 90 0 m 315 771 l 315 1004 l 474 1004 l 431 771 l 315 771 z "},"ļ":{"ha":350,"x_min":81,"x_max":260,"o":"m 90 0 l 90 1004 l 260 1004 l 260 0 l 90 0 m 81 -431 l 81 -360 q 147 -333 125 -360 q 168 -272 168 -306 l 92 -272 l 92 -106 l 258 -106 l 258 -236 q 233 -349 258 -306 q 168 -411 208 -392 q 81 -431 128 -431 z "},"ŀ":{"ha":350,"x_min":90,"x_max":467,"o":"m 90 0 l 90 1004 l 260 1004 l 260 0 l 90 0 m 304 447 l 304 601 l 467 601 l 467 447 l 304 447 z "},"ǉ":{"ha":697,"x_min":90,"x_max":610,"o":"m 90 0 l 90 1004 l 260 1004 l 260 0 l 90 0 m 440 843 l 440 1004 l 610 1004 l 610 843 l 440 843 m 429 -253 q 388 -250 410 -253 q 344 -242 365 -247 q 310 -232 324 -237 l 310 -115 l 379 -115 q 424 -99 408 -115 q 440 -53 440 -83 l 440 731 l 610 731 l 610 -65 q 594 -154 610 -111 q 539 -225 578 -197 q 429 -253 500 -253 z "},"ł":{"ha":350,"x_min":-7,"x_max":356,"o":"m 90 0 l 90 1004 l 260 1004 l 260 0 l 90 0 m -7 308 l -7 440 l 356 701 l 356 571 l -7 308 z "},"m":{"ha":1196,"x_min":90,"x_max":1111,"o":"m 90 0 l 90 731 l 232 731 l 246 633 l 256 633 q 310 692 279 667 q 380 733 340 718 q 467 747 419 747 q 581 721 531 747 q 658 633 631 694 l 668 633 q 724 692 692 667 q 797 733 756 718 q 888 747 839 747 q 1003 724 953 747 q 1082 646 1053 700 q 1111 501 1111 592 l 1111 0 l 942 0 l 942 467 q 933 530 942 504 q 910 570 925 556 q 874 592 896 585 q 828 599 853 599 q 756 576 788 599 q 705 515 724 554 q 686 425 686 476 l 686 0 l 517 0 l 517 467 q 508 530 517 504 q 485 570 500 556 q 449 592 471 585 q 403 599 428 599 q 330 576 363 599 q 278 515 297 554 q 260 425 260 476 l 260 0 l 90 0 z "},"n":{"ha":811,"x_min":90,"x_max":726,"o":"m 90 0 l 90 731 l 232 731 l 246 633 l 256 633 q 315 692 281 667 q 392 733 349 718 q 489 747 436 747 q 612 722 558 747 q 696 642 665 697 q 726 493 726 586 l 726 0 l 556 0 l 556 463 q 547 527 556 501 q 520 569 538 553 q 478 592 503 585 q 422 599 453 599 q 340 576 376 599 q 281 515 303 554 q 260 425 260 476 l 260 0 l 90 0 z "},"ń":{"ha":811,"x_min":90,"x_max":726,"o":"m 90 0 l 90 731 l 232 731 l 246 633 l 256 633 q 315 692 281 667 q 392 733 349 718 q 489 747 436 747 q 612 722 558 747 q 696 642 665 697 q 726 493 726 586 l 726 0 l 556 0 l 556 463 q 547 527 556 501 q 520 569 538 553 q 478 592 503 585 q 422 599 453 599 q 340 576 376 599 q 281 515 303 554 q 260 425 260 476 l 260 0 l 90 0 m 318 821 l 431 1004 l 607 1004 l 608 1000 l 458 821 l 318 821 z "},"ŉ":{"ha":811,"x_min":-10,"x_max":726,"o":"m 90 0 l 90 731 l 232 731 l 246 633 l 256 633 q 315 692 281 667 q 392 733 349 718 q 489 747 436 747 q 612 722 558 747 q 696 642 665 697 q 726 493 726 586 l 726 0 l 556 0 l 556 463 q 547 527 556 501 q 520 569 538 553 q 478 592 503 585 q 422 599 453 599 q 340 576 376 599 q 281 515 303 554 q 260 425 260 476 l 260 0 l 90 0 m -10 758 l -10 829 q 56 856 35 829 q 78 917 78 883 l 0 917 l 0 1083 l 168 1083 l 168 953 q 143 840 168 883 q 78 778 118 797 q -10 758 38 758 z "},"ň":{"ha":811,"x_min":90,"x_max":726,"o":"m 90 0 l 90 731 l 232 731 l 246 633 l 256 633 q 315 692 281 667 q 392 733 349 718 q 489 747 436 747 q 612 722 558 747 q 696 642 665 697 q 726 493 726 586 l 726 0 l 556 0 l 556 463 q 547 527 556 501 q 520 569 538 553 q 478 592 503 585 q 422 599 453 599 q 340 576 376 599 q 281 515 303 554 q 260 425 260 476 l 260 0 l 90 0 m 182 1004 l 329 1004 l 447 860 l 369 858 l 486 1004 l 633 1004 l 488 821 l 329 821 l 182 1004 z "},"ņ":{"ha":811,"x_min":90,"x_max":726,"o":"m 90 0 l 90 731 l 232 731 l 246 633 l 256 633 q 315 692 281 667 q 392 733 349 718 q 489 747 436 747 q 612 722 558 747 q 696 642 665 697 q 726 493 726 586 l 726 0 l 556 0 l 556 463 q 547 527 556 501 q 520 569 538 553 q 478 592 503 585 q 422 599 453 599 q 340 576 376 599 q 281 515 303 554 q 260 425 260 476 l 260 0 l 90 0 m 314 -431 l 314 -360 q 380 -333 358 -360 q 401 -272 401 -306 l 325 -272 l 325 -106 l 492 -106 l 492 -236 q 467 -349 492 -306 q 401 -411 442 -392 q 314 -431 361 -431 z "},"ŋ":{"ha":810,"x_min":90,"x_max":725,"o":"m 546 -253 q 503 -250 526 -253 q 460 -242 481 -247 q 426 -232 440 -237 l 426 -115 l 494 -115 q 540 -99 525 -115 q 556 -53 556 -83 l 556 463 q 547 527 556 501 q 520 569 538 553 q 478 592 503 585 q 422 599 453 599 q 340 576 376 599 q 281 515 303 554 q 260 425 260 476 l 260 0 l 90 0 l 90 731 l 232 731 l 246 633 l 256 633 q 315 692 281 667 q 392 733 349 718 q 489 747 436 747 q 611 722 558 747 q 694 642 664 697 q 725 493 725 586 l 725 -65 q 716 -133 725 -100 q 687 -194 707 -167 q 632 -237 667 -221 q 546 -253 597 -253 z "},"ɲ":{"ha":811,"x_min":-40,"x_max":726,"o":"m 79 -253 q 38 -250 60 -253 q -6 -242 15 -247 q -40 -232 -26 -237 l -40 -115 l 29 -115 q 74 -99 58 -115 q 90 -53 90 -83 l 90 731 l 232 731 l 246 633 l 256 633 q 315 692 281 667 q 392 733 349 718 q 489 747 436 747 q 612 722 558 747 q 696 642 665 697 q 726 493 726 586 l 726 0 l 556 0 l 556 463 q 547 527 556 501 q 520 569 538 553 q 478 592 503 585 q 422 599 453 599 q 340 576 376 599 q 281 515 303 554 q 260 425 260 476 l 260 -65 q 251 -133 260 -100 q 222 -194 243 -167 q 167 -237 201 -221 q 79 -253 132 -253 z "},"ǌ":{"ha":1158,"x_min":90,"x_max":1071,"o":"m 90 0 l 90 731 l 232 731 l 246 633 l 256 633 q 315 692 281 667 q 392 733 349 718 q 489 747 436 747 q 612 722 558 747 q 696 642 665 697 q 726 493 726 586 l 726 0 l 556 0 l 556 463 q 547 527 556 501 q 520 569 538 553 q 478 592 503 585 q 422 599 453 599 q 340 576 376 599 q 281 515 303 554 q 260 425 260 476 l 260 0 l 90 0 m 901 843 l 901 1004 l 1071 1004 l 1071 843 l 901 843 m 890 -253 q 849 -250 871 -253 q 806 -242 826 -247 q 771 -232 785 -237 l 771 -115 l 840 -115 q 885 -99 869 -115 q 901 -53 901 -83 l 901 731 l 1071 731 l 1071 -65 q 1055 -154 1071 -111 q 1000 -225 1039 -197 q 890 -253 961 -253 z "},"ñ":{"ha":811,"x_min":90,"x_max":726,"o":"m 90 0 l 90 731 l 232 731 l 246 633 l 256 633 q 315 692 281 667 q 392 733 349 718 q 489 747 436 747 q 612 722 558 747 q 696 642 665 697 q 726 493 726 586 l 726 0 l 556 0 l 556 463 q 547 527 556 501 q 520 569 538 553 q 478 592 503 585 q 422 599 453 599 q 340 576 376 599 q 281 515 303 554 q 260 425 260 476 l 260 0 l 90 0 m 176 842 q 190 923 176 886 q 232 982 203 960 q 307 1004 261 1004 q 374 992 343 1004 q 436 968 406 981 q 499 956 467 956 q 530 966 518 956 q 544 1004 542 976 l 639 1004 q 626 924 639 961 q 584 865 613 888 q 508 842 556 842 q 442 854 474 842 q 380 879 410 867 q 318 892 350 892 q 288 881 300 892 q 272 842 275 869 l 176 842 z "},"o":{"ha":831,"x_min":54,"x_max":776,"o":"m 415 -17 q 215 24 296 -17 q 94 150 135 65 q 54 365 54 235 q 94 581 54 497 q 215 706 135 665 q 415 747 296 747 q 616 706 536 747 q 736 581 696 665 q 776 365 776 497 q 736 150 776 235 q 616 24 696 65 q 415 -17 536 -17 m 415 122 q 523 148 482 122 q 583 226 564 174 q 601 356 601 278 l 601 375 q 583 505 601 453 q 523 583 564 557 q 415 608 482 608 q 308 583 349 608 q 248 505 267 557 q 229 375 229 453 l 229 356 q 248 226 229 278 q 308 148 267 174 q 415 122 349 122 z "},"ó":{"ha":831,"x_min":54,"x_max":776,"o":"m 415 -17 q 215 24 296 -17 q 94 150 135 65 q 54 365 54 235 q 94 581 54 497 q 215 706 135 665 q 415 747 296 747 q 616 706 536 747 q 736 581 696 665 q 776 365 776 497 q 736 150 776 235 q 616 24 696 65 q 415 -17 536 -17 m 415 122 q 523 148 482 122 q 583 226 564 174 q 601 356 601 278 l 601 375 q 583 505 601 453 q 523 583 564 557 q 415 608 482 608 q 308 583 349 608 q 248 505 267 557 q 229 375 229 453 l 229 356 q 248 226 229 278 q 308 148 267 174 q 415 122 349 122 m 325 821 l 438 1004 l 614 1004 l 615 1000 l 465 821 l 325 821 z "},"ŏ":{"ha":831,"x_min":54,"x_max":776,"o":"m 415 -17 q 215 24 296 -17 q 94 150 135 65 q 54 365 54 235 q 94 581 54 497 q 215 706 135 665 q 415 747 296 747 q 616 706 536 747 q 736 581 696 665 q 776 365 776 497 q 736 150 776 235 q 616 24 696 65 q 415 -17 536 -17 m 415 122 q 523 148 482 122 q 583 226 564 174 q 601 356 601 278 l 601 375 q 583 505 601 453 q 523 583 564 557 q 415 608 482 608 q 308 583 349 608 q 248 505 267 557 q 229 375 229 453 l 229 356 q 248 226 229 278 q 308 148 267 174 q 415 122 349 122 m 414 822 q 287 850 335 822 q 218 920 239 878 q 197 1004 197 963 l 310 1004 q 324 974 313 990 q 356 946 335 957 q 414 935 378 935 q 473 946 450 935 q 507 974 496 957 q 519 1004 518 990 l 632 1004 q 610 920 632 963 q 542 850 589 878 q 414 822 494 822 z "},"ǒ":{"ha":831,"x_min":54,"x_max":776,"o":"m 415 -17 q 215 24 296 -17 q 94 150 135 65 q 54 365 54 235 q 94 581 54 497 q 215 706 135 665 q 415 747 296 747 q 616 706 536 747 q 736 581 696 665 q 776 365 776 497 q 736 150 776 235 q 616 24 696 65 q 415 -17 536 -17 m 415 122 q 523 148 482 122 q 583 226 564 174 q 601 356 601 278 l 601 375 q 583 505 601 453 q 523 583 564 557 q 415 608 482 608 q 308 583 349 608 q 248 505 267 557 q 229 375 229 453 l 229 356 q 248 226 229 278 q 308 148 267 174 q 415 122 349 122 m 189 1004 l 336 1004 l 454 860 l 376 858 l 493 1004 l 640 1004 l 494 821 l 336 821 l 189 1004 z "},"ô":{"ha":831,"x_min":54,"x_max":776,"o":"m 415 -17 q 215 24 296 -17 q 94 150 135 65 q 54 365 54 235 q 94 581 54 497 q 215 706 135 665 q 415 747 296 747 q 616 706 536 747 q 736 581 696 665 q 776 365 776 497 q 736 150 776 235 q 616 24 696 65 q 415 -17 536 -17 m 415 122 q 523 148 482 122 q 583 226 564 174 q 601 356 601 278 l 601 375 q 583 505 601 453 q 523 583 564 557 q 415 608 482 608 q 308 583 349 608 q 248 505 267 557 q 229 375 229 453 l 229 356 q 248 226 229 278 q 308 148 267 174 q 415 122 349 122 m 189 821 l 336 1004 l 494 1004 l 640 821 l 493 821 l 376 967 l 454 965 l 336 821 l 189 821 z "},"ố":{"ha":831,"x_min":54,"x_max":776,"o":"m 415 -17 q 215 24 296 -17 q 94 150 135 65 q 54 365 54 235 q 94 581 54 497 q 215 706 135 665 q 415 747 296 747 q 616 706 536 747 q 736 581 696 665 q 776 365 776 497 q 736 150 776 235 q 616 24 696 65 q 415 -17 536 -17 m 415 122 q 523 148 482 122 q 583 226 564 174 q 601 356 601 278 l 601 375 q 583 505 601 453 q 523 583 564 557 q 415 608 482 608 q 308 583 349 608 q 248 505 267 557 q 229 375 229 453 l 229 356 q 248 226 229 278 q 308 148 267 174 q 415 122 349 122 m 189 821 l 336 1004 l 494 1004 l 640 821 l 493 821 l 376 967 l 454 965 l 336 821 l 189 821 m 325 1076 l 438 1260 l 614 1260 l 615 1256 l 465 1076 l 325 1076 z "},"ộ":{"ha":831,"x_min":54,"x_max":776,"o":"m 415 -17 q 215 24 296 -17 q 94 150 135 65 q 54 365 54 235 q 94 581 54 497 q 215 706 135 665 q 415 747 296 747 q 616 706 536 747 q 736 581 696 665 q 776 365 776 497 q 736 150 776 235 q 616 24 696 65 q 415 -17 536 -17 m 415 122 q 523 148 482 122 q 583 226 564 174 q 601 356 601 278 l 601 375 q 583 505 601 453 q 523 583 564 557 q 415 608 482 608 q 308 583 349 608 q 248 505 267 557 q 229 375 229 453 l 229 356 q 248 226 229 278 q 308 148 267 174 q 415 122 349 122 m 332 -272 l 332 -111 l 499 -111 l 499 -272 l 332 -272 m 189 821 l 336 1004 l 494 1004 l 640 821 l 493 821 l 376 967 l 454 965 l 336 821 l 189 821 z "},"ồ":{"ha":831,"x_min":54,"x_max":776,"o":"m 415 -17 q 215 24 296 -17 q 94 150 135 65 q 54 365 54 235 q 94 581 54 497 q 215 706 135 665 q 415 747 296 747 q 616 706 536 747 q 736 581 696 665 q 776 365 776 497 q 736 150 776 235 q 616 24 696 65 q 415 -17 536 -17 m 415 122 q 523 148 482 122 q 583 226 564 174 q 601 356 601 278 l 601 375 q 583 505 601 453 q 523 583 564 557 q 415 608 482 608 q 308 583 349 608 q 248 505 267 557 q 229 375 229 453 l 229 356 q 248 226 229 278 q 308 148 267 174 q 415 122 349 122 m 189 821 l 336 1004 l 494 1004 l 640 821 l 493 821 l 376 967 l 454 965 l 336 821 l 189 821 m 510 1076 l 369 1076 l 219 1256 l 221 1260 l 397 1260 l 510 1076 z "},"ổ":{"ha":831,"x_min":54,"x_max":776,"o":"m 415 -17 q 215 24 296 -17 q 94 150 135 65 q 54 365 54 235 q 94 581 54 497 q 215 706 135 665 q 415 747 296 747 q 616 706 536 747 q 736 581 696 665 q 776 365 776 497 q 736 150 776 235 q 616 24 696 65 q 415 -17 536 -17 m 415 122 q 523 148 482 122 q 583 226 564 174 q 601 356 601 278 l 601 375 q 583 505 601 453 q 523 583 564 557 q 415 608 482 608 q 308 583 349 608 q 248 505 267 557 q 229 375 229 453 l 229 356 q 248 226 229 278 q 308 148 267 174 q 415 122 349 122 m 189 821 l 336 1004 l 494 1004 l 640 821 l 493 821 l 376 967 l 454 965 l 336 821 l 189 821 m 374 1076 l 374 1154 l 392 1154 q 425 1160 415 1154 q 435 1181 435 1167 q 423 1201 435 1196 q 389 1206 411 1206 l 307 1206 l 307 1265 q 343 1272 324 1269 q 382 1275 363 1274 q 418 1276 401 1276 q 468 1273 442 1276 q 517 1260 494 1269 q 555 1235 540 1251 q 569 1192 569 1218 q 554 1149 569 1165 q 515 1124 539 1132 q 463 1113 490 1115 l 463 1076 l 374 1076 z "},"ỗ":{"ha":831,"x_min":54,"x_max":776,"o":"m 415 -17 q 215 24 296 -17 q 94 150 135 65 q 54 365 54 235 q 94 581 54 497 q 215 706 135 665 q 415 747 296 747 q 616 706 536 747 q 736 581 696 665 q 776 365 776 497 q 736 150 776 235 q 616 24 696 65 q 415 -17 536 -17 m 415 122 q 523 148 482 122 q 583 226 564 174 q 601 356 601 278 l 601 375 q 583 505 601 453 q 523 583 564 557 q 415 608 482 608 q 308 583 349 608 q 248 505 267 557 q 229 375 229 453 l 229 356 q 248 226 229 278 q 308 148 267 174 q 415 122 349 122 m 189 821 l 336 1004 l 494 1004 l 640 821 l 493 821 l 376 967 l 454 965 l 336 821 l 189 821 m 183 1097 q 197 1178 183 1142 q 239 1238 210 1215 q 314 1260 268 1260 q 381 1248 350 1260 q 443 1224 413 1236 q 506 1211 474 1211 q 537 1222 525 1211 q 551 1260 549 1232 l 646 1260 q 633 1180 646 1217 q 591 1120 619 1143 q 515 1097 563 1097 q 449 1110 481 1097 q 387 1135 417 1122 q 325 1147 357 1147 q 294 1136 307 1147 q 279 1097 282 1125 l 183 1097 z "},"ȍ":{"ha":831,"x_min":54,"x_max":776,"o":"m 415 -17 q 215 24 296 -17 q 94 150 135 65 q 54 365 54 235 q 94 581 54 497 q 215 706 135 665 q 415 747 296 747 q 616 706 536 747 q 736 581 696 665 q 776 365 776 497 q 736 150 776 235 q 616 24 696 65 q 415 -17 536 -17 m 415 122 q 523 148 482 122 q 583 226 564 174 q 601 356 601 278 l 601 375 q 583 505 601 453 q 523 583 564 557 q 415 608 482 608 q 308 583 349 608 q 248 505 267 557 q 229 375 229 453 l 229 356 q 248 226 229 278 q 308 148 267 174 q 415 122 349 122 m 481 821 l 340 1000 l 342 1004 l 511 1004 l 614 821 l 481 821 m 253 821 l 113 1000 l 114 1004 l 283 1004 l 386 821 l 253 821 z "},"ö":{"ha":831,"x_min":54,"x_max":776,"o":"m 415 -17 q 215 24 296 -17 q 94 150 135 65 q 54 365 54 235 q 94 581 54 497 q 215 706 135 665 q 415 747 296 747 q 616 706 536 747 q 736 581 696 665 q 776 365 776 497 q 736 150 776 235 q 616 24 696 65 q 415 -17 536 -17 m 415 122 q 523 148 482 122 q 583 226 564 174 q 601 356 601 278 l 601 375 q 583 505 601 453 q 523 583 564 557 q 415 608 482 608 q 308 583 349 608 q 248 505 267 557 q 229 375 229 453 l 229 356 q 248 226 229 278 q 308 148 267 174 q 415 122 349 122 m 197 850 l 197 1004 l 349 1004 l 349 850 l 197 850 m 479 850 l 479 1004 l 632 1004 l 632 850 l 479 850 z "},"ȫ":{"ha":831,"x_min":54,"x_max":776,"o":"m 415 -17 q 215 24 296 -17 q 94 150 135 65 q 54 365 54 235 q 94 581 54 497 q 215 706 135 665 q 415 747 296 747 q 616 706 536 747 q 736 581 696 665 q 776 365 776 497 q 736 150 776 235 q 616 24 696 65 q 415 -17 536 -17 m 415 122 q 523 148 482 122 q 583 226 564 174 q 601 356 601 278 l 601 375 q 583 505 601 453 q 523 583 564 557 q 415 608 482 608 q 308 583 349 608 q 248 505 267 557 q 229 375 229 453 l 229 356 q 248 226 229 278 q 308 148 267 174 q 415 122 349 122 m 197 850 l 197 1004 l 349 1004 l 349 850 l 197 850 m 479 850 l 479 1004 l 632 1004 l 632 850 l 479 850 m 203 1099 l 203 1214 l 626 1214 l 626 1099 l 203 1099 z "},"ȱ":{"ha":831,"x_min":54,"x_max":776,"o":"m 415 -17 q 215 24 296 -17 q 94 150 135 65 q 54 365 54 235 q 94 581 54 497 q 215 706 135 665 q 415 747 296 747 q 616 706 536 747 q 736 581 696 665 q 776 365 776 497 q 736 150 776 235 q 616 24 696 65 q 415 -17 536 -17 m 415 122 q 523 148 482 122 q 583 226 564 174 q 601 356 601 278 l 601 375 q 583 505 601 453 q 523 583 564 557 q 415 608 482 608 q 308 583 349 608 q 248 505 267 557 q 229 375 229 453 l 229 356 q 248 226 229 278 q 308 148 267 174 q 415 122 349 122 m 332 839 l 332 1000 l 499 1000 l 499 839 l 332 839 m 203 1099 l 203 1214 l 626 1214 l 626 1099 l 203 1099 z "},"ọ":{"ha":831,"x_min":54,"x_max":776,"o":"m 415 -17 q 215 24 296 -17 q 94 150 135 65 q 54 365 54 235 q 94 581 54 497 q 215 706 135 665 q 415 747 296 747 q 616 706 536 747 q 736 581 696 665 q 776 365 776 497 q 736 150 776 235 q 616 24 696 65 q 415 -17 536 -17 m 415 122 q 523 148 482 122 q 583 226 564 174 q 601 356 601 278 l 601 375 q 583 505 601 453 q 523 583 564 557 q 415 608 482 608 q 308 583 349 608 q 248 505 267 557 q 229 375 229 453 l 229 356 q 248 226 229 278 q 308 148 267 174 q 415 122 349 122 m 332 -272 l 332 -111 l 499 -111 l 499 -272 l 332 -272 z "},"ò":{"ha":831,"x_min":54,"x_max":776,"o":"m 415 -17 q 215 24 296 -17 q 94 150 135 65 q 54 365 54 235 q 94 581 54 497 q 215 706 135 665 q 415 747 296 747 q 616 706 536 747 q 736 581 696 665 q 776 365 776 497 q 736 150 776 235 q 616 24 696 65 q 415 -17 536 -17 m 415 122 q 523 148 482 122 q 583 226 564 174 q 601 356 601 278 l 601 375 q 583 505 601 453 q 523 583 564 557 q 415 608 482 608 q 308 583 349 608 q 248 505 267 557 q 229 375 229 453 l 229 356 q 248 226 229 278 q 308 148 267 174 q 415 122 349 122 m 510 821 l 369 821 l 219 1000 l 221 1004 l 397 1004 l 510 821 z "},"ỏ":{"ha":831,"x_min":54,"x_max":776,"o":"m 415 -17 q 215 24 296 -17 q 94 150 135 65 q 54 365 54 235 q 94 581 54 497 q 215 706 135 665 q 415 747 296 747 q 616 706 536 747 q 736 581 696 665 q 776 365 776 497 q 736 150 776 235 q 616 24 696 65 q 415 -17 536 -17 m 415 122 q 523 148 482 122 q 583 226 564 174 q 601 356 601 278 l 601 375 q 583 505 601 453 q 523 583 564 557 q 415 608 482 608 q 308 583 349 608 q 248 505 267 557 q 229 375 229 453 l 229 356 q 248 226 229 278 q 308 148 267 174 q 415 122 349 122 m 374 821 l 374 899 l 392 899 q 425 905 415 899 q 435 925 435 911 q 423 945 435 940 q 389 950 411 950 l 307 950 l 307 1010 q 343 1016 324 1014 q 382 1019 363 1018 q 418 1021 401 1021 q 468 1017 442 1021 q 517 1005 494 1014 q 555 979 540 996 q 569 936 569 963 q 554 893 569 910 q 515 868 539 876 q 463 857 490 860 l 463 821 l 374 821 z "}}}
